0
SECTION
2
HEADER
9
$INSUNITS
70
4
9
$ACADVER
1
AC1014
9
$HANDSEED
5
FFFF
0
ENDSEC
0
SECTION
2
TABLES
0
TABLE
2
VPORT
5
8
100
AcDbSymbolTable
0
ENDTAB
0
TABLE
2
LTYPE
5
5
100
AcDbSymbolTable
0
LTYPE
5
14
100
AcDbSymbolTableRecord
100
AcDbLinetypeTableRecord
2
BYBLOCK
70
0
0
LTYPE
5
15
100
AcDbSymbolTableRecord
100
AcDbLinetypeTableRecord
2
BYLAYER
70
0
0
ENDTAB
0
TABLE
2
LAYER
5
2
100
AcDbSymbolTable
70
2
0
LAYER
5
50
100
AcDbSymbolTableRecord
100
AcDbLayerTableRecord
2
0
70
0
6
CONTINUOUS
0
ENDTAB
0
TABLE
2
STYLE
5
3
100
AcDbSymbolTable
70
1
0
STYLE
5
11
100
AcDbSymbolTableRecord
100
AcDbTextStyleTableRecord
2
STANDARD
70
0
0
ENDTAB
0
TABLE
2
VIEW
5
6
100
AcDbSymbolTable
70
0
0
ENDTAB
0
TABLE
2
UCS
5
7
100
AcDbSymbolTable
70
0
0
ENDTAB
0
TABLE
2
APPID
5
9
100
AcDbSymbolTable
70
2
0
APPID
5
12
100
AcDbSymbolTableRecord
100
AcDbRegAppTableRecord
2
ACAD
70
0
0
ENDTAB
0
TABLE
2
DIMSTYLE
5
A
100
AcDbSymbolTable
70
1
0
ENDTAB
0
TABLE
2
BLOCK_RECORD
5
1
100
AcDbSymbolTable
70
1
0
BLOCK_RECORD
5
1F
100
AcDbSymbolTableRecord
100
AcDbBlockTableRecord
2
*MODEL_SPACE
0
BLOCK_RECORD
5
1B
100
AcDbSymbolTableRecord
100
AcDbBlockTableRecord
2
*PAPER_SPACE
0
ENDTAB
0
ENDSEC
0
SECTION
2
BLOCKS
0
BLOCK
5
20
100
AcDbEntity
100
AcDbBlockBegin
2
*MODEL_SPACE
0
ENDBLK
5
21
100
AcDbEntity
100
AcDbBlockEnd
0
BLOCK
5
1C
100
AcDbEntity
100
AcDbBlockBegin
2
*PAPER_SPACE
0
ENDBLK
5
1D
100
AcDbEntity
100
AcDbBlockEnd
0
ENDSEC
0
SECTION
2
ENTITIES
0
ARC
5
100
100
AcDbEntity
8
0
100
AcDbCircle
10
35.999999573783505
20
-7.6749999455580831
30
0
40
9.5491999999995887
210
0
220
0
230
1
100
AcDbArc
50
241.70922906383691
51
244.47364026084972
0
ARC
5
101
100
AcDbEntity
8
0
100
AcDbCircle
10
31.454071866237712
20
-17.194462215967995
30
2.2204460492503131e-15
40
0.99999999999995537
210
-4.2232116131588014e-33
220
-1.1579877702404168e-32
230
1
100
AcDbArc
50
-20.037044651100704
51
64.473640260849379
0
LINE
5
102
100
AcDbEntity
8
0
100
AcDbLine
10
32.393543157119083
20
-17.537089847091924
30
2.2204460492503131e-15
11
32.127840295297304
21
-18.265636490477789
31
2.2204460492503131e-15
0
SPLINE
5
103
100
AcDbEntity
8
0
100
AcDbSpline
70
4
71
5
72
81
73
75
74
0
42
0.000000001
43
0.0000000001
44
0.0000000001
40
0
40
0
40
0
40
0
40
0
40
0
40
0.014285714285714285
40
0.028571428571428571
40
0.042857142857142858
40
0.057142857142857141
40
0.071428571428571425
40
0.085714285714285715
40
0.10000000000000001
40
0.1142857142857143
40
0.12857142857142859
40
0.14285714285714288
40
0.15714285714285717
40
0.17142857142857146
40
0.18571428571428575
40
0.20000000000000004
40
0.21428571428571433
40
0.22857142857142862
40
0.24285714285714291
40
0.25714285714285717
40
0.27142857142857146
40
0.28571428571428575
40
0.30000000000000004
40
0.31428571428571433
40
0.32857142857142863
40
0.34285714285714292
40
0.35714285714285721
40
0.3714285714285715
40
0.38571428571428579
40
0.40000000000000008
40
0.41428571428571437
40
0.42857142857142866
40
0.44285714285714295
40
0.45714285714285724
40
0.47142857142857153
40
0.48571428571428582
40
0.50000000000000011
40
0.51428571428571435
40
0.52857142857142858
40
0.54285714285714282
40
0.55714285714285705
40
0.57142857142857129
40
0.58571428571428552
40
0.59999999999999976
40
0.61428571428571399
40
0.62857142857142823
40
0.64285714285714246
40
0.6571428571428567
40
0.67142857142857093
40
0.68571428571428517
40
0.6999999999999994
40
0.71428571428571364
40
0.72857142857142787
40
0.74285714285714211
40
0.75714285714285634
40
0.77142857142857058
40
0.78571428571428481
40
0.79999999999999905
40
0.81428571428571328
40
0.82857142857142752
40
0.84285714285714175
40
0.85714285714285599
40
0.87142857142857022
40
0.88571428571428445
40
0.89999999999999869
40
0.91428571428571292
40
0.92857142857142716
40
0.94285714285714139
40
0.95714285714285563
40
0.97142857142856986
40
0.9857142857142841
40
1
40
1
40
1
40
1
40
1
40
1
41
1
41
1
41
1
41
1
41
1
41
1
41
1
41
1
41
1
41
1
41
1
41
1
41
1
41
1
41
1
41
1
41
1
41
1
41
1
41
1
41
1
41
1
41
1
41
1
41
1
41
1
41
1
41
1
41
1
41
1
41
1
41
1
41
1
41
1
41
1
41
1
41
1
41
1
41
1
41
1
41
1
41
1
41
1
41
1
41
1
41
1
41
1
41
1
41
1
41
1
41
1
41
1
41
1
41
1
41
1
41
1
41
1
41
1
41
1
41
1
41
1
41
1
41
1
41
1
41
1
41
1
41
1
41
1
41
1
41
1
41
1
41
1
41
1
41
1
41
1
10
32.127840295297304
20
-18.265636490477785
30
2.2204460492503131e-15
10
32.125071509811789
20
-18.273228389781764
30
2.2204460492503131e-15
10
32.11977869211961
20
-18.288483819558831
30
2.2204460492503131e-15
10
32.112573714871814
20
-18.311581854862737
30
2.2204460492503131e-15
10
32.104362992775911
20
-18.342788774350929
30
2.2204460492503131e-15
10
32.096005645831582
20
-18.382362292625839
30
2.2204460492503131e-15
10
32.089021079796723
20
-18.422350632039922
30
2.2204460492503131e-15
10
32.08288452088054
20
-18.462604800671635
30
2.2204460492503131e-15
10
32.077211791067086
20
-18.503013200309354
30
2.2204460492503131e-15
10
32.071861128894248
20
-18.54352973425668
30
2.2204460492503131e-15
10
32.066849967300726
20
-18.584151592300799
30
2.2204460492503131e-15
10
32.062290991582174
20
-18.624902293566137
30
2.2204460492503131e-15
10
32.0583243602604
20
-18.665813650318594
30
2.2204460492503131e-15
10
32.055043494771269
20
-18.70690607016931
30
2.2204460492503131e-15
10
32.052449388619991
20
-18.748176352311184
30
2.2204460492503131e-15
10
32.050488852018937
20
-18.78960758597389
30
2.2204460492503131e-15
10
32.049078167025954
20
-18.831175201481159
30
2.2204460492503131e-15
10
32.048130599026081
20
-18.872854050178287
30
2.2204460492503131e-15
10
32.047586707851856
20
-18.914626191244356
30
2.2204460492503131e-15
10
32.04742812176044
20
-18.956484423223294
30
2.2204460492503131e-15
10
32.047660673825305
20
-18.998427917518956
30
2.2204460492503131e-15
10
32.048304169365366
20
-19.040459561762539
30
2.2204460492503131e-15
10
32.049380418507518
20
-19.082582856735971
30
2.2204460492503131e-15
10
32.050899797535457
20
-19.124798432201292
30
2.2204460492503131e-15
10
32.052856674939029
20
-19.167102855589537
30
2.2204460492503131e-15
10
32.05523647797876
20
-19.209490450914746
30
2.2204460492503131e-15
10
32.058019924250821
20
-19.251954384702163
30
2.2204460492503131e-15
10
32.061187988166026
20
-19.294487942462407
30
2.2204460492503131e-15
10
32.064727544888008
20
-19.337085979736838
30
2.2204460492503131e-15
10
32.068632766009799
20
-19.379745277839426
30
2.2204460492503131e-15
10
32.072902112952406
20
-19.422463764399808
30
2.2204460492503131e-15
10
32.077536468934589
20
-19.465240027728804
30
2.2204460492503131e-15
10
32.082536984753631
20
-19.50807275771885
30
2.2204460492503131e-15
10
32.08790260580799
20
-19.55096010441973
30
2.2204460492503131e-15
10
32.093629558971259
20
-19.593899543603342
30
2.2204460492503131e-15
10
32.099712598349235
20
-19.636888197233663
30
2.2204460492503131e-15
10
32.106145777650482
20
-19.679923031887643
30
2.2204460492503131e-15
10
32.112923338190924
20
-19.723001087118366
30
2.2204460492503131e-15
10
32.12004072970381
20
-19.766119738894453
30
2.2204460492503131e-15
10
32.127494792359116
20
-19.809276744564357
30
2.2204460492503131e-15
10
32.135283218896376
20
-19.852470100528723
30
2.2204460492503131e-15
10
32.143404208720348
20
-19.895697950098487
30
2.2204460492503131e-15
10
32.151856074266682
20
-19.938958479452868
30
2.2204460492503131e-15
10
32.16063678471285
20
-19.98224979692349
30
2.2204460492503131e-15
10
32.169743869403852
20
-20.025569908687906
30
2.2204460492503131e-15
10
32.179174645184368
20
-20.068916780944374
30
2.2204460492503131e-15
10
32.188926354818157
20
-20.112288379112663
30
2.2204460492503131e-15
10
32.198996326288665
20
-20.155682711990238
30
2.2204460492503131e-15
10
32.209382152939519
20
-20.199097884091394
30
2.2204460492503131e-15
10
32.220081735528552
20
-20.24253210314161
30
2.2204460492503131e-15
10
32.23109317974243
20
-20.285983641609285
30
2.2204460492503131e-15
10
32.242414728708994
20
-20.329450809300482
30
2.2204460492503131e-15
10
32.254044685599872
20
-20.372931924675889
30
2.2204460492503131e-15
10
32.265981322505681
20
-20.416425278561846
30
2.2204460492503131e-15
10
32.278222851299113
20
-20.45992913068568
30
2.2204460492503131e-15
10
32.290767476762746
20
-20.503441747604047
30
2.2204460492503131e-15
10
32.303613427982896
20
-20.546961431974328
30
2.2204460492503131e-15
10
32.316758993460219
20
-20.590486551046816
30
2.2204460492503131e-15
10
32.330202559470344
20
-20.634015575770398
30
0
10
32.343942620946592
20
-20.677547080453415
30
0
10
32.357977742524028
20
-20.721079673317995
30
0
10
32.372306527706542
20
-20.764611939713667
30
0
10
32.386927585639796
20
-20.808142386487681
30
0
10
32.401839489693764
20
-20.851669370885343
30
0
10
32.417040759711099
20
-20.895191083040604
30
0
10
32.432529917954326
20
-20.938705685090142
30
0
10
32.448305530098658
20
-20.982211423896977
30
0
10
32.464366249824636
20
-21.025706750499463
30
0
10
32.480710860467994
20
-21.069190445982699
30
0
10
32.497338314153204
20
-21.112661718574888
30
0
10
32.514247755489897
20
-21.156120101106811
30
0
10
32.528000387642081
20
-21.190876317189229
30
0
10
32.538441288734724
20
-21.216937549061868
30
0
10
32.545458060567924
20
-21.234309068903762
30
0
10
32.548980489260799
20
-21.242994170138342
30
0
0
ARC
5
104
100
AcDbEntity
8
0
100
AcDbCircle
10
35.999999573783505
20
-7.6749999455580831
30
0
40
13.9999999999994
210
8.9592021813920088e-33
220
-2.2787729120689356e-33
230
1
100
AcDbArc
50
255.7294230039532
51
260.45344632073324
0
SPLINE
5
105
100
AcDbEntity
8
0
100
AcDbSpline
70
4
71
5
72
81
73
75
74
0
42
0.000000001
43
0.0000000001
44
0.0000000001
40
-1
40
-1
40
-1
40
-1
40
-1
40
-1
40
-0.9857142857142841
40
-0.97142857142856986
40
-0.95714285714285563
40
-0.94285714285714139
40
-0.92857142857142716
40
-0.91428571428571292
40
-0.89999999999999869
40
-0.88571428571428445
40
-0.87142857142857022
40
-0.85714285714285599
40
-0.84285714285714175
40
-0.82857142857142752
40
-0.81428571428571328
40
-0.79999999999999905
40
-0.78571428571428481
40
-0.77142857142857058
40
-0.75714285714285634
40
-0.74285714285714211
40
-0.72857142857142787
40
-0.71428571428571364
40
-0.6999999999999994
40
-0.68571428571428517
40
-0.67142857142857093
40
-0.6571428571428567
40
-0.64285714285714246
40
-0.62857142857142823
40
-0.61428571428571399
40
-0.59999999999999976
40
-0.58571428571428552
40
-0.57142857142857129
40
-0.55714285714285705
40
-0.54285714285714282
40
-0.52857142857142858
40
-0.51428571428571435
40
-0.50000000000000011
40
-0.48571428571428582
40
-0.47142857142857153
40
-0.45714285714285724
40
-0.44285714285714295
40
-0.42857142857142866
40
-0.41428571428571437
40
-0.40000000000000008
40
-0.38571428571428579
40
-0.3714285714285715
40
-0.35714285714285721
40
-0.34285714285714292
40
-0.32857142857142863
40
-0.31428571428571433
40
-0.30000000000000004
40
-0.28571428571428575
40
-0.27142857142857146
40
-0.25714285714285717
40
-0.24285714285714291
40
-0.22857142857142862
40
-0.21428571428571433
40
-0.20000000000000004
40
-0.18571428571428575
40
-0.17142857142857146
40
-0.15714285714285717
40
-0.14285714285714288
40
-0.12857142857142859
40
-0.1142857142857143
40
-0.10000000000000001
40
-0.085714285714285715
40
-0.071428571428571425
40
-0.057142857142857141
40
-0.042857142857142858
40
-0.028571428571428571
40
-0.014285714285714285
40
0
40
0
40
0
40
0
40
0
40
0
41
1
41
1
41
1
41
1
41
1
41
1
41
1
41
1
41
1
41
1
41
1
41
1
41
1
41
1
41
1
41
1
41
1
41
1
41
1
41
1
41
1
41
1
41
1
41
1
41
1
41
1
41
1
41
1
41
1
41
1
41
1
41
1
41
1
41
1
41
1
41
1
41
1
41
1
41
1
41
1
41
1
41
1
41
1
41
1
41
1
41
1
41
1
41
1
41
1
41
1
41
1
41
1
41
1
41
1
41
1
41
1
41
1
41
1
41
1
41
1
41
1
41
1
41
1
41
1
41
1
41
1
41
1
41
1
41
1
41
1
41
1
41
1
41
1
41
1
41
1
10
33.678114650106536
20
-21.481116358263897
30
0
10
33.684844312649631
20
-21.47459331224173
30
0
10
33.698278475957736
20
-21.461534673538264
30
0
10
33.718354235582638
20
-21.441909075513511
30
0
10
33.744970894275859
20
-21.415666306462033
30
0
10
33.777989623792188
20
-21.382737235419299
30
0
10
33.810755585264417
20
-21.349682500121023
30
0
10
33.84326780749636
20
-21.316502182529071
30
0
10
33.875525012118267
20
-21.283196583835263
30
0
10
33.907525593857464
20
-21.249766327838483
30
0
10
33.939267695548551
20
-21.216212287920079
30
0
10
33.970749297065574
20
-21.182535488710698
30
0
10
34.001968304352857
20
-21.148737014821101
30
0
10
34.032922632446784
20
-21.114817924271865
30
0
10
34.06361031283528
20
-21.080779143818926
30
0
10
34.094029470147412
20
-21.046621477803427
30
0
10
34.124178255551591
20
-21.012345656471318
30
0
10
34.154054793893927
20
-20.97795237344782
30
0
10
34.183657132559595
20
-20.943442325236962
30
0
10
34.212983177791017
20
-20.908816259021989
30
0
10
34.242030704506796
20
-20.874074977370277
30
0
10
34.270797407187153
20
-20.839219317948697
30
0
10
34.29928094350015
20
-20.804250141636178
30
0
10
34.327478974842343
20
-20.769168318422466
30
0
10
34.355389230258361
20
-20.733974714163892
30
0
10
34.383009478386242
20
-20.698670181986873
30
0
10
34.410337429438691
20
-20.66325555868864
30
0
10
34.437370652814259
20
-20.62773165972299
30
0
10
34.464106504290172
20
-20.592099277018988
30
2.2204460492503131e-15
10
34.490542016730565
20
-20.556359172787641
30
2.2204460492503131e-15
10
34.516673941585431
20
-20.520512089648008
30
2.2204460492503131e-15
10
34.542498934825815
20
-20.484558775489432
30
2.2204460492503131e-15
10
34.568013720509171
20
-20.448500007404348
30
2.2204460492503131e-15
10
34.593215233240969
20
-20.412336611722193
30
2.2204460492503131e-15
10
34.618100851254276
20
-20.376069498930537
30
2.2204460492503131e-15
10
34.642668298244466
20
-20.33969964691304
30
2.2204460492503131e-15
10
34.666915177190816
20
-20.303228027126927
30
2.2204460492503131e-15
10
34.69083856823034
20
-20.266655540827735
30
2.2204460492503131e-15
10
34.714434675002479
20
-20.229982963681611
30
2.2204460492503131e-15
10
34.737698275112557
20
-20.193210858771288
30
2.2204460492503131e-15
10
34.760622904807718
20
-20.156339608963862
30
2.2204460492503131e-15
10
34.783201899235415
20
-20.119369588128446
30
2.2204460492503131e-15
10
34.80542929704206
20
-20.082301310813659
30
2.2204460492503131e-15
10
34.827300627093692
20
-20.045135562622217
30
2.2204460492503131e-15
10
34.848814177554949
20
-20.007873610092702
30
0
10
34.869970472173947
20
-19.970517116476202
30
0
10
34.890769748886946
20
-19.933067729901357
30
0
10
34.911209763279707
20
-19.895526724946169
30
0
10
34.931283883532338
20
-19.857894692569509
30
0
10
34.950978025103723
20
-19.820171039066466
30
0
10
34.970272071206082
20
-19.782354224222246
30
0
10
34.98914562205907
20
-19.744442712967963
30
0
10
35.007583053882634
20
-19.706435813170028
30
0
10
35.025577828615802
20
-19.668334390966422
30
0
10
35.043139693197041
20
-19.63014206036512
30
0
10
35.06029001406214
20
-19.591864426054499
30
0
10
35.077048075968563
20
-19.553506844077901
30
0
10
35.093418880636527
20
-19.515072427972328
30
0
10
35.109382712796048
20
-19.476560347054583
30
0
10
35.124877949423961
20
-19.437963011227424
30
0
10
35.139815086813698
20
-19.399268402388749
30
0
10
35.154107614830941
20
-19.360465190953743
30
0
10
35.167700044497408
20
-19.321547368515837
30
0
10
35.180591992164175
20
-19.282518264494271
30
0
10
35.192877164379453
20
-19.24339693454678
30
0
10
35.204696630013586
20
-19.204210874224309
30
0
10
35.216162975432155
20
-19.164984071760497
30
0
10
35.227291014149991
20
-19.125726137796619
30
0
10
35.237932442542387
20
-19.086421997437977
30
0
10
35.247690734127787
20
-19.047018606757405
30
0
10
35.256025639645955
20
-19.007440355828326
30
0
10
35.261116093080737
20
-18.975575405410865
30
0
10
35.263852120901277
20
-18.951534916983903
30
0
10
35.265170474945393
20
-18.935441315789017
30
0
10
35.265703234040622
20
-18.927377862691678
30
0
0
LINE
5
106
100
AcDbEntity
8
0
100
AcDbLine
10
35.265703234040622
20
-18.927377862691678
30
0
11
35.316828760739874
21
-18.153579178996221
31
0
0
ARC
5
107
100
AcDbEntity
8
0
100
AcDbCircle
10
36.314653203215073
20
-18.219506275087028
30
0
40
0.99999999999995781
210
2.0987266576034146e-34
220
1.2337700999371201e-32
230
1
100
AcDbArc
50
91.709229063836688
51
176.21991397578705
0
ARC
5
108
100
AcDbEntity
8
0
100
AcDbCircle
10
35.999999573783505
20
-7.6749999455580831
30
0
40
9.5491999999995887
210
1.9635735660268062e-33
220
-1.2327641884733055e-33
230
1
100
AcDbArc
50
271.70922906383691
51
274.47364026084961
0
ARC
5
109
100
AcDbEntity
8
0
100
AcDbCircle
10
36.82284183048624
20
-18.192059955873457
30
0
40
0.9999999999999567
210
-1.5175092586972982e-33
220
-2.6656628858114063e-34
230
1
100
AcDbArc
50
9.9629553488995803
51
94.473640260850644
0
LINE
5
110
100
AcDbEntity
8
0
100
AcDbLine
10
37.807761650077637
20
-18.019048543024571
30
1.5407439555097215e-33
11
37.941929543574673
21
-18.782839874949506
31
7.7037197775489434e-33
0
SPLINE
5
111
100
AcDbEntity
8
0
100
AcDbSpline
70
4
71
5
72
81
73
75
74
0
42
0.000000001
43
0.0000000001
44
0.0000000001
40
0
40
0
40
0
40
0
40
0
40
0
40
0.014285714285714285
40
0.028571428571428571
40
0.042857142857142858
40
0.057142857142857141
40
0.071428571428571425
40
0.085714285714285715
40
0.10000000000000001
40
0.1142857142857143
40
0.12857142857142859
40
0.14285714285714288
40
0.15714285714285717
40
0.17142857142857146
40
0.18571428571428575
40
0.20000000000000004
40
0.21428571428571433
40
0.22857142857142862
40
0.24285714285714291
40
0.25714285714285717
40
0.27142857142857146
40
0.28571428571428575
40
0.30000000000000004
40
0.31428571428571433
40
0.32857142857142863
40
0.34285714285714292
40
0.35714285714285721
40
0.3714285714285715
40
0.38571428571428579
40
0.40000000000000008
40
0.41428571428571437
40
0.42857142857142866
40
0.44285714285714295
40
0.45714285714285724
40
0.47142857142857153
40
0.48571428571428582
40
0.50000000000000011
40
0.51428571428571435
40
0.52857142857142858
40
0.54285714285714282
40
0.55714285714285705
40
0.57142857142857129
40
0.58571428571428552
40
0.59999999999999976
40
0.61428571428571399
40
0.62857142857142823
40
0.64285714285714246
40
0.6571428571428567
40
0.67142857142857093
40
0.68571428571428517
40
0.6999999999999994
40
0.71428571428571364
40
0.72857142857142787
40
0.74285714285714211
40
0.75714285714285634
40
0.77142857142857058
40
0.78571428571428481
40
0.79999999999999905
40
0.81428571428571328
40
0.82857142857142752
40
0.84285714285714175
40
0.85714285714285599
40
0.87142857142857022
40
0.88571428571428445
40
0.89999999999999869
40
0.91428571428571292
40
0.92857142857142716
40
0.94285714285714139
40
0.95714285714285563
40
0.97142857142856986
40
0.9857142857142841
40
1
40
1
40
1
40
1
40
1
40
1
41
1
41
1
41
1
41
1
41
1
41
1
41
1
41
1
41
1
41
1
41
1
41
1
41
1
41
1
41
1
41
1
41
1
41
1
41
1
41
1
41
1
41
1
41
1
41
1
41
1
41
1
41
1
41
1
41
1
41
1
41
1
41
1
41
1
41
1
41
1
41
1
41
1
41
1
41
1
41
1
41
1
41
1
41
1
41
1
41
1
41
1
41
1
41
1
41
1
41
1
41
1
41
1
41
1
41
1
41
1
41
1
41
1
41
1
41
1
41
1
41
1
41
1
41
1
41
1
41
1
41
1
41
1
41
1
41
1
41
1
41
1
41
1
41
1
41
1
41
1
10
37.941929543574673
20
-18.782839874949502
30
0
10
37.943327654658574
20
-18.790799045352482
30
0
10
37.94637165496809
20
-18.806657043931157
30
0
10
37.951680979289762
20
-18.83026301790575
30
0
10
37.960173745115384
20
-18.861394364004333
30
0
10
37.972722829490813
20
-18.899844709619693
30
0
10
37.986668187577251
20
-18.937967910424877
30
0
10
38.001480855979878
20
-18.975897322526251
30
0
10
38.016772327671482
20
-19.013728388045518
30
0
10
38.032396785276397
20
-19.051492066803618
30
0
10
38.048367921055998
20
-19.08917720861551
30
0
10
38.064795082901163
20
-19.126747838992603
30
0
10
38.081815557785291
20
-19.164161428904396
30
0
10
38.099520454850662
20
-19.201388941142664
30
0
10
38.117909034094474
20
-19.238427106974516
30
0
10
38.136926776424275
20
-19.275287876137078
30
0
10
38.156488895137244
20
-19.311991829637606
30
0
10
38.176507701526099
20
-19.348560555409748
30
0
10
38.196922748485363
20
-19.385008236330538
30
0
10
38.217714524890972
20
-19.421337821627514
30
0
10
38.238887668034693
20
-19.457545677178608
30
0
10
38.260460773641391
20
-19.49362440108635
30
0
10
38.282454480226015
20
-19.529566120053371
30
0
10
38.304878088794851
20
-19.565366191327747
30
0
10
38.327725006032558
20
-19.601024457972638
30
0
10
38.350979773583568
20
-19.636543290809737
30
0
10
38.37462227565895
20
-19.671926413078225
30
0
10
38.398632678370454
20
-19.70717752265433
30
0
10
38.42299704304704
20
-19.742298726724357
30
0
10
38.447708712797201
20
-19.777290152027916
30
0
10
38.472765318987264
20
-19.812150773129122
30
0
10
38.498166920662499
20
-19.846878925859919
30
0
10
38.523913859388841
20
-19.881472900235213
30
0
10
38.55000429687945
20
-19.915931621451907
30
0
10
38.576433703396923
20
-19.950254790027543
30
0
10
38.603196096845636
20
-19.984442536456896
30
0
10
38.630284810874606
20
-20.01849520686428
30
0
10
38.657693378093676
20
-20.052413116769493
30
0
10
38.685416545840553
20
-20.086196268828083
30
0
10
38.713450456296407
20
-20.119844300761841
30
0
10
38.741792109515366
20
-20.153356631033045
30
0
10
38.770439017791681
20
-20.186732551999448
30
0
10
38.79938881274137
20
-20.219971336628344
30
0
10
38.828638789786332
20
-20.253072362098116
30
0
10
38.85818581236537
20
-20.286035137035377
30
0
10
38.88802653989692
20
-20.318859241693822
30
0
10
38.918157567254255
20
-20.351544292693397
30
0
10
38.948575584801887
20
-20.384089901610398
30
0
10
38.979277560571411
20
-20.416495630234248
30
0
10
39.01026078042851
20
-20.448760976030755
30
0
10
39.041522740083927
20
-20.480885390070334
30
0
10
39.073061072944753
20
-20.512868287038192
30
0
10
39.104873468744877
20
-20.544709059092739
30
0
10
39.136957576484043
20
-20.576407090000856
30
0
10
39.169310977462224
20
-20.607961766705859
30
0
10
39.201931250253878
20
-20.639372485610497
30
-2.2204460492503131e-15
10
39.234816012531439
20
-20.670638662229766
30
-2.2204460492503131e-15
10
39.267962965718162
20
-20.701759738310621
30
-2.2204460492503131e-15
10
39.301369947762169
20
-20.732735196518139
30
-2.2204460492503131e-15
10
39.335034942391673
20
-20.763564554700462
30
-2.2204460492503131e-15
10
39.368956010655218
20
-20.794247325225079
30
-2.2204460492503131e-15
10
39.403131235826478
20
-20.824782981216789
30
-2.2204460492503131e-15
10
39.437558666813892
20
-20.855170924994543
30
-2.2204460492503131e-15
10
39.472236246742256
20
-20.885410447206063
30
-2.2204460492503131e-15
10
39.507161788824689
20
-20.915500720540049
30
-2.2204460492503131e-15
10
39.54233309437133
20
-20.945440892228898
30
-2.2204460492503131e-15
10
39.57774804465199
20
-20.975230161173872
30
-2.2204460492503131e-15
10
39.613404699238984
20
-21.004867859094531
30
-2.2204460492503131e-15
10
39.649301395012721
20
-21.034353538711763
30
-2.2204460492503131e-15
10
39.685436828600459
20
-21.063687038268828
30
-2.2204460492503131e-15
10
39.721810025627803
20
-21.09286838088051
30
-2.2204460492503131e-15
10
39.751098262481698
20
-21.116091830871216
30
-2.2204460492503131e-15
10
39.773170964002645
20
-21.133441069180513
30
-2.2204460492503131e-15
10
39.787933426583706
20
-21.144976860749338
30
-2.2204460492503131e-15
10
39.795326489932044
20
-21.150737164706491
30
-2.2204460492503131e-15
0
ARC
5
112
100
AcDbEntity
8
0
100
AcDbCircle
10
35.999999573783505
20
-7.6749999455580831
30
0
40
13.999999999999403
210
4.2996523758041463e-17
220
-1.5266401769895936e-16
230
1
100
AcDbArc
50
285.72942300395323
51
290.45344632073312
0
SPLINE
5
113
100
AcDbEntity
8
0
100
AcDbSpline
70
4
71
5
72
81
73
75
74
0
42
0.000000001
43
0.0000000001
44
0.0000000001
40
-1
40
-1
40
-1
40
-1
40
-1
40
-1
40
-0.9857142857142841
40
-0.97142857142856986
40
-0.95714285714285563
40
-0.94285714285714139
40
-0.92857142857142716
40
-0.91428571428571292
40
-0.89999999999999869
40
-0.88571428571428445
40
-0.87142857142857022
40
-0.85714285714285599
40
-0.84285714285714175
40
-0.82857142857142752
40
-0.81428571428571328
40
-0.79999999999999905
40
-0.78571428571428481
40
-0.77142857142857058
40
-0.75714285714285634
40
-0.74285714285714211
40
-0.72857142857142787
40
-0.71428571428571364
40
-0.6999999999999994
40
-0.68571428571428517
40
-0.67142857142857093
40
-0.6571428571428567
40
-0.64285714285714246
40
-0.62857142857142823
40
-0.61428571428571399
40
-0.59999999999999976
40
-0.58571428571428552
40
-0.57142857142857129
40
-0.55714285714285705
40
-0.54285714285714282
40
-0.52857142857142858
40
-0.51428571428571435
40
-0.50000000000000011
40
-0.48571428571428582
40
-0.47142857142857153
40
-0.45714285714285724
40
-0.44285714285714295
40
-0.42857142857142866
40
-0.41428571428571437
40
-0.40000000000000008
40
-0.38571428571428579
40
-0.3714285714285715
40
-0.35714285714285721
40
-0.34285714285714292
40
-0.32857142857142863
40
-0.31428571428571433
40
-0.30000000000000004
40
-0.28571428571428575
40
-0.27142857142857146
40
-0.25714285714285717
40
-0.24285714285714291
40
-0.22857142857142862
40
-0.21428571428571433
40
-0.20000000000000004
40
-0.18571428571428575
40
-0.17142857142857146
40
-0.15714285714285717
40
-0.14285714285714288
40
-0.12857142857142859
40
-0.1142857142857143
40
-0.10000000000000001
40
-0.085714285714285715
40
-0.071428571428571425
40
-0.057142857142857141
40
-0.042857142857142858
40
-0.028571428571428571
40
-0.014285714285714285
40
0
40
0
40
0
40
0
40
0
40
0
41
1
41
1
41
1
41
1
41
1
41
1
41
1
41
1
41
1
41
1
41
1
41
1
41
1
41
1
41
1
41
1
41
1
41
1
41
1
41
1
41
1
41
1
41
1
41
1
41
1
41
1
41
1
41
1
41
1
41
1
41
1
41
1
41
1
41
1
41
1
41
1
41
1
41
1
41
1
41
1
41
1
41
1
41
1
41
1
41
1
41
1
41
1
41
1
41
1
41
1
41
1
41
1
41
1
41
1
41
1
41
1
41
1
41
1
41
1
41
1
41
1
41
1
41
1
41
1
41
1
41
1
41
1
41
1
41
1
41
1
41
1
41
1
41
1
41
1
41
1
10
40.892246451568049
20
-20.792389948405088
30
-2.2204460492503131e-15
10
40.894812987278186
20
-20.783375993568288
30
-2.2204460492503131e-15
10
40.899917994629853
20
-20.765349799058189
30
-2.2204460492503131e-15
10
40.907491313452915
20
-20.738315652791847
30
-2.2204460492503131e-15
10
40.91742063151937
20
-20.702280418781001
30
-2.2204460492503131e-15
10
40.929551154559832
20
-20.657253641976808
30
-2.2204460492503131e-15
10
40.941399941925063
20
-20.612244420757015
30
-2.2204460492503131e-15
10
40.952966193515437
20
-20.567253311700778
30
0
10
40.964248952826168
20
-20.522281214832741
30
0
10
40.975247141549815
20
-20.477329473014908
30
0
10
40.985959588024599
20
-20.43239977120043
30
0
10
40.996385055085469
20
-20.387494006808453
30
0
10
41.00652227153239
20
-20.342614166167266
30
0
10
41.016369960744179
20
-20.297762208031411
30
0
10
41.025926881317368
20
-20.252939919251073
30
0
10
41.035191811303648
20
-20.2081489340916
30
0
10
41.044163514690851
20
-20.163390809380324
30
0
10
41.052840714360713
20
-20.118667083391266
30
0
10
41.061222067551185
20
-20.073979335621999
30
0
10
41.069306134606649
20
-20.029329260030998
30
0
10
41.077091389833754
20
-19.984718664202695
30
0
10
41.084576255427258
20
-19.940149426337776
30
0
10
41.091759133307676
20
-19.895623463145213
30
0
10
41.098638433179858
20
-19.851142697359975
30
0
10
41.105212621266965
20
-19.806709014313299
30
0
10
41.111480191716026
20
-19.762324268515336
30
0
10
41.117439579911725
20
-19.71799032954738
30
0
10
41.123089088618308
20
-19.673709118913877
30
0
10
41.128426823836264
20
-19.629482644556884
30
0
10
41.133450597056019
20
-19.585313050138442
30
0
10
41.138157966260316
20
-19.541202603060505
30
0
10
41.142546409379754
20
-19.497153623028748
30
0
10
41.146613477911103
20
-19.453168420996217
30
0
10
41.15035693030957
20
-19.409249245282464
30
0
10
41.15377495130214
20
-19.36539819527632
30
0
10
41.156866058493037
20
-19.321617256002195
30
0
10
41.15962866172999
20
-19.277908467277076
30
0
10
41.16206068296529
20
-19.23427406954265
30
0
10
41.164159222287324
20
-19.190716632725788
30
0
10
41.165920038510961
20
-19.147239255667788
30
0
10
41.16733772529561
20
-19.103845501817698
30
0
10
41.168406697644201
20
-19.060539027381935
30
0
10
41.169122050147386
20
-19.01732325864948
30
0
10
41.169480303490921
20
-18.97420111153923
30
0
10
41.169480608451217
20
-18.931174538823427
30
0
10
41.169124250232969
20
-18.888244719045723
30
0
10
41.16841225895935
20
-18.845412960559266
30
0
10
41.1673433281996
20
-18.802681489388096
30
0
10
41.16591201010867
20
-18.760054133227552
30
0
10
41.164105810263692
20
-18.717537420184662
30
0
10
41.161906536908013
20
-18.675140074788178
30
0
10
41.159295755779169
20
-18.632870967519615
30
0
10
41.156259590219967
20
-18.59073731086373
30
0
10
41.152792811172461
20
-18.548743123948508
30
0
10
41.148905666736994
20
-18.506886663127428
30
0
10
41.1446194631339
20
-18.465162098985111
30
0
10
41.139953579474764
20
-18.423564427612423
30
0
10
41.134913904144824
20
-18.382093844551395
30
0
10
41.129482947877847
20
-18.340759488044263
30
0
10
41.1236035485217
20
-18.299585596385587
30
0
10
41.117192184541686
20
-18.258606513446917
30
0
10
41.11016827117141
20
-18.217855682587164
30
0
10
41.102480749342774
20
-18.17735564486274
30
0
10
41.094130951515673
20
-18.137109475459731
30
0
10
41.085209557770234
20
-18.09708682378773
30
0
10
41.075852485107305
20
-18.057240967257172
30
0
10
41.066169230296445
20
-18.017536387104997
30
0
10
41.056177427538458
20
-17.977973999633264
30
0
10
41.0457411046795
20
-17.938614901412574
30
0
10
41.034490337749709
20
-17.899611418295262
30
0
10
41.021919452202049
20
-17.861168194794228
30
0
10
41.010395438984617
20
-17.831027111524993
30
0
10
41.000744664369179
20
-17.808839423917586
30
0
10
40.993839591865118
20
-17.794242779422387
30
0
10
40.990269248227023
20
-17.786993244650247
30
0
0
LINE
5
114
100
AcDbEntity
8
0
100
AcDbLine
10
40.990269248227015
20
-17.786993244650247
30
0
11
40.647645911282709
21
-17.091301163805397
31
7.7037197775489434e-33
0
ARC
5
115
100
AcDbEntity
8
0
100
AcDbCircle
10
41.544750775028675
20
-16.64948348258018
30
0
40
0.99999999999995881
210
3.2393136534048122e-33
220
-5.2430065838127808e-33
230
1
100
AcDbArc
50
121.70922906383647
51
206.21991397578685
0
ARC
5
116
100
AcDbEntity
8
0
100
AcDbCircle
10
35.999999573783505
20
-7.6749999455580831
30
0
40
9.5491999999995869
210
-3.3922356358696303e-34
220
5.4905191888460924e-34
230
1
100
AcDbArc
50
301.7092290638368
51
304.47364026084949
0
ARC
5
117
100
AcDbEntity
8
0
100
AcDbCircle
10
41.971131876553059
20
-16.371619959265264
30
0
40
0.99999999999995637
210
0
220
-0
230
1
100
AcDbArc
50
39.962955348899627
51
124.47364026085005
0
LINE
5
118
100
AcDbEntity
8
0
100
AcDbLine
10
42.737591754585551
20
-15.729327770797791
30
0
11
43.2356802246887
21
-16.323706520686613
31
-3.8518598887744717e-33
0
SPLINE
5
119
100
AcDbEntity
8
0
100
AcDbSpline
70
4
71
5
72
81
73
75
74
0
42
0.000000001
43
0.0000000001
44
0.0000000001
40
0
40
0
40
0
40
0
40
0
40
0
40
0.014285714285714285
40
0.028571428571428571
40
0.042857142857142858
40
0.057142857142857141
40
0.071428571428571425
40
0.085714285714285715
40
0.10000000000000001
40
0.1142857142857143
40
0.12857142857142859
40
0.14285714285714288
40
0.15714285714285717
40
0.17142857142857146
40
0.18571428571428575
40
0.20000000000000004
40
0.21428571428571433
40
0.22857142857142862
40
0.24285714285714291
40
0.25714285714285717
40
0.27142857142857146
40
0.28571428571428575
40
0.30000000000000004
40
0.31428571428571433
40
0.32857142857142863
40
0.34285714285714292
40
0.35714285714285721
40
0.3714285714285715
40
0.38571428571428579
40
0.40000000000000008
40
0.41428571428571437
40
0.42857142857142866
40
0.44285714285714295
40
0.45714285714285724
40
0.47142857142857153
40
0.48571428571428582
40
0.50000000000000011
40
0.51428571428571435
40
0.52857142857142858
40
0.54285714285714282
40
0.55714285714285705
40
0.57142857142857129
40
0.58571428571428552
40
0.59999999999999976
40
0.61428571428571399
40
0.62857142857142823
40
0.64285714285714246
40
0.6571428571428567
40
0.67142857142857093
40
0.68571428571428517
40
0.6999999999999994
40
0.71428571428571364
40
0.72857142857142787
40
0.74285714285714211
40
0.75714285714285634
40
0.77142857142857058
40
0.78571428571428481
40
0.79999999999999905
40
0.81428571428571328
40
0.82857142857142752
40
0.84285714285714175
40
0.85714285714285599
40
0.87142857142857022
40
0.88571428571428445
40
0.89999999999999869
40
0.91428571428571292
40
0.92857142857142716
40
0.94285714285714139
40
0.95714285714285563
40
0.97142857142856986
40
0.9857142857142841
40
1
40
1
40
1
40
1
40
1
40
1
41
1
41
1
41
1
41
1
41
1
41
1
41
1
41
1
41
1
41
1
41
1
41
1
41
1
41
1
41
1
41
1
41
1
41
1
41
1
41
1
41
1
41
1
41
1
41
1
41
1
41
1
41
1
41
1
41
1
41
1
41
1
41
1
41
1
41
1
41
1
41
1
41
1
41
1
41
1
41
1
41
1
41
1
41
1
41
1
41
1
41
1
41
1
41
1
41
1
41
1
41
1
41
1
41
1
41
1
41
1
41
1
41
1
41
1
41
1
41
1
41
1
41
1
41
1
41
1
41
1
41
1
41
1
41
1
41
1
41
1
41
1
41
1
41
1
41
1
41
1
10
43.2356802246887
20
-16.323706520686613
30
0
10
43.240870609606162
20
-16.329900308906691
30
0
10
43.251435790492671
20
-16.342111738374243
30
0
10
43.267836787219458
20
-16.359900449356477
30
0
10
43.290757411222131
20
-16.382614603019046
30
0
10
43.320850409893168
20
-16.40963903691852
30
0
10
43.35198904466349
20
-16.435682018246169
30
0
10
43.383781897848685
20
-16.461123518475254
30
0
10
43.415940233554494
20
-16.486240446421377
30
0
10
43.44835325013976
20
-16.511132522763784
30
0
10
43.481027230358137
20
-16.535783245028298
30
0
10
43.514038885016674
20
-16.560106784448475
30
0
10
43.547485843606701
20
-16.583997666316801
30
0
10
43.581432490355823
20
-16.60738518910215
30
0
10
43.615876550036397
20
-16.630266892000208
30
0
10
43.650776782597902
20
-16.652680383333124
30
0
10
43.68607005110546
20
-16.674685880127413
30
0
10
43.721691208877715
20
-16.696345922435686
30
0
10
43.757594998624292
20
-16.71770301654249
30
0
10
43.793765997829837
20
-16.738769472115816
30
0
10
43.830206405445807
20
-16.759539823267772
30
0
10
43.86692862489361
20
-16.779998361904646
30
0
10
43.903946593002786
20
-16.800127950293454
30
0
10
43.941266043305099
20
-16.819919917189942
30
0
10
43.978881187353558
20
-16.83937742334048
30
0
10
44.016779823230394
20
-16.858510251114676
30
0
10
44.05494639177094
20
-16.877331682826707
30
0
10
44.093365565262246
20
-16.895854837875454
30
0
10
44.132026326054252
20
-16.914088510473299
30
0
10
44.170922972479609
20
-16.932036138825726
30
0
10
44.210052940523425
20
-16.949698019196049
30
0
10
44.249415449236395
20
-16.9670726808498
30
0
10
44.289009939430734
20
-16.984158472113503
30
0
10
44.328834281701795
20
-17.000955381323784
30
0
10
44.368884403440688
20
-17.017465413989925
30
0
10
44.409155189248025
20
-17.033691674171529
30
0
10
44.449641038956656
20
-17.049637794796535
30
0
10
44.490336509402312
20
-17.065307282808185
30
0
10
44.531237052973779
20
-17.080702766837398
30
0
10
44.572339147562843
20
-17.095825862051456
30
0
10
44.613639904371318
20
-17.110677564796859
30
0
10
44.655136815161697
20
-17.125258506090304
30
0
10
44.696827465336916
20
-17.139569240495
30
0
10
44.738709201252853
20
-17.153610580920656
30
0
10
44.780779060881116
20
-17.167383670106034
30
0
10
44.823033941320077
20
-17.180889814830952
30
0
10
44.865470701953434
20
-17.194130385641905
30
0
10
44.908086282340953
20
-17.207106700971845
30
0
10
44.950877837615657
20
-17.219819897303484
30
0
10
44.993842766001187
20
-17.232270896496601
30
0
10
45.036978624254672
20
-17.244460475308866
30
0
10
45.080283070189076
20
-17.256389310139227
30
0
10
45.123753799134505
20
-17.268058029714513
30
0
10
45.167388466948431
20
-17.279467275861307
30
0
10
45.211184672446869
20
-17.290617727006957
30
0
10
45.255140016815133
20
-17.301510071133674
30
0
10
45.29925214465456
20
-17.31214499322639
30
0
10
45.343518786212726
20
-17.322523159112155
30
0
10
45.387937810430373
20
-17.332645201791728
30
0
10
45.432507230088952
20
-17.342511711845241
30
0
10
45.477225122190994
20
-17.352123236446275
30
0
10
45.52208956336522
20
-17.36148027767069
30
0
10
45.567098565076229
20
-17.370583293457283
30
0
10
45.61224999134172
20
-17.379432697926585
30
0
10
45.657541534693038
20
-17.388028867999413
30
0
10
45.702970864625129
20
-17.39637216450231
30
0
10
45.74853574571442
20
-17.404462953028492
30
0
10
45.794234163361054
20
-17.41230162504398
30
0
10
45.840064453621643
20
-17.419888624753479
30
0
10
45.886025406863936
20
-17.427224463757931
30
0
10
45.932116190812309
20
-17.434309649262513
30
0
10
45.969092272955187
20
-17.439777628491029
30
0
10
45.996882412357138
20
-17.44376615884272
30
0
10
46.015434975759163
20
-17.446375216103554
30
0
10
46.024717708409177
20
-17.447667253989799
30
0
0
ARC
5
120
100
AcDbEntity
8
0
100
AcDbCircle
10
35.999999573783505
20
-7.6749999455580831
30
0
40
13.999999999999389
210
4.3020508813356983e-33
220
4.4130068204612994e-33
230
1
100
AcDbArc
50
315.72942300395312
51
320.45344632073312
0
SPLINE
5
121
100
AcDbEntity
8
0
100
AcDbSpline
70
4
71
5
72
81
73
75
74
0
42
0.000000001
43
0.0000000001
44
0.0000000001
40
-1
40
-1
40
-1
40
-1
40
-1
40
-1
40
-0.9857142857142841
40
-0.97142857142856986
40
-0.95714285714285563
40
-0.94285714285714139
40
-0.92857142857142716
40
-0.91428571428571292
40
-0.89999999999999869
40
-0.88571428571428445
40
-0.87142857142857022
40
-0.85714285714285599
40
-0.84285714285714175
40
-0.82857142857142752
40
-0.81428571428571328
40
-0.79999999999999905
40
-0.78571428571428481
40
-0.77142857142857058
40
-0.75714285714285634
40
-0.74285714285714211
40
-0.72857142857142787
40
-0.71428571428571364
40
-0.6999999999999994
40
-0.68571428571428517
40
-0.67142857142857093
40
-0.6571428571428567
40
-0.64285714285714246
40
-0.62857142857142823
40
-0.61428571428571399
40
-0.59999999999999976
40
-0.58571428571428552
40
-0.57142857142857129
40
-0.55714285714285705
40
-0.54285714285714282
40
-0.52857142857142858
40
-0.51428571428571435
40
-0.50000000000000011
40
-0.48571428571428582
40
-0.47142857142857153
40
-0.45714285714285724
40
-0.44285714285714295
40
-0.42857142857142866
40
-0.41428571428571437
40
-0.40000000000000008
40
-0.38571428571428579
40
-0.3714285714285715
40
-0.35714285714285721
40
-0.34285714285714292
40
-0.32857142857142863
40
-0.31428571428571433
40
-0.30000000000000004
40
-0.28571428571428575
40
-0.27142857142857146
40
-0.25714285714285717
40
-0.24285714285714291
40
-0.22857142857142862
40
-0.21428571428571433
40
-0.20000000000000004
40
-0.18571428571428575
40
-0.17142857142857146
40
-0.15714285714285717
40
-0.14285714285714288
40
-0.12857142857142859
40
-0.1142857142857143
40
-0.10000000000000001
40
-0.085714285714285715
40
-0.071428571428571425
40
-0.057142857142857141
40
-0.042857142857142858
40
-0.028571428571428571
40
-0.014285714285714285
40
0
40
0
40
0
40
0
40
0
40
0
41
1
41
1
41
1
41
1
41
1
41
1
41
1
41
1
41
1
41
1
41
1
41
1
41
1
41
1
41
1
41
1
41
1
41
1
41
1
41
1
41
1
41
1
41
1
41
1
41
1
41
1
41
1
41
1
41
1
41
1
41
1
41
1
41
1
41
1
41
1
41
1
41
1
41
1
41
1
41
1
41
1
41
1
41
1
41
1
41
1
41
1
41
1
41
1
41
1
41
1
41
1
41
1
41
1
41
1
41
1
41
1
41
1
41
1
41
1
41
1
41
1
41
1
41
1
41
1
41
1
41
1
41
1
41
1
41
1
41
1
41
1
41
1
41
1
41
1
41
1
10
46.795504652953511
20
-16.588869480479339
30
0
10
46.793220360659816
20
-16.579779898747034
30
0
10
46.788628329457815
20
-16.561616252691898
30
0
10
46.781669942816379
20
-16.53441733584409
30
0
10
46.772251367498754
20
-16.49824524872616
30
0
10
46.76024332021089
20
-16.453185654642962
30
0
10
46.748000060463326
20
-16.408282131979451
30
0
10
46.735521173639036
20
-16.363535562797129
30
0
10
46.722806281392899
20
-16.318947204792583
30
0
10
46.70985512131427
20
-16.274518760072162
30
0
10
46.696667521190875
20
-16.230252273678971
30
0
10
46.68324335831592
20
-16.186150007408724
30
0
10
46.669582524962017
20
-16.142214317072206
30
0
10
46.655684894920086
20
-16.098447537311177
30
0
10
46.641550286528243
20
-16.054851836285046
30
0
10
46.627178458680902
20
-16.011429240283277
30
0
10
46.612569119373802
20
-15.968181715563954
30
0
10
46.597721931727094
20
-15.925111232870607
30
0
10
46.582636522623488
20
-15.882219831469273
30
0
10
46.567312492263909
20
-15.839509698198848
30
0
10
46.551749423151385
20
-15.79698316132002
30
0
10
46.53594688796683
20
-15.754642636304933
30
0
10
46.519904461087265
20
-15.712490582111993
30
0
10
46.503621726644198
20
-15.670529459026092
30
0
10
46.487098299013553
20
-15.628761666680418
30
0
10
46.470333801343472
20
-15.587189564054338
30
0
10
46.453327813427961
20
-15.545815552560413
30
0
10
46.43607982617003
20
-15.504642144888173
30
0
10
46.41858920328896
20
-15.463672026966218
30
0
10
46.400855121310897
20
-15.422908149515116
30
0
10
46.38287659908783
20
-15.382353697171187
30
0
10
46.364652612296453
20
-15.342011939893172
30
0
10
46.346182195947279
20
-15.301886103276729
30
0
10
46.32746453296533
20
-15.261979255196119
30
0
10
46.308499100972497
20
-15.222294121411888
30
0
10
46.289285608688559
20
-15.182833162203512
30
0
10
46.269823698909782
20
-15.143598939180428
30
0
10
46.250112692214884
20
-15.10459443164593
30
0
10
46.230151362170169
20
-15.065823315177786
30
0
10
46.209937585222242
20
-15.027290394043813
30
0
10
46.189468461067307
20
-14.989001457451742
30
0
10
46.168740981059244
20
-14.950962464267741
30
0
10
46.147752610133438
20
-14.913178834449772
30
0
10
46.126501793074802
20
-14.875654832914787
30
0
10
46.104988770820263
20
-14.838392575424981
30
0
10
46.083215245661563
20
-14.801392440026726
30
0
10
46.061182763888098
20
-14.764655044725508
30
0
10
46.038891307109687
20
-14.728182970530064
30
0
10
46.016338071201794
20
-14.691982256244334
30
0
10
45.993515499730286
20
-14.656064802586261
30
0
10
45.970412200436151
20
-14.620447261097727
30
0
10
45.947016644020586
20
-14.585146530972274
30
0
10
45.923320419188258
20
-14.550175796733559
30
0
10
45.899321007006208
20
-14.515541153577452
30
0
10
45.87502641076636
20
-14.481235967411628
30
0
10
45.850452167489152
20
-14.447244536704087
30
0
10
45.825612558022883
20
-14.413552838386639
30
0
10
45.800512779629813
20
-14.380158097611
30
0
10
45.775142255282198
20
-14.347076972960222
30
0
10
45.749463600251445
20
-14.314359036489218
30
0
10
45.72342165470252
20
-14.28207579163055
30
0
10
45.696963351860006
20
-14.250296493565816
30
0
10
45.670055743802038
20
-14.219066192956555
30
0
10
45.642701522065806
20
-14.188386886762087
30
0
10
45.614964042609081
20
-14.158186950560044
30
0
10
45.58693765171266
20
-14.128357962900498
30
0
10
45.558699416979053
20
-14.098814415247542
30
0
10
45.530265068225155
20
-14.069548284041655
30
0
10
45.501547398396866
20
-14.040680466541966
30
0
10
45.472302206864939
20
-14.012527842791192
30
0
10
45.442193888882088
20
-13.98552047740977
30
0
10
45.417143259047627
20
-13.965179540209743
30
0
10
45.397691599260767
20
-13.950789826398209
30
0
10
45.384413308809677
20
-13.941601297707386
30
0
10
45.377696533132763
20
-13.937108188248148
30
0
0
LINE
5
122
100
AcDbEntity
8
0
100
AcDbLine
10
45.377696533132756
20
-13.937108188248148
30
0
11
44.733129978987165
21
-13.50593284149701
31
0
0
ARC
5
123
100
AcDbEntity
8
0
100
AcDbCircle
10
45.289136740237154
20
-12.674755073841844
30
0
40
0.99999999999995426
210
2.7134156032903799e-33
220
-1.4604600335442702e-33
230
1
100
AcDbArc
50
151.70922906383694
51
236.21991397578654
0
ARC
5
124
100
AcDbEntity
8
0
100
AcDbCircle
10
35.999999573783505
20
-7.6749999455580831
30
0
40
9.5491999999995851
210
-3.205071158624e-33
220
-5.2738906426021753e-33
230
1
100
AcDbArc
50
331.7092290638368
51
334.47364026084966
0
ARC
5
125
100
AcDbEntity
8
0
100
AcDbCircle
10
45.519461844193401
20
-12.220927653103884
30
0
40
0.99999999999995814
210
3.6783330446226903e-33
220
-7.9015446577814923e-33
230
1
100
AcDbArc
50
69.962955348899186
51
154.47364026084963
0
LINE
5
126
100
AcDbEntity
8
0
100
AcDbLine
10
45.862089475317333
20
-11.281456362222507
30
6.1629758220388892e-33
11
46.590636118703188
21
-11.547159224044288
31
-1.9259299443872359e-33
0
SPLINE
5
127
100
AcDbEntity
8
0
100
AcDbSpline
70
4
71
5
72
81
73
75
74
0
42
0.000000001
43
0.0000000001
44
0.0000000001
40
0
40
0
40
0
40
0
40
0
40
0
40
0.014285714285714285
40
0.028571428571428571
40
0.042857142857142858
40
0.057142857142857141
40
0.071428571428571425
40
0.085714285714285715
40
0.10000000000000001
40
0.1142857142857143
40
0.12857142857142859
40
0.14285714285714288
40
0.15714285714285717
40
0.17142857142857146
40
0.18571428571428575
40
0.20000000000000004
40
0.21428571428571433
40
0.22857142857142862
40
0.24285714285714291
40
0.25714285714285717
40
0.27142857142857146
40
0.28571428571428575
40
0.30000000000000004
40
0.31428571428571433
40
0.32857142857142863
40
0.34285714285714292
40
0.35714285714285721
40
0.3714285714285715
40
0.38571428571428579
40
0.40000000000000008
40
0.41428571428571437
40
0.42857142857142866
40
0.44285714285714295
40
0.45714285714285724
40
0.47142857142857153
40
0.48571428571428582
40
0.50000000000000011
40
0.51428571428571435
40
0.52857142857142858
40
0.54285714285714282
40
0.55714285714285705
40
0.57142857142857129
40
0.58571428571428552
40
0.59999999999999976
40
0.61428571428571399
40
0.62857142857142823
40
0.64285714285714246
40
0.6571428571428567
40
0.67142857142857093
40
0.68571428571428517
40
0.6999999999999994
40
0.71428571428571364
40
0.72857142857142787
40
0.74285714285714211
40
0.75714285714285634
40
0.77142857142857058
40
0.78571428571428481
40
0.79999999999999905
40
0.81428571428571328
40
0.82857142857142752
40
0.84285714285714175
40
0.85714285714285599
40
0.87142857142857022
40
0.88571428571428445
40
0.89999999999999869
40
0.91428571428571292
40
0.92857142857142716
40
0.94285714285714139
40
0.95714285714285563
40
0.97142857142856986
40
0.9857142857142841
40
1
40
1
40
1
40
1
40
1
40
1
41
1
41
1
41
1
41
1
41
1
41
1
41
1
41
1
41
1
41
1
41
1
41
1
41
1
41
1
41
1
41
1
41
1
41
1
41
1
41
1
41
1
41
1
41
1
41
1
41
1
41
1
41
1
41
1
41
1
41
1
41
1
41
1
41
1
41
1
41
1
41
1
41
1
41
1
41
1
41
1
41
1
41
1
41
1
41
1
41
1
41
1
41
1
41
1
41
1
41
1
41
1
41
1
41
1
41
1
41
1
41
1
41
1
41
1
41
1
41
1
41
1
41
1
41
1
41
1
41
1
41
1
41
1
41
1
41
1
41
1
41
1
41
1
41
1
41
1
41
1
10
46.590636118703195
20
-11.54715922404429
30
0
10
46.598228018007163
20
-11.549928009529806
30
0
10
46.613483447784233
20
-11.55522082722198
30
0
10
46.636581483088136
20
-11.562425804469779
30
0
10
46.667788402576335
20
-11.570636526565686
30
0
10
46.707361920851234
20
-11.578993873510008
30
0
10
46.747350260265321
20
-11.585978439544872
30
0
10
46.787604428897033
20
-11.592114998461051
30
0
10
46.828012828534753
20
-11.597787728274511
30
0
10
46.868529362482079
20
-11.603138390447347
30
0
10
46.909151220526198
20
-11.608149552040867
30
0
10
46.949901921791543
20
-11.612708527759422
30
0
10
46.990813278543996
20
-11.61667515908119
30
0
10
47.031905698394716
20
-11.619956024570325
30
0
10
47.073175980536575
20
-11.622550130721605
30
0
10
47.114607214199296
20
-11.62451066732266
30
0
10
47.156174829706558
20
-11.625921352315638
30
0
10
47.197853678403689
20
-11.626868920315516
30
0
10
47.239625819469765
20
-11.627412811489737
30
0
10
47.281484051448686
20
-11.627571397581161
30
0
10
47.323427545744366
20
-11.627338845516288
30
0
10
47.365459189987931
20
-11.626695349976233
30
0
10
47.407582484961367
20
-11.625619100834072
30
0
10
47.449798060426687
20
-11.624099721806136
30
0
10
47.492102483814932
20
-11.622142844402566
30
0
10
47.534490079140141
20
-11.619763041362841
30
0
10
47.576954012927565
20
-11.616979595090772
30
0
10
47.619487570687802
20
-11.613811531175571
30
0
10
47.662085607962233
20
-11.610271974453589
30
0
10
47.704744906064832
20
-11.606366753331796
30
0
10
47.747463392625207
20
-11.602097406389188
30
0
10
47.790239655954203
20
-11.597463050407011
30
0
10
47.833072385944249
20
-11.592462534587966
30
0
10
47.875959732645128
20
-11.5870969135336
30
0
10
47.918899171828748
20
-11.581369960370342
30
0
10
47.961887825459058
20
-11.57528692099236
30
0
10
48.004922660113046
20
-11.568853741691107
30
0
10
48.048000715343768
20
-11.562076181150665
30
0
10
48.091119367119859
20
-11.554958789637791
30
0
10
48.134276372789763
20
-11.547504726982481
30
0
10
48.177469728754119
20
-11.539716300445217
30
0
10
48.220697578323879
20
-11.531595310621244
30
0
10
48.263958107678278
20
-11.523143445074915
30
0
10
48.307249425148896
20
-11.514362734628747
30
0
10
48.350569536913298
20
-11.505255649937741
30
0
10
48.393916409169776
20
-11.495824874157227
30
0
10
48.437288007338054
20
-11.48607316452344
30
0
10
48.480682340215637
20
-11.47600319305293
30
0
10
48.524097512316793
20
-11.465617366402077
30
0
10
48.567531731367012
20
-11.454917783813045
30
0
10
48.610983269834691
20
-11.443906339599161
30
0
10
48.654450437525881
20
-11.4325847906326
30
0
10
48.697931552901288
20
-11.420954833741725
30
0
10
48.741424906787245
20
-11.409018196835909
30
0
10
48.784928758911086
20
-11.396776668042481
30
0
10
48.828441375829456
20
-11.384232042578848
30
0
10
48.871961060199723
20
-11.371386091358699
30
0
10
48.915486179272214
20
-11.358240525881374
30
0
10
48.959015203995797
20
-11.344796959871248
30
0
10
49.002546708678807
20
-11.331056898395
30
0
10
49.046079301543401
20
-11.317021776817564
30
0
10
49.089611567939066
20
-11.302692991635057
30
0
10
49.133142014713073
20
-11.288071933701795
30
0
10
49.176668999110746
20
-11.273160029647828
30
0
10
49.220190711266
20
-11.25795875963049
30
0
10
49.263705313315533
20
-11.242469601387263
30
0
10
49.307211052122383
20
-11.226693989242936
30
0
10
49.350706378724851
20
-11.210633269516963
30
0
10
49.394190074208097
20
-11.194288658873599
30
0
10
49.437661346800283
20
-11.177661205188388
30
0
10
49.481119729332207
20
-11.160751763851692
30
0
10
49.515875945414621
20
-11.146999131699513
30
0
10
49.541937177287267
20
-11.136558230606868
30
0
10
49.559308697129161
20
-11.129541458773669
30
0
10
49.567993798363744
20
-11.126019030080796
30
0
0
ARC
5
128
100
AcDbEntity
8
0
100
AcDbCircle
10
35.999999573783505
20
-7.6749999455580831
30
0
40
13.99999999999938
210
-5.4815500022206178e-49
220
-2.155121051211551e-48
230
1
100
AcDbArc
50
345.72942300395317
51
350.45344632073324
0
SPLINE
5
129
100
AcDbEntity
8
0
100
AcDbSpline
70
4
71
5
72
81
73
75
74
0
42
0.000000001
43
0.0000000001
44
0.0000000001
40
-1
40
-1
40
-1
40
-1
40
-1
40
-1
40
-0.9857142857142841
40
-0.97142857142856986
40
-0.95714285714285563
40
-0.94285714285714139
40
-0.92857142857142716
40
-0.91428571428571292
40
-0.89999999999999869
40
-0.88571428571428445
40
-0.87142857142857022
40
-0.85714285714285599
40
-0.84285714285714175
40
-0.82857142857142752
40
-0.81428571428571328
40
-0.79999999999999905
40
-0.78571428571428481
40
-0.77142857142857058
40
-0.75714285714285634
40
-0.74285714285714211
40
-0.72857142857142787
40
-0.71428571428571364
40
-0.6999999999999994
40
-0.68571428571428517
40
-0.67142857142857093
40
-0.6571428571428567
40
-0.64285714285714246
40
-0.62857142857142823
40
-0.61428571428571399
40
-0.59999999999999976
40
-0.58571428571428552
40
-0.57142857142857129
40
-0.55714285714285705
40
-0.54285714285714282
40
-0.52857142857142858
40
-0.51428571428571435
40
-0.50000000000000011
40
-0.48571428571428582
40
-0.47142857142857153
40
-0.45714285714285724
40
-0.44285714285714295
40
-0.42857142857142866
40
-0.41428571428571437
40
-0.40000000000000008
40
-0.38571428571428579
40
-0.3714285714285715
40
-0.35714285714285721
40
-0.34285714285714292
40
-0.32857142857142863
40
-0.31428571428571433
40
-0.30000000000000004
40
-0.28571428571428575
40
-0.27142857142857146
40
-0.25714285714285717
40
-0.24285714285714291
40
-0.22857142857142862
40
-0.21428571428571433
40
-0.20000000000000004
40
-0.18571428571428575
40
-0.17142857142857146
40
-0.15714285714285717
40
-0.14285714285714288
40
-0.12857142857142859
40
-0.1142857142857143
40
-0.10000000000000001
40
-0.085714285714285715
40
-0.071428571428571425
40
-0.057142857142857141
40
-0.042857142857142858
40
-0.028571428571428571
40
-0.014285714285714285
40
0
40
0
40
0
40
0
40
0
40
0
41
1
41
1
41
1
41
1
41
1
41
1
41
1
41
1
41
1
41
1
41
1
41
1
41
1
41
1
41
1
41
1
41
1
41
1
41
1
41
1
41
1
41
1
41
1
41
1
41
1
41
1
41
1
41
1
41
1
41
1
41
1
41
1
41
1
41
1
41
1
41
1
41
1
41
1
41
1
41
1
41
1
41
1
41
1
41
1
41
1
41
1
41
1
41
1
41
1
41
1
41
1
41
1
41
1
41
1
41
1
41
1
41
1
41
1
41
1
41
1
41
1
41
1
41
1
41
1
41
1
41
1
41
1
41
1
41
1
41
1
41
1
41
1
41
1
41
1
41
1
10
49.806115986489289
20
-9.9968848692350516
30
0
10
49.799592940467136
20
-9.9901552066919539
30
0
10
49.786534301763659
20
-9.9767210433838542
30
0
10
49.766908703738906
20
-9.9566452837589541
30
0
10
49.740665934687428
20
-9.930028625065729
30
0
10
49.707736863644698
20
-9.8970098955493988
30
0
10
49.674682128346419
20
-9.864243934077173
30
0
10
49.641501810754463
20
-9.8317317118452294
30
0
10
49.608196212060662
20
-9.7994745072233229
30
0
10
49.574765956063878
20
-9.7674739254841221
30
0
10
49.541211916145471
20
-9.7357318237930386
30
0
10
49.507535116936097
20
-9.7042502222760181
30
0
10
49.473736643046493
20
-9.6730312149887325
30
0
10
49.439817552497267
20
-9.642076886894813
30
0
10
49.405778772044322
20
-9.6113892065063133
30
0
10
49.371621106028826
20
-9.5809700491941818
30
0
10
49.33734528469671
20
-9.5508212637899952
30
0
10
49.302952001673219
20
-9.5209447254476682
30
0
10
49.268441953462357
20
-9.4913423867819926
30
0
10
49.233815887247381
20
-9.4620163415505729
30
0
10
49.199074605595676
20
-9.4329688148347941
30
0
10
49.164218946174088
20
-9.4042021121544401
30
0
10
49.129249769861573
20
-9.3757185758414394
30
0
10
49.094167946647865
20
-9.3475205444992504
30
0
10
49.058974342389291
20
-9.3196102890832329
30
0
10
49.023669810212276
20
-9.2919900409553495
30
0
10
48.988255186914039
20
-9.2646620899028971
30
0
10
48.952731287948396
20
-9.237628866527329
30
0
10
48.917098905244387
20
-9.2108930150514112
30
0
10
48.881358801013036
20
-9.1844575026110284
30
0
10
48.8455117178734
20
-9.1583255777561554
30
0
10
48.809558403714831
20
-9.1325005845157765
30
0
10
48.773499635629747
20
-9.1069857988324205
30
0
10
48.737336239947588
20
-9.0817842861006266
30
0
10
48.701069127155947
20
-9.0568986680873138
30
0
10
48.664699275138439
20
-9.0323312210971256
30
0
10
48.628227655352319
20
-9.0080843421507772
30
0
10
48.591655169053134
20
-8.9841609511112495
30
0
10
48.554982591907006
20
-8.9605648443391104
30
0
10
48.518210486996686
20
-8.9373012442290314
30
0
10
48.48133923718926
20
-8.9143766145338752
30
0
10
48.444369216353842
20
-8.8917976201061748
30
0
10
48.407300939039061
20
-8.8695702222995259
30
0
10
48.37013519084762
20
-8.8476988922479016
30
0
10
48.332873238318108
20
-8.8261853417866405
30
0
10
48.295516744701601
20
-8.805029047167638
30
0
10
48.258067358126752
20
-8.7842297704546439
30
0
10
48.220526353171557
20
-8.7637897560618843
30
0
10
48.182894320794915
20
-8.7437156358092523
30
0
10
48.145170667291872
20
-8.7240214942378671
30
0
10
48.107353852447645
20
-8.704727448135511
30
0
10
48.069442341193358
20
-8.6858538972825201
30
0
10
48.031435441395431
20
-8.6674164654589543
30
0
10
47.993334019191821
20
-8.6494216907257879
30
0
10
47.955141688590516
20
-8.6318598261445505
30
0
10
47.916864054279891
20
-8.6147095052794498
30
0
10
47.8785064723033
20
-8.5979514433730326
30
0
10
47.840072056197727
20
-8.5815806387050646
30
0
10
47.801559975279986
20
-8.5656168065455383
30
0
10
47.76296263945283
20
-8.5501215699176232
30
0
10
47.724268030614141
20
-8.5351844325278883
30
0
10
47.685464819179145
20
-8.5208919045106466
30
0
10
47.646546996741243
20
-8.5072994748441815
30
0
10
47.60751789271967
20
-8.4944075271774118
30
0
10
47.568396562772179
20
-8.4821223549621312
30
0
10
47.529210502449708
20
-8.4703028893280035
30
0
10
47.489983699985892
20
-8.4588365439094364
30
0
10
47.450725766022011
20
-8.4477085051915957
30
0
10
47.41142162566338
20
-8.4370670767991971
30
0
10
47.372018234982811
20
-8.4273087852137998
30
0
10
47.332439984053721
20
-8.4189738796956313
30
0
10
47.300575033636264
20
-8.4138834262608526
30
0
10
47.276534545209302
20
-8.4111473984403098
30
0
10
47.26044094401442
20
-8.4098290443961989
30
0
10
47.252377490917077
20
-8.4092962853009681
30
0
0
LINE
5
130
100
AcDbEntity
8
0
100
AcDbLine
10
47.252377490917084
20
-8.4092962853009681
30
0
11
46.478578807221623
21
-8.358170758601716
31
2.8888949165808538e-33
0
ARC
5
131
100
AcDbEntity
8
0
100
AcDbCircle
10
46.544505903312434
20
-7.3603463161265132
30
0
40
0.99999999999995559
210
3.9369728852830027e-34
220
6.1774672788778505e-33
230
1
100
AcDbArc
50
181.7092290638368
51
266.21991397578688
0
ARC
5
132
100
AcDbEntity
8
0
100
AcDbCircle
10
35.999999573783505
20
-7.6749999455580831
30
0
40
9.5491999999995745
210
-6.0478564832264706e-35
220
-1.8047122674675761e-36
230
1
100
AcDbArc
50
1.7092290638369967
51
4.4736402608497343
0
ARC
5
133
100
AcDbEntity
8
0
100
AcDbCircle
10
46.51705958409886
20
-6.852157688855347
30
0
40
0.99999999999995703
210
3.0350185173945991e-33
220
5.3313257716228109e-34
230
1
100
AcDbArc
50
99.9629553488992
51
184.47364026084867
0
LINE
5
134
100
AcDbEntity
8
0
100
AcDbLine
10
46.34404817124998
20
-5.8672378692639517
30
-2.736911063134288e-48
11
47.107839503174901
21
-5.7330699757669095
31
-9.6296497219361793e-34
0
SPLINE
5
135
100
AcDbEntity
8
0
100
AcDbSpline
70
4
71
5
72
81
73
75
74
0
42
0.000000001
43
0.0000000001
44
0.0000000001
40
0
40
0
40
0
40
0
40
0
40
0
40
0.014285714285714285
40
0.028571428571428571
40
0.042857142857142858
40
0.057142857142857141
40
0.071428571428571425
40
0.085714285714285715
40
0.10000000000000001
40
0.1142857142857143
40
0.12857142857142859
40
0.14285714285714288
40
0.15714285714285717
40
0.17142857142857146
40
0.18571428571428575
40
0.20000000000000004
40
0.21428571428571433
40
0.22857142857142862
40
0.24285714285714291
40
0.25714285714285717
40
0.27142857142857146
40
0.28571428571428575
40
0.30000000000000004
40
0.31428571428571433
40
0.32857142857142863
40
0.34285714285714292
40
0.35714285714285721
40
0.3714285714285715
40
0.38571428571428579
40
0.40000000000000008
40
0.41428571428571437
40
0.42857142857142866
40
0.44285714285714295
40
0.45714285714285724
40
0.47142857142857153
40
0.48571428571428582
40
0.50000000000000011
40
0.51428571428571435
40
0.52857142857142858
40
0.54285714285714282
40
0.55714285714285705
40
0.57142857142857129
40
0.58571428571428552
40
0.59999999999999976
40
0.61428571428571399
40
0.62857142857142823
40
0.64285714285714246
40
0.6571428571428567
40
0.67142857142857093
40
0.68571428571428517
40
0.6999999999999994
40
0.71428571428571364
40
0.72857142857142787
40
0.74285714285714211
40
0.75714285714285634
40
0.77142857142857058
40
0.78571428571428481
40
0.79999999999999905
40
0.81428571428571328
40
0.82857142857142752
40
0.84285714285714175
40
0.85714285714285599
40
0.87142857142857022
40
0.88571428571428445
40
0.89999999999999869
40
0.91428571428571292
40
0.92857142857142716
40
0.94285714285714139
40
0.95714285714285563
40
0.97142857142856986
40
0.9857142857142841
40
1
40
1
40
1
40
1
40
1
40
1
41
1
41
1
41
1
41
1
41
1
41
1
41
1
41
1
41
1
41
1
41
1
41
1
41
1
41
1
41
1
41
1
41
1
41
1
41
1
41
1
41
1
41
1
41
1
41
1
41
1
41
1
41
1
41
1
41
1
41
1
41
1
41
1
41
1
41
1
41
1
41
1
41
1
41
1
41
1
41
1
41
1
41
1
41
1
41
1
41
1
41
1
41
1
41
1
41
1
41
1
41
1
41
1
41
1
41
1
41
1
41
1
41
1
41
1
41
1
41
1
41
1
41
1
41
1
41
1
41
1
41
1
41
1
41
1
41
1
41
1
41
1
41
1
41
1
41
1
41
1
10
47.107839503174908
20
-5.7330699757669095
30
0
10
47.115798673577885
20
-5.7316718646830065
30
0
10
47.131656672156559
20
-5.7286278643734967
30
0
10
47.155262646131142
20
-5.7233185400518236
30
0
10
47.186393992229732
20
-5.7148257742262007
30
0
10
47.224844337845084
20
-5.7022766898507706
30
0
10
47.262967538650273
20
-5.6883313317643305
30
0
10
47.30089695075165
20
-5.6735186633617065
30
0
10
47.338728016270927
20
-5.6582271916701092
30
0
10
47.376491695029017
20
-5.6426027340651874
30
0
10
47.414176836840916
20
-5.6266315982855861
30
0
10
47.451747467218006
20
-5.6102044364404193
30
0
10
47.489161057129792
20
-5.5931839615562922
30
0
10
47.526388569368066
20
-5.5754790644909216
30
0
10
47.563426735199918
20
-5.5570904852471106
30
0
10
47.600287504362484
20
-5.5380727429173167
30
0
10
47.636991457863004
20
-5.5185106242043389
30
0
10
47.673560183635146
20
-5.4984918178154842
30
0
10
47.710007864555941
20
-5.4780767708562186
30
0
10
47.746337449852909
20
-5.4572849944506086
30
0
10
47.782545305404014
20
-5.4361118513068956
30
0
10
47.818624029311749
20
-5.4145387457001952
30
0
10
47.854565748278773
20
-5.3925450391155678
30
0
10
47.890365819553146
20
-5.3701214305467362
30
0
10
47.926024086198034
20
-5.3472745133090314
30
0
10
47.961542919035132
20
-5.3240197457580205
30
0
10
47.996926041303631
20
-5.3003772436826324
30
0
10
48.03217715087974
20
-5.276366840971134
30
0
10
48.067298354949756
20
-5.2520024762945461
30
0
10
48.102289780253315
20
-5.2272908065443797
30
0
10
48.137150401354525
20
-5.2022342003543205
30
0
10
48.171878554085325
20
-5.1768325986790797
30
0
10
48.206472528460615
20
-5.1510856599527388
30
0
10
48.24093124967731
20
-5.1249952224621351
30
0
10
48.275254418252935
20
-5.0985658159446636
30
0
10
48.309442164682295
20
-5.071803422495953
30
0
10
48.343494835089672
20
-5.0447147084669783
30
0
10
48.377412744994892
20
-5.0173061412479054
30
0
10
48.411195897053489
20
-4.989582973501034
30
0
10
48.44484392898724
20
-4.9615490630451795
30
0
10
48.478356259258454
20
-4.9332074098262222
30
0
10
48.511732180224847
20
-4.9045605015499039
30
0
10
48.544970964853739
20
-4.8756107066002183
30
0
10
48.578071990323515
20
-4.8463607295552542
30
0
10
48.611034765260769
20
-4.8168137069762169
30
0
10
48.643858869919221
20
-4.7869729794446654
30
0
10
48.676543920918796
20
-4.7568419520873295
30
0
10
48.709089529835801
20
-4.726423934539695
30
0
10
48.741495258459643
20
-4.695721958770176
30
0
10
48.773760604256147
20
-4.664738738913079
30
0
10
48.80588501829574
20
-4.633476779257661
30
0
10
48.837867915263587
20
-4.601938446396832
30
0
10
48.869708687318138
20
-4.5701260505967127
30
0
10
48.901406718226255
20
-4.5380419428575474
30
0
10
48.932961394931269
20
-4.5056885418793602
30
0
10
48.964372113835907
20
-4.4730682690877108
30
0
10
48.995638290455155
20
-4.4401835068101478
30
0
10
49.02675936653602
20
-4.4070365536234242
30
0
10
49.057734824743534
20
-4.3736295715794133
30
0
10
49.088564182925865
20
-4.3399645769499156
30
0
10
49.119246953450485
20
-4.3060435086863649
30
0
10
49.149782609442184
20
-4.2718682835151069
30
0
10
49.180170553219938
20
-4.2374408525276932
30
0
10
49.210410075431462
20
-4.2027632725993271
30
0
10
49.240500348765444
20
-4.1678377305168954
30
0
10
49.270440520454301
20
-4.1326664249702558
30
0
10
49.300229789399268
20
-4.0972514746895969
30
0
10
49.32986748731993
20
-4.0615948201026022
30
0
10
49.359353166937161
20
-4.0256981243288656
30
0
10
49.38868666649423
20
-3.9895626907411241
30
0
10
49.417868009105916
20
-3.953189493713785
30
0
10
49.441091459096612
20
-3.9239012568598861
30
0
10
49.458440697405912
20
-3.9018285553389358
30
0
10
49.46997648897473
20
-3.8870660927578782
30
0
10
49.47573679293189
20
-3.8796730294095436
30
0
0
ARC
5
136
100
AcDbEntity
8
0
100
AcDbCircle
10
35.999999573783505
20
-7.6749999455580831
30
0
40
13.999999999999382
210
1.6707505729256352e-33
220
-5.9321887618405921e-33
230
1
100
AcDbArc
50
15.729423003953213
51
20.453446320733359
0
SPLINE
5
137
100
AcDbEntity
8
0
100
AcDbSpline
70
4
71
5
72
81
73
75
74
0
42
0.000000001
43
0.0000000001
44
0.0000000001
40
-1
40
-1
40
-1
40
-1
40
-1
40
-1
40
-0.9857142857142841
40
-0.97142857142856986
40
-0.95714285714285563
40
-0.94285714285714139
40
-0.92857142857142716
40
-0.91428571428571292
40
-0.89999999999999869
40
-0.88571428571428445
40
-0.87142857142857022
40
-0.85714285714285599
40
-0.84285714285714175
40
-0.82857142857142752
40
-0.81428571428571328
40
-0.79999999999999905
40
-0.78571428571428481
40
-0.77142857142857058
40
-0.75714285714285634
40
-0.74285714285714211
40
-0.72857142857142787
40
-0.71428571428571364
40
-0.6999999999999994
40
-0.68571428571428517
40
-0.67142857142857093
40
-0.6571428571428567
40
-0.64285714285714246
40
-0.62857142857142823
40
-0.61428571428571399
40
-0.59999999999999976
40
-0.58571428571428552
40
-0.57142857142857129
40
-0.55714285714285705
40
-0.54285714285714282
40
-0.52857142857142858
40
-0.51428571428571435
40
-0.50000000000000011
40
-0.48571428571428582
40
-0.47142857142857153
40
-0.45714285714285724
40
-0.44285714285714295
40
-0.42857142857142866
40
-0.41428571428571437
40
-0.40000000000000008
40
-0.38571428571428579
40
-0.3714285714285715
40
-0.35714285714285721
40
-0.34285714285714292
40
-0.32857142857142863
40
-0.31428571428571433
40
-0.30000000000000004
40
-0.28571428571428575
40
-0.27142857142857146
40
-0.25714285714285717
40
-0.24285714285714291
40
-0.22857142857142862
40
-0.21428571428571433
40
-0.20000000000000004
40
-0.18571428571428575
40
-0.17142857142857146
40
-0.15714285714285717
40
-0.14285714285714288
40
-0.12857142857142859
40
-0.1142857142857143
40
-0.10000000000000001
40
-0.085714285714285715
40
-0.071428571428571425
40
-0.057142857142857141
40
-0.042857142857142858
40
-0.028571428571428571
40
-0.014285714285714285
40
0
40
0
40
0
40
0
40
0
40
0
41
1
41
1
41
1
41
1
41
1
41
1
41
1
41
1
41
1
41
1
41
1
41
1
41
1
41
1
41
1
41
1
41
1
41
1
41
1
41
1
41
1
41
1
41
1
41
1
41
1
41
1
41
1
41
1
41
1
41
1
41
1
41
1
41
1
41
1
41
1
41
1
41
1
41
1
41
1
41
1
41
1
41
1
41
1
41
1
41
1
41
1
41
1
41
1
41
1
41
1
41
1
41
1
41
1
41
1
41
1
41
1
41
1
41
1
41
1
41
1
41
1
41
1
41
1
41
1
41
1
41
1
41
1
41
1
41
1
41
1
41
1
41
1
41
1
41
1
41
1
10
49.117389576630487
20
-2.7827530677735264
30
0
10
49.108375621793684
20
-2.7801865320633916
30
0
10
49.090349427283584
20
-2.7750815247117222
30
0
10
49.063315281017246
20
-2.7675082058886646
30
0
10
49.027280047006407
20
-2.7575788878222096
30
0
10
48.9822532702022
20
-2.7454483647817485
30
0
10
48.937244048982421
20
-2.7335995774165154
30
0
10
48.89225293992618
20
-2.7220333258261449
30
0
10
48.847280843058137
20
-2.7107505665154052
30
0
10
48.802329101240318
20
-2.6997523777917669
30
0
10
48.757399399425829
20
-2.6890399313169793
30
0
10
48.712493635033852
20
-2.6786144642561127
30
0
10
48.667613794392672
20
-2.6684772478091938
30
0
10
48.622761836256814
20
-2.658629558597394
30
0
10
48.577939547476475
20
-2.6490726380242071
30
0
10
48.533148562316995
20
-2.639807708037937
30
0
10
48.488390437605716
20
-2.6308360046507202
30
0
10
48.443666711616657
20
-2.6221588049808711
30
0
10
48.398978963847405
20
-2.6137774517903938
30
0
10
48.354328888256404
20
-2.6056933847349391
30
0
10
48.309718292428101
20
-2.5979081295078261
30
0
10
48.265149054563175
20
-2.5904232639143143
30
0
10
48.220623091370612
20
-2.5832403860339008
30
0
10
48.176142325585367
20
-2.5763610861617088
30
0
10
48.131708642538698
20
-2.5697868980746144
30
0
10
48.087323896740735
20
-2.5635193276255448
30
0
10
48.042989957772775
20
-2.5575599394298609
30
0
10
47.998708747139275
20
-2.5519104307232636
30
0
10
47.954482272782286
20
-2.5465726955053141
30
0
10
47.910312678363844
20
-2.5415489222855561
30
0
10
47.866202231285904
20
-2.5368415530812696
30
0
10
47.82215325125415
20
-2.5324531099618257
30
0
10
47.77816804922162
20
-2.5283860414304664
30
0
10
47.734248873507866
20
-2.5246425890320126
30
0
10
47.690397823501726
20
-2.5212245680394347
30
0
10
47.646616884227598
20
-2.5181334608485533
30
0
10
47.602908095502478
20
-2.5153708576115887
30
0
10
47.559273697768049
20
-2.512938836376283
30
0
10
47.515716260951201
20
-2.5108402970542616
30
0
10
47.472238883893183
20
-2.5090794808306143
30
0
10
47.428845130043094
20
-2.5076617940459691
30
0
10
47.385538655607334
20
-2.5065928216973821
30
0
10
47.342322886874875
20
-2.5058774691941945
30
0
10
47.299200739764629
20
-2.505519215850653
30
0
10
47.256174167048826
20
-2.5055189108903599
30
0
10
47.213244347271129
20
-2.505875269108607
30
0
10
47.170412588784671
20
-2.5065872603822354
30
0
10
47.127681117613491
20
-2.5076561911419812
30
0
10
47.085053761452961
20
-2.5090875092329079
30
0
10
47.042537048410068
20
-2.510893709077882
30
0
10
47.000139703013573
20
-2.5130929824335628
30
0
10
46.957870595745007
20
-2.5157037635623962
30
0
10
46.915736939089136
20
-2.5187399291216117
30
0
10
46.873742752173911
20
-2.5222067081691146
30
0
10
46.831886291352831
20
-2.52609385260459
30
0
10
46.790161727210517
20
-2.530380056207671
30
0
10
46.748564055837825
20
-2.5350459398668193
30
0
10
46.707093472776791
20
-2.5400856151967526
30
0
10
46.665759116269655
20
-2.5455165714637245
30
0
10
46.624585224610996
20
-2.5513959708198803
30
0
10
46.58360614167232
20
-2.5578073347998886
30
0
10
46.542855310812563
20
-2.5648312481701616
30
0
10
46.502355273088142
20
-2.5725187699987977
30
0
10
46.46210910368513
20
-2.5808685678259007
30
0
10
46.42208645201314
20
-2.5897899615713458
30
0
10
46.382240595482578
20
-2.5991470342342704
30
0
10
46.342536015330396
20
-2.6088302890451298
30
0
10
46.30297362785867
20
-2.6188220918031231
30
0
10
46.263614529637977
20
-2.6292584146620737
30
0
10
46.224611046520664
20
-2.6405091815918693
30
0
10
46.18616782301963
20
-2.6530800671395327
30
0
10
46.156026739750402
20
-2.6646040803569626
30
0
10
46.133839052142989
20
-2.6742548549723928
30
0
10
46.119242407647789
20
-2.6811599274764526
30
0
10
46.111992872875653
20
-2.6847302711145553
30
0
0
LINE
5
138
100
AcDbEntity
8
0
100
AcDbLine
10
46.111992872875646
20
-2.6847302711145553
30
0
11
45.416300792030803
21
-3.0273536080588714
31
0
0
ARC
5
139
100
AcDbEntity
8
0
100
AcDbCircle
10
44.974483110805579
20
-2.1302487443128997
30
0
40
0.99999999999995937
210
3.2393136534048095e-33
220
-5.2430065838127986e-33
230
1
100
AcDbArc
50
211.70922906383694
51
296.21991397578711
0
ARC
5
140
100
AcDbEntity
8
0
100
AcDbCircle
10
35.999999573783505
20
-7.6749999455580831
30
0
40
9.5491999999995762
210
-6.113813023387524e-48
220
9.8955412669374093e-48
230
1
100
AcDbArc
50
31.709229063836926
51
34.473640260849827
0
ARC
5
141
100
AcDbEntity
8
0
100
AcDbCircle
10
44.696619587490659
20
-1.7038676427885091
30
0
40
0.99999999999996025
210
1.5304849373354507e-33
220
1.7364209850174661e-32
230
1
100
AcDbArc
50
129.96295534889921
51
214.47364026084875
0
LINE
5
142
100
AcDbEntity
8
0
100
AcDbLine
10
44.054327399023194
20
-0.93740776475601351
30
-1.2325951644077843e-32
11
44.648706148912026
21
-0.43931929465286901
31
0
0
SPLINE
5
143
100
AcDbEntity
8
0
100
AcDbSpline
70
4
71
5
72
81
73
75
74
0
42
0.000000001
43
0.0000000001
44
0.0000000001
40
0
40
0
40
0
40
0
40
0
40
0
40
0.014285714285714285
40
0.028571428571428571
40
0.042857142857142858
40
0.057142857142857141
40
0.071428571428571425
40
0.085714285714285715
40
0.10000000000000001
40
0.1142857142857143
40
0.12857142857142859
40
0.14285714285714288
40
0.15714285714285717
40
0.17142857142857146
40
0.18571428571428575
40
0.20000000000000004
40
0.21428571428571433
40
0.22857142857142862
40
0.24285714285714291
40
0.25714285714285717
40
0.27142857142857146
40
0.28571428571428575
40
0.30000000000000004
40
0.31428571428571433
40
0.32857142857142863
40
0.34285714285714292
40
0.35714285714285721
40
0.3714285714285715
40
0.38571428571428579
40
0.40000000000000008
40
0.41428571428571437
40
0.42857142857142866
40
0.44285714285714295
40
0.45714285714285724
40
0.47142857142857153
40
0.48571428571428582
40
0.50000000000000011
40
0.51428571428571435
40
0.52857142857142858
40
0.54285714285714282
40
0.55714285714285705
40
0.57142857142857129
40
0.58571428571428552
40
0.59999999999999976
40
0.61428571428571399
40
0.62857142857142823
40
0.64285714285714246
40
0.6571428571428567
40
0.67142857142857093
40
0.68571428571428517
40
0.6999999999999994
40
0.71428571428571364
40
0.72857142857142787
40
0.74285714285714211
40
0.75714285714285634
40
0.77142857142857058
40
0.78571428571428481
40
0.79999999999999905
40
0.81428571428571328
40
0.82857142857142752
40
0.84285714285714175
40
0.85714285714285599
40
0.87142857142857022
40
0.88571428571428445
40
0.89999999999999869
40
0.91428571428571292
40
0.92857142857142716
40
0.94285714285714139
40
0.95714285714285563
40
0.97142857142856986
40
0.9857142857142841
40
1
40
1
40
1
40
1
40
1
40
1
41
1
41
1
41
1
41
1
41
1
41
1
41
1
41
1
41
1
41
1
41
1
41
1
41
1
41
1
41
1
41
1
41
1
41
1
41
1
41
1
41
1
41
1
41
1
41
1
41
1
41
1
41
1
41
1
41
1
41
1
41
1
41
1
41
1
41
1
41
1
41
1
41
1
41
1
41
1
41
1
41
1
41
1
41
1
41
1
41
1
41
1
41
1
41
1
41
1
41
1
41
1
41
1
41
1
41
1
41
1
41
1
41
1
41
1
41
1
41
1
41
1
41
1
41
1
41
1
41
1
41
1
41
1
41
1
41
1
41
1
41
1
41
1
41
1
41
1
41
1
10
44.648706148912012
20
-0.43931929465286956
30
0
10
44.6548999371321
20
-0.43412890973540896
30
0
10
44.667111366599642
20
-0.42356372884890858
30
0
10
44.684900077581887
20
-0.40716273212211251
30
0
10
44.707614231244449
20
-0.38424210811943921
30
0
10
44.734638665143933
20
-0.35414910944840333
30
0
10
44.760681646471568
20
-0.32301047467808253
30
0
10
44.78612314670066
20
-0.29121762149288705
30
0
10
44.811240074646783
20
-0.25905928578707893
30
0
10
44.836132150989187
20
-0.22664626920181427
30
0
10
44.860782873253697
20
-0.19397228898344412
30
0
10
44.885106412673885
20
-0.16096063432490526
30
0
10
44.908997294542203
20
-0.12751367573487804
30
0
10
44.932384817327559
20
-0.093567028985745024
30
0
10
44.955266520225614
20
-0.059122969305175528
30
0
10
44.977680011558533
20
-0.024222736743666918
30
0
10
44.999685508352812
20
0.01107053176388287
30
0
10
45.021345550661096
20
0.046691689536142444
30
0
10
45.0427026447679
20
0.082595479282715101
30
0
10
45.063769100341219
20
0.11876647848826546
30
0
10
45.084539451493185
20
0.15520688610423544
30
0
10
45.104997990130052
20
0.19192910555203166
30
0
10
45.125127578518864
20
0.22894707366121053
30
0
10
45.144919545415348
20
0.26626652396352701
30
0
10
45.164377051565893
20
0.30388166801198357
30
0
10
45.183509879340093
20
0.34178030388881242
30
0
10
45.202331311052113
20
0.37994687242936748
30
0
10
45.22085446610086
20
0.41836604592067206
30
0
10
45.239088138698705
20
0.45702680671267659
30
0
10
45.257035767051129
20
0.49592345313803365
30
0
10
45.274697647421448
20
0.53505342118185384
30
0
10
45.292072309075202
20
0.57441592989482126
30
0
10
45.309158100338919
20
0.61401042008916196
30
0
10
45.32595500954919
20
0.65383476236021987
30
0
10
45.342465042215338
20
0.69388488409911309
30
0
10
45.358691302396934
20
0.73415566990645131
30
0
10
45.374637423021944
20
0.77464151961508532
30
0
10
45.390306911033591
20
0.81533699006074212
30
0
10
45.405702395062804
20
0.85623753363220678
30
0
10
45.420825490276862
20
0.89733962822127289
30
0
10
45.435677193022258
20
0.93864038502974556
30
0
10
45.45025813431571
20
0.98013729582011733
30
0
10
45.464568868720406
20
1.0218279459953452
30
0
10
45.478610209146069
20
1.063709681911279
30
0
10
45.492383298331447
20
1.1057795415395477
30
0
10
45.505889443056368
20
1.1480344219785059
30
0
10
45.519130013867304
20
1.190471182611869
30
0
10
45.532106329197248
20
1.2330867629993838
30
0
10
45.544819525528894
20
1.2758783182740852
30
0
10
45.557270524722007
20
1.3188432466596225
30
0
10
45.569460103534276
20
1.3619791049130914
30
0
10
45.58138893836464
20
1.4052835508475052
30
0
10
45.593057657939923
20
1.448754279792928
30
0
10
45.604466904086713
20
1.4923889476068599
30
0
10
45.615617355232359
20
1.5361851531052972
30
0
10
45.626509699359083
20
1.5801404974735607
30
0
10
45.637144621451789
20
1.6242526253129796
30
0
10
45.647522787337564
20
1.6685192668711566
30
0
10
45.657644830017141
20
1.7129382910888045
30
0
10
45.667511340070639
20
1.7575077107473809
30
0
10
45.677122864671688
20
1.8022256028494266
30
0
10
45.6864799058961
20
1.8470900440236446
30
0
10
45.6955829216827
20
1.8920990457346578
30
0
10
45.704432326151988
20
1.9372504720001491
30
0
10
45.713028496224823
20
1.982542015351469
30
0
10
45.721371792727723
20
2.0279713452835515
30
0
10
45.729462581253905
20
2.0735362263728505
30
0
10
45.737301253269386
20
2.119234644019484
30
0
10
45.744888252978875
20
2.165064934280073
30
0
10
45.752224091983329
20
2.2110258875223581
30
0
10
45.759309277487922
20
2.257116671470734
30
0
10
45.764777256716435
20
2.2940927536136164
30
0
10
45.768765787068126
20
2.3218828930155615
30
0
10
45.771374844328967
20
2.340435456417584
30
0
10
45.772666882215212
20
2.3497181890676075
30
0
0
ARC
5
144
100
AcDbEntity
8
0
100
AcDbCircle
10
35.999999573783505
20
-7.6749999455580831
30
0
40
13.999999999999396
210
0
220
-0
230
1
100
AcDbArc
50
45.729423003953208
51
50.453446320733406
0
SPLINE
5
145
100
AcDbEntity
8
0
100
AcDbSpline
70
4
71
5
72
81
73
75
74
0
42
0.000000001
43
0.0000000001
44
0.0000000001
40
-1
40
-1
40
-1
40
-1
40
-1
40
-1
40
-0.9857142857142841
40
-0.97142857142856986
40
-0.95714285714285563
40
-0.94285714285714139
40
-0.92857142857142716
40
-0.91428571428571292
40
-0.89999999999999869
40
-0.88571428571428445
40
-0.87142857142857022
40
-0.85714285714285599
40
-0.84285714285714175
40
-0.82857142857142752
40
-0.81428571428571328
40
-0.79999999999999905
40
-0.78571428571428481
40
-0.77142857142857058
40
-0.75714285714285634
40
-0.74285714285714211
40
-0.72857142857142787
40
-0.71428571428571364
40
-0.6999999999999994
40
-0.68571428571428517
40
-0.67142857142857093
40
-0.6571428571428567
40
-0.64285714285714246
40
-0.62857142857142823
40
-0.61428571428571399
40
-0.59999999999999976
40
-0.58571428571428552
40
-0.57142857142857129
40
-0.55714285714285705
40
-0.54285714285714282
40
-0.52857142857142858
40
-0.51428571428571435
40
-0.50000000000000011
40
-0.48571428571428582
40
-0.47142857142857153
40
-0.45714285714285724
40
-0.44285714285714295
40
-0.42857142857142866
40
-0.41428571428571437
40
-0.40000000000000008
40
-0.38571428571428579
40
-0.3714285714285715
40
-0.35714285714285721
40
-0.34285714285714292
40
-0.32857142857142863
40
-0.31428571428571433
40
-0.30000000000000004
40
-0.28571428571428575
40
-0.27142857142857146
40
-0.25714285714285717
40
-0.24285714285714291
40
-0.22857142857142862
40
-0.21428571428571433
40
-0.20000000000000004
40
-0.18571428571428575
40
-0.17142857142857146
40
-0.15714285714285717
40
-0.14285714285714288
40
-0.12857142857142859
40
-0.1142857142857143
40
-0.10000000000000001
40
-0.085714285714285715
40
-0.071428571428571425
40
-0.057142857142857141
40
-0.042857142857142858
40
-0.028571428571428571
40
-0.014285714285714285
40
0
40
0
40
0
40
0
40
0
40
0
41
1
41
1
41
1
41
1
41
1
41
1
41
1
41
1
41
1
41
1
41
1
41
1
41
1
41
1
41
1
41
1
41
1
41
1
41
1
41
1
41
1
41
1
41
1
41
1
41
1
41
1
41
1
41
1
41
1
41
1
41
1
41
1
41
1
41
1
41
1
41
1
41
1
41
1
41
1
41
1
41
1
41
1
41
1
41
1
41
1
41
1
41
1
41
1
41
1
41
1
41
1
41
1
41
1
41
1
41
1
41
1
41
1
41
1
41
1
41
1
41
1
41
1
41
1
41
1
41
1
41
1
41
1
41
1
41
1
41
1
41
1
41
1
41
1
41
1
41
1
10
44.913869108704745
20
3.1205051336119469
30
0
10
44.904779526972447
20
3.1182208413182426
30
0
10
44.886615880917297
20
3.1136288101162468
30
0
10
44.859416964069503
20
3.1066704234748026
30
0
10
44.823244876951563
20
3.0972518481571876
30
0
10
44.778185282868364
20
3.0852438008693217
30
0
10
44.733281760204868
20
3.0730005411217571
30
0
10
44.688535191022538
20
3.0605216542974647
30
0
10
44.643946833017992
20
3.0478067620513265
30
0
10
44.599518388297568
20
3.0348556019726987
30
0
10
44.55525190190437
20
3.0216680018493096
30
0
10
44.511149635634133
20
3.0082438389743449
30
0
10
44.467213945297615
20
2.9945830056204481
30
0
10
44.423447165536587
20
2.9806853755785108
30
0
10
44.379851464510452
20
2.9665507671866749
30
0
10
44.336428868508683
20
2.952178939339329
30
0
10
44.293181343789357
20
2.937569600032242
30
0
10
44.250110861096019
20
2.9227224123855127
30
0
10
44.207219459694684
20
2.9076370032819221
30
0
10
44.164509326424259
20
2.8923129729223414
30
0
10
44.12198278954542
20
2.8767499038098165
30
0
10
44.079642264530328
20
2.860947368625248
30
0
10
44.037490210337403
20
2.8449049417456869
30
0
10
43.995529087251498
20
2.8286222073026335
30
0
10
43.953761294905824
20
2.8120987796719792
30
0
10
43.912189192279747
20
2.7953342820019023
30
0
10
43.870815180785819
20
2.7783282940863985
30
0
10
43.829641773113586
20
2.7610803068284611
30
0
10
43.788671655191621
20
2.7435896839473846
30
0
10
43.747907777740522
20
2.7258556019693261
30
0
10
43.707353325396596
20
2.7078770797462597
30
0
10
43.667011568118582
20
2.6896530929548828
30
0
10
43.626885731502142
20
2.6711826766057105
30
0
10
43.58697888342153
20
2.6524650136237526
30
0
10
43.547293749637305
20
2.6334995816309208
30
0
10
43.507832790428928
20
2.614286089346983
30
0
10
43.468598567405834
20
2.5948241795682132
30
0
10
43.429594059871341
20
2.575113172873313
30
0
10
43.390822943403194
20
2.555151842828598
30
0
10
43.35229002226923
20
2.5349380658806711
30
0
10
43.314001085677162
20
2.5144689417257355
30
0
10
43.275962092493145
20
2.4937414617176739
30
0
10
43.238178462675172
20
2.4727530907918691
30
0
10
43.200654461140189
20
2.4515022737332397
30
0
10
43.163392203650389
20
2.4299892514787031
30
0
10
43.126392068252137
20
2.4082157263200008
30
0
10
43.089654672950921
20
2.3861832445465367
30
0
10
43.053182598755477
20
2.3638917877681216
30
0
10
43.016981884469743
20
2.3413385518602143
30
0
10
42.981064430811671
20
2.3185159803887094
30
0
10
42.945446889323129
20
2.2954126810945836
30
0
10
42.91014615919768
20
2.2720171246790102
30
0
10
42.875175424958968
20
2.2483208998466915
30
0
10
42.840540781802865
20
2.224321487664636
30
0
10
42.806235595637041
20
2.2000268914247938
30
0
10
42.772244164929496
20
2.1754526481475756
30
0
10
42.738552466612049
20
2.1506130386813034
30
0
10
42.705157725836415
20
2.1255132602882427
30
0
10
42.672076601185637
20
2.1001427359406377
30
0
10
42.639358664714628
20
2.0744640809098756
30
0
10
42.60707541985596
20
2.0484221353609442
30
0
10
42.575296121791226
20
2.0219638325184297
30
0
10
42.544065821181967
20
1.9950562244604717
30
0
10
42.513386514987495
20
1.9677020027242309
30
0
10
42.48318657878545
20
1.9399645232675125
30
0
10
42.453357591125908
20
1.9119381323710871
30
0
10
42.423814043472952
20
1.8836998976374733
30
0
10
42.394547912267065
20
1.8552655488835801
30
0
10
42.365680094767377
20
1.8265478790552896
30
0
10
42.3375274710166
20
1.7973026875233704
30
0
10
42.310520105635177
20
1.7671943695405148
30
0
10
42.290179168435159
20
1.7421437397060546
30
0
10
42.27578945462362
20
1.7226920799191894
30
0
10
42.266600925932792
20
1.7094137894681003
30
0
10
42.262107816473566
20
1.7026970137911954
30
0
0
LINE
5
146
100
AcDbEntity
8
0
100
AcDbLine
10
42.262107816473566
20
1.7026970137911956
30
0
11
41.830932469722427
21
1.058130459645596
31
7.7037197775489434e-33
0
ARC
5
147
100
AcDbEntity
8
0
100
AcDbCircle
10
40.999754702067257
20
1.614137220895576
30
0
40
0.99999999999995526
210
-2.7134156032903786e-33
220
1.4604600335442625e-33
230
1
100
AcDbArc
50
241.70922906383706
51
326.21991397578711
0
ARC
5
148
100
AcDbEntity
8
0
100
AcDbCircle
10
35.999999573783505
20
-7.6749999455580831
30
0
40
9.5491999999995905
210
-2.7134156032903745e-33
220
1.4604600335442673e-33
230
1
100
AcDbArc
50
61.709229063836922
51
64.473640260849749
0
ARC
5
149
100
AcDbEntity
8
0
100
AcDbCircle
10
40.545927281329298
20
1.8444623248518324
30
0
40
0.9999999999999547
210
0
220
0
230
1
100
AcDbArc
50
159.96295534889964
51
244.47364026084915
0
LINE
5
150
100
AcDbEntity
8
0
100
AcDbLine
10
39.60645599044792
20
2.1870899559757566
30
0
11
39.872158852269706
21
2.9156365993616213
31
0
0
SPLINE
5
151
100
AcDbEntity
8
0
100
AcDbSpline
70
4
71
5
72
81
73
75
74
0
42
0.000000001
43
0.0000000001
44
0.0000000001
40
0
40
0
40
0
40
0
40
0
40
0
40
0.014285714285714285
40
0.028571428571428571
40
0.042857142857142858
40
0.057142857142857141
40
0.071428571428571425
40
0.085714285714285715
40
0.10000000000000001
40
0.1142857142857143
40
0.12857142857142859
40
0.14285714285714288
40
0.15714285714285717
40
0.17142857142857146
40
0.18571428571428575
40
0.20000000000000004
40
0.21428571428571433
40
0.22857142857142862
40
0.24285714285714291
40
0.25714285714285717
40
0.27142857142857146
40
0.28571428571428575
40
0.30000000000000004
40
0.31428571428571433
40
0.32857142857142863
40
0.34285714285714292
40
0.35714285714285721
40
0.3714285714285715
40
0.38571428571428579
40
0.40000000000000008
40
0.41428571428571437
40
0.42857142857142866
40
0.44285714285714295
40
0.45714285714285724
40
0.47142857142857153
40
0.48571428571428582
40
0.50000000000000011
40
0.51428571428571435
40
0.52857142857142858
40
0.54285714285714282
40
0.55714285714285705
40
0.57142857142857129
40
0.58571428571428552
40
0.59999999999999976
40
0.61428571428571399
40
0.62857142857142823
40
0.64285714285714246
40
0.6571428571428567
40
0.67142857142857093
40
0.68571428571428517
40
0.6999999999999994
40
0.71428571428571364
40
0.72857142857142787
40
0.74285714285714211
40
0.75714285714285634
40
0.77142857142857058
40
0.78571428571428481
40
0.79999999999999905
40
0.81428571428571328
40
0.82857142857142752
40
0.84285714285714175
40
0.85714285714285599
40
0.87142857142857022
40
0.88571428571428445
40
0.89999999999999869
40
0.91428571428571292
40
0.92857142857142716
40
0.94285714285714139
40
0.95714285714285563
40
0.97142857142856986
40
0.9857142857142841
40
1
40
1
40
1
40
1
40
1
40
1
41
1
41
1
41
1
41
1
41
1
41
1
41
1
41
1
41
1
41
1
41
1
41
1
41
1
41
1
41
1
41
1
41
1
41
1
41
1
41
1
41
1
41
1
41
1
41
1
41
1
41
1
41
1
41
1
41
1
41
1
41
1
41
1
41
1
41
1
41
1
41
1
41
1
41
1
41
1
41
1
41
1
41
1
41
1
41
1
41
1
41
1
41
1
41
1
41
1
41
1
41
1
41
1
41
1
41
1
41
1
41
1
41
1
41
1
41
1
41
1
41
1
41
1
41
1
41
1
41
1
41
1
41
1
41
1
41
1
41
1
41
1
41
1
41
1
41
1
41
1
10
39.872158852269706
20
2.91563659936162
30
0
10
39.874927637755221
20
2.9232284986655994
30
0
10
39.880220455447393
20
2.9384839284426647
30
0
10
39.887425432695196
20
2.9615819637465708
30
0
10
39.895636154791106
20
2.9927888832347622
30
0
10
39.903993501735428
20
3.0323624015096691
30
-2.2204460492503131e-15
10
39.910978067770287
20
3.0723507409237549
30
-2.2204460492503131e-15
10
39.917114626686462
20
3.1126049095554658
30
-2.2204460492503131e-15
10
39.922787356499924
20
3.1530133091931845
30
-2.2204460492503131e-15
10
39.928138018672769
20
3.1935298431405146
30
-2.2204460492503131e-15
10
39.933149180266277
20
3.2341517011846332
30
-2.2204460492503131e-15
10
39.937708155984836
20
3.2749024024499724
30
-2.2204460492503131e-15
10
39.941674787306603
20
3.315813759202423
30
-2.2204460492503131e-15
10
39.944955652795741
20
3.3569061790531443
30
-2.2204460492503131e-15
10
39.947549758947019
20
3.3981764611950132
30
-2.2204460492503131e-15
10
39.949510295548073
20
3.4396076948577239
30
-2.2204460492503131e-15
10
39.950920980541056
20
3.4811753103649927
30
-2.2204460492503131e-15
10
39.951868548540936
20
3.522854159062121
30
-2.2204460492503131e-15
10
39.952412439715147
20
3.564626300128189
30
-2.2204460492503131e-15
10
39.952571025806577
20
3.6064845321071237
30
-2.2204460492503131e-15
10
39.952338473741705
20
3.648428026402792
30
-2.2204460492503131e-15
10
39.951694978201651
20
3.690459670646371
30
-2.2204460492503131e-15
10
39.950618729059492
20
3.7325829656198053
30
-2.2204460492503131e-15
10
39.94909935003156
20
3.7747985410851248
30
-2.2204460492503131e-15
10
39.947142472627981
20
3.8171029644733694
30
-2.2204460492503131e-15
10
39.944762669588258
20
3.8594905597985778
30
-2.2204460492503131e-15
10
39.941979223316181
20
3.9019544935859951
30
-2.2204460492503131e-15
10
39.938811159400991
20
3.9444880513462377
30
-2.2204460492503131e-15
10
39.935271602679009
20
3.9870860886206705
30
-2.2204460492503131e-15
10
39.931366381557211
20
4.0297453867232598
30
-2.2204460492503131e-15
10
39.927097034614604
20
4.0724638732836436
30
-2.2204460492503131e-15
10
39.922462678632428
20
4.1152401366126368
30
-2.2204460492503131e-15
10
39.917462162813386
20
4.1580728666026818
30
-2.2204460492503131e-15
10
39.912096541759013
20
4.2009602133035626
30
-2.2204460492503131e-15
10
39.906369588595759
20
4.2438996524871753
30
-2.2204460492503131e-15
10
39.900286549217782
20
4.2868883061174961
30
-2.2204460492503131e-15
10
39.893853369916521
20
4.3299231407714744
30
-2.2204460492503131e-15
10
39.887075809376086
20
4.3730011960021979
30
-2.2204460492503131e-15
10
39.879958417863207
20
4.4161198477782841
30
-2.2204460492503131e-15
10
39.872504355207894
20
4.4592768534481948
30
-2.2204460492503131e-15
10
39.864715928670634
20
4.5024702094125528
30
-2.2204460492503131e-15
10
39.856594938846655
20
4.5456980589823184
30
-2.2204460492503131e-15
10
39.848143073300328
20
4.5889585883367019
30
-2.2204460492503131e-15
10
39.839362362854168
20
4.6322499058073223
30
-2.2204460492503131e-15
10
39.830255278163158
20
4.6755700175717383
30
-2.2204460492503131e-15
10
39.820824502382649
20
4.7189168898282068
30
-2.2204460492503131e-15
10
39.81107279274886
20
4.7622884879964937
30
-2.2204460492503131e-15
10
39.801002821278345
20
4.8056828208740709
30
-2.2204460492503131e-15
10
39.790616994627491
20
4.8490979929752305
30
-2.2204460492503131e-15
10
39.779917412038458
20
4.8925322120254409
30
-2.2204460492503131e-15
10
39.76890596782458
20
4.9359837504931212
30
-2.2204460492503131e-15
10
39.757584418858023
20
4.9794509181843152
30
-2.2204460492503131e-15
10
39.745954461967145
20
5.022932033559723
30
-2.2204460492503131e-15
10
39.734017825061329
20
5.0664253874456788
30
-2.2204460492503131e-15
10
39.721776296267898
20
5.1099292395695155
30
-2.2204460492503131e-15
10
39.709231670804265
20
5.1534418564878823
30
-2.2204460492503131e-15
10
39.696385719584114
20
5.1969615408581626
30
-2.2204460492503131e-15
10
39.683240154106791
20
5.2404866599306494
30
-2.2204460492503131e-15
10
39.669796588096659
20
5.2840156846542357
30
-2.2204460492503131e-15
10
39.656056526620411
20
5.3275471893372455
30
-2.2204460492503131e-15
10
39.642021405042989
20
5.3710797822018277
30
-2.2204460492503131e-15
10
39.627692619860476
20
5.4146120485974993
30
-2.2204460492503131e-15
10
39.613071561927214
20
5.4581424953715105
30
-2.2204460492503131e-15
10
39.598159657873246
20
5.5016694797691779
30
-2.2204460492503131e-15
10
39.582958387855911
20
5.5451911919244399
30
-2.2204460492503131e-15
10
39.567469229612676
20
5.5887057939739746
30
-2.2204460492503131e-15
10
39.551693617468359
20
5.6322115327808149
30
-2.2204460492503131e-15
10
39.535632897742381
20
5.675706859383296
30
-2.2204460492503131e-15
10
39.519288287099016
20
5.7191905548665325
30
-2.2204460492503131e-15
10
39.502660833413799
20
5.7626618274587234
30
-2.2204460492503131e-15
10
39.485751392077105
20
5.8061202099906462
30
-2.2204460492503131e-15
10
39.471998759924929
20
5.8408764260730637
30
-2.2204460492503131e-15
10
39.461557858832286
20
5.8669376579457033
30
-2.2204460492503131e-15
10
39.454541086999086
20
5.8843091777875935
30
-2.2204460492503131e-15
10
39.451018658306218
20
5.8929942790221768
30
-2.2204460492503131e-15
0
ARC
5
152
100
AcDbEntity
8
0
100
AcDbCircle
10
35.999999573783505
20
-7.6749999455580831
30
0
40
13.999999999999401
210
3.9095927000594622e-17
220
1.5370917945011673e-16
230
1
100
AcDbArc
50
75.729423003953201
51
80.453446320733278
0
SPLINE
5
153
100
AcDbEntity
8
0
100
AcDbSpline
70
4
71
5
72
81
73
75
74
0
42
0.000000001
43
0.0000000001
44
0.0000000001
40
-1
40
-1
40
-1
40
-1
40
-1
40
-1
40
-0.9857142857142841
40
-0.97142857142856986
40
-0.95714285714285563
40
-0.94285714285714139
40
-0.92857142857142716
40
-0.91428571428571292
40
-0.89999999999999869
40
-0.88571428571428445
40
-0.87142857142857022
40
-0.85714285714285599
40
-0.84285714285714175
40
-0.82857142857142752
40
-0.81428571428571328
40
-0.79999999999999905
40
-0.78571428571428481
40
-0.77142857142857058
40
-0.75714285714285634
40
-0.74285714285714211
40
-0.72857142857142787
40
-0.71428571428571364
40
-0.6999999999999994
40
-0.68571428571428517
40
-0.67142857142857093
40
-0.6571428571428567
40
-0.64285714285714246
40
-0.62857142857142823
40
-0.61428571428571399
40
-0.59999999999999976
40
-0.58571428571428552
40
-0.57142857142857129
40
-0.55714285714285705
40
-0.54285714285714282
40
-0.52857142857142858
40
-0.51428571428571435
40
-0.50000000000000011
40
-0.48571428571428582
40
-0.47142857142857153
40
-0.45714285714285724
40
-0.44285714285714295
40
-0.42857142857142866
40
-0.41428571428571437
40
-0.40000000000000008
40
-0.38571428571428579
40
-0.3714285714285715
40
-0.35714285714285721
40
-0.34285714285714292
40
-0.32857142857142863
40
-0.31428571428571433
40
-0.30000000000000004
40
-0.28571428571428575
40
-0.27142857142857146
40
-0.25714285714285717
40
-0.24285714285714291
40
-0.22857142857142862
40
-0.21428571428571433
40
-0.20000000000000004
40
-0.18571428571428575
40
-0.17142857142857146
40
-0.15714285714285717
40
-0.14285714285714288
40
-0.12857142857142859
40
-0.1142857142857143
40
-0.10000000000000001
40
-0.085714285714285715
40
-0.071428571428571425
40
-0.057142857142857141
40
-0.042857142857142858
40
-0.028571428571428571
40
-0.014285714285714285
40
0
40
0
40
0
40
0
40
0
40
0
41
1
41
1
41
1
41
1
41
1
41
1
41
1
41
1
41
1
41
1
41
1
41
1
41
1
41
1
41
1
41
1
41
1
41
1
41
1
41
1
41
1
41
1
41
1
41
1
41
1
41
1
41
1
41
1
41
1
41
1
41
1
41
1
41
1
41
1
41
1
41
1
41
1
41
1
41
1
41
1
41
1
41
1
41
1
41
1
41
1
41
1
41
1
41
1
41
1
41
1
41
1
41
1
41
1
41
1
41
1
41
1
41
1
41
1
41
1
41
1
41
1
41
1
41
1
41
1
41
1
41
1
41
1
41
1
41
1
41
1
41
1
41
1
41
1
41
1
41
1
10
38.321884497460474
20
6.1311164671477316
30
-2.2204460492503131e-15
10
38.315154834917372
20
6.1245934211255619
30
-2.2204460492503131e-15
10
38.301720671609274
20
6.111534782422094
30
-2.2204460492503131e-15
10
38.281644911984372
20
6.0919091843973439
30
-2.2204460492503131e-15
10
38.255028253291144
20
6.0656664153458646
30
-2.2204460492503131e-15
10
38.222009523774815
20
6.0327373443031318
30
-2.2204460492503131e-15
10
38.189243562302593
20
5.9996826090048554
30
-2.2204460492503131e-15
10
38.15673134007065
20
5.9665022914129047
30
-2.2204460492503131e-15
10
38.124474135448743
20
5.9331966927190951
30
-2.2204460492503131e-15
10
38.092473553709546
20
5.8997664367223157
30
-2.2204460492503131e-15
10
38.060731452018459
20
5.8662123968039115
30
-2.2204460492503131e-15
10
38.029249850501444
20
5.8325355975945286
30
-2.2204460492503131e-15
10
37.998030843214153
20
5.7987371237049317
30
-2.2204460492503131e-15
10
37.967076515120233
20
5.7648180331556986
30
-2.2204460492503131e-15
10
37.93638883473173
20
5.7307792527027592
30
-2.2204460492503131e-15
10
37.905969677419606
20
5.6966215866872592
30
-2.2204460492503131e-15
10
37.875820892015419
20
5.662345765355151
30
-2.2204460492503131e-15
10
37.84594435367309
20
5.6279524823316578
30
-2.2204460492503131e-15
10
37.816342015007407
20
5.5934424341207993
30
-2.2204460492503131e-15
10
37.787015969775993
20
5.5588163679058233
30
-2.2204460492503131e-15
10
37.757968443060214
20
5.5240750862541113
30
-2.2204460492503131e-15
10
37.729201740379864
20
5.4892194268325332
30
-2.2204460492503131e-15
10
37.70071820406686
20
5.4542502505200101
30
-2.2204460492503131e-15
10
37.672520172724674
20
5.4191684273062997
30
-2.2204460492503131e-15
10
37.644609917308649
20
5.3839748230477245
30
-2.2204460492503131e-15
10
37.616989669180768
20
5.3486702908707091
30
-2.2204460492503131e-15
10
37.589661718128312
20
5.3132556675724727
30
-2.2204460492503131e-15
10
37.562628494752751
20
5.2777317686068246
30
-2.2204460492503131e-15
10
37.535892643276831
20
5.2420993859028231
30
-2.2204460492503131e-15
10
37.509457130836445
20
5.2063592816714754
30
-2.2204460492503131e-15
10
37.483325205981579
20
5.1705121985318367
30
-2.2204460492503131e-15
10
37.457500212741202
20
5.1345588843732637
30
-2.2204460492503131e-15
10
37.431985427057846
20
5.0985001162881805
30
-2.2204460492503131e-15
10
37.406783914326049
20
5.0623367206060275
30
-2.2204460492503131e-15
10
37.381898296312734
20
5.026069607814371
30
-2.2204460492503131e-15
10
37.357330849322551
20
4.9896997557968774
30
-2.2204460492503131e-15
10
37.333083970376194
20
4.9532281360107584
30
-2.2204460492503131e-15
10
37.309160579336677
20
4.916655649711565
30
-2.2204460492503131e-15
10
37.285564472564531
20
4.8799830725654427
30
-2.2204460492503131e-15
10
37.262300872454453
20
4.8432109676551196
30
-2.2204460492503131e-15
10
37.239376242759292
20
4.8063397178476928
30
-2.2204460492503131e-15
10
37.216797248331595
20
4.7693696970122748
30
-2.2204460492503131e-15
10
37.19456985052495
20
4.7323014196974906
30
-2.2204460492503131e-15
10
37.172698520473318
20
4.6951356715060522
30
-2.2204460492503131e-15
10
37.151184970012061
20
4.6578737189765391
30
-2.2204460492503131e-15
10
37.130028675393064
20
4.620517225360036
30
-2.2204460492503131e-15
10
37.109229398680064
20
4.5830678387851904
30
-2.2204460492503131e-15
10
37.08878938428731
20
4.5455268338299977
30
-2.2204460492503131e-15
10
37.068715264034672
20
4.5078948014533413
30
-2.2204460492503131e-15
10
37.049021122463294
20
4.4701711479502979
30
-2.2204460492503131e-15
10
37.029727076360935
20
4.4323543331060806
30
-2.2204460492503131e-15
10
37.01085352550794
20
4.3944428218517935
30
-2.2204460492503131e-15
10
36.992416093684376
20
4.3564359220538611
30
-2.2204460492503131e-15
10
36.974421318951208
20
4.3183344998502546
30
-2.2204460492503131e-15
10
36.956859454369976
20
4.280142169248955
30
-2.2204460492503131e-15
10
36.939709133504877
20
4.2418645349383315
30
-2.2204460492503131e-15
10
36.922951071598447
20
4.2035069529617344
30
-2.2204460492503131e-15
10
36.90658026693049
20
4.1650725368561616
30
-2.2204460492503131e-15
10
36.890616434770962
20
4.1265604559384181
30
-2.2204460492503131e-15
10
36.875121198143042
20
4.087963120111259
30
-2.2204460492503131e-15
10
36.860184060753312
20
4.0492685112725804
30
-2.2204460492503131e-15
10
36.845891532736069
20
4.0104652998375734
30
-2.2204460492503131e-15
10
36.832299103069602
20
3.971547477399672
30
-2.2204460492503131e-15
10
36.819407155402835
20
3.9325183733781039
30
-2.2204460492503131e-15
10
36.807121983187557
20
3.8933970434306149
30
-2.2204460492503131e-15
10
36.795302517553424
20
3.8542109831081435
30
-2.2204460492503131e-15
10
36.783836172134855
20
3.8149841806443279
30
-2.2204460492503131e-15
10
36.772708133417012
20
3.7757262466804487
30
-2.2204460492503131e-15
10
36.762066705024623
20
3.7364221063218119
30
-2.2204460492503131e-15
10
36.752308413439224
20
3.6970187156412382
30
-2.2204460492503131e-15
10
36.743973507921048
20
3.6574404647121566
30
-2.2204460492503131e-15
10
36.738883054486273
20
3.6255755142946997
30
-2.2204460492503131e-15
10
36.736147026665734
20
3.6015350258677352
30
-2.2204460492503131e-15
10
36.734828672621617
20
3.5854414246728519
30
-2.2204460492503131e-15
10
36.734295913526395
20
3.5773779715755123
30
-2.2204460492503131e-15
0
LINE
5
154
100
AcDbEntity
8
0
100
AcDbLine
10
36.734295913526395
20
3.5773779715755127
30
-2.2204460492503131e-15
11
36.683170386827143
21
2.8035792878800594
31
-2.2204460492503131e-15
0
ARC
5
155
100
AcDbEntity
8
0
100
AcDbCircle
10
35.685345944351937
20
2.8695063839708643
30
-2.2204460492503131e-15
40
0.99999999999995737
210
-1.5400584301233447e-33
220
-4.5956155691987152e-35
230
1
100
AcDbArc
50
271.70922906383669
51
356.21991397578728
0
ARC
5
156
100
AcDbEntity
8
0
100
AcDbCircle
10
35.999999573783505
20
-7.6749999455580831
30
0
40
9.549199999999594
210
-6.9356386093018607e-18
220
2.3242345987626377e-16
230
1
100
AcDbArc
50
91.709229063836929
51
94.47364026084955
0
ARC
5
157
100
AcDbEntity
8
0
100
AcDbCircle
10
35.17715731708077
20
2.8420600647572907
30
-2.2204460492503131e-15
40
0.99999999999995659
210
1.0662651543245753e-33
220
-6.0700370347891824e-33
230
1
100
AcDbArc
50
189.96295534889973
51
274.47364026085063
0
LINE
5
158
100
AcDbEntity
8
0
100
AcDbLine
10
34.19223749748938
20
2.6690486519084029
30
-2.2204460492503131e-15
11
34.058069603992337
21
3.4328399838333405
31
0
0
SPLINE
5
159
100
AcDbEntity
8
0
100
AcDbSpline
70
4
71
5
72
81
73
75
74
0
42
0.000000001
43
0.0000000001
44
0.0000000001
40
0
40
0
40
0
40
0
40
0
40
0
40
0.014285714285714285
40
0.028571428571428571
40
0.042857142857142858
40
0.057142857142857141
40
0.071428571428571425
40
0.085714285714285715
40
0.10000000000000001
40
0.1142857142857143
40
0.12857142857142859
40
0.14285714285714288
40
0.15714285714285717
40
0.17142857142857146
40
0.18571428571428575
40
0.20000000000000004
40
0.21428571428571433
40
0.22857142857142862
40
0.24285714285714291
40
0.25714285714285717
40
0.27142857142857146
40
0.28571428571428575
40
0.30000000000000004
40
0.31428571428571433
40
0.32857142857142863
40
0.34285714285714292
40
0.35714285714285721
40
0.3714285714285715
40
0.38571428571428579
40
0.40000000000000008
40
0.41428571428571437
40
0.42857142857142866
40
0.44285714285714295
40
0.45714285714285724
40
0.47142857142857153
40
0.48571428571428582
40
0.50000000000000011
40
0.51428571428571435
40
0.52857142857142858
40
0.54285714285714282
40
0.55714285714285705
40
0.57142857142857129
40
0.58571428571428552
40
0.59999999999999976
40
0.61428571428571399
40
0.62857142857142823
40
0.64285714285714246
40
0.6571428571428567
40
0.67142857142857093
40
0.68571428571428517
40
0.6999999999999994
40
0.71428571428571364
40
0.72857142857142787
40
0.74285714285714211
40
0.75714285714285634
40
0.77142857142857058
40
0.78571428571428481
40
0.79999999999999905
40
0.81428571428571328
40
0.82857142857142752
40
0.84285714285714175
40
0.85714285714285599
40
0.87142857142857022
40
0.88571428571428445
40
0.89999999999999869
40
0.91428571428571292
40
0.92857142857142716
40
0.94285714285714139
40
0.95714285714285563
40
0.97142857142856986
40
0.9857142857142841
40
1
40
1
40
1
40
1
40
1
40
1
41
1
41
1
41
1
41
1
41
1
41
1
41
1
41
1
41
1
41
1
41
1
41
1
41
1
41
1
41
1
41
1
41
1
41
1
41
1
41
1
41
1
41
1
41
1
41
1
41
1
41
1
41
1
41
1
41
1
41
1
41
1
41
1
41
1
41
1
41
1
41
1
41
1
41
1
41
1
41
1
41
1
41
1
41
1
41
1
41
1
41
1
41
1
41
1
41
1
41
1
41
1
41
1
41
1
41
1
41
1
41
1
41
1
41
1
41
1
41
1
41
1
41
1
41
1
41
1
41
1
41
1
41
1
41
1
41
1
41
1
41
1
41
1
41
1
41
1
41
1
10
34.058069603992337
20
3.4328399838333401
30
0
10
34.056671492908436
20
3.4407991542363177
30
0
10
34.053627492598928
20
3.4566571528149899
30
0
10
34.048318168277248
20
3.4802631267895827
30
0
10
34.039825402451626
20
3.5113944728881648
30
0
10
34.027276318076197
20
3.5498448185035243
30
0
10
34.013330959989752
20
3.5879680193087098
30
0
10
33.998518291587132
20
3.625897431410086
30
0
10
33.983226819895535
20
3.6637284969293527
30
0
10
33.967602362290613
20
3.7014921756874521
30
0
10
33.951631226511012
20
3.7391773174993421
30
0
10
33.935204064665847
20
3.7767479478764376
30
0
10
33.918183589781712
20
3.8141615377882316
30
0
10
33.900478692716348
20
3.8513890500264987
30
0
10
33.882090113472536
20
3.8884272158583504
30
0
10
33.863072371142742
20
3.9252879850209093
30
0
10
33.843510252429766
20
3.961991938521439
30
0
10
33.823491446040912
20
3.99856066429358
30
0
10
33.80307639908164
20
4.0350083452143712
30
0
10
33.78228462267603
20
4.071337930511346
30
0
10
33.761111479532325
20
4.1075457860624462
30
0
10
33.739538373925619
20
4.1436245099701861
30
0
10
33.717544667340995
20
4.1795662289372046
30
0
10
33.695121058772159
20
4.2153663002115813
30
0
10
33.672274141534459
20
4.2510245668564703
30
0
10
33.649019373983442
20
4.2865433996935725
30
0
10
33.62537687190806
20
4.3219265219620624
30
0
10
33.601366469196563
20
4.3571776315381641
30
0
10
33.57700210451997
20
4.3922988356081882
30
0
10
33.552290434769809
20
4.4272902609117502
30
0
10
33.527233828579746
20
4.4621508820129572
30
0
10
33.501832226904511
20
4.4968790347437508
30
0
10
33.476085288178169
20
4.5314730091190505
30
0
10
33.44999485068756
20
4.5659317303357394
30
0
10
33.423565444170094
20
4.6002548989113725
30
0
10
33.396803050721381
20
4.6344426453407319
30
0
10
33.369714336692404
20
4.6684953157481175
30
0
10
33.342305769473334
20
4.7024132256533271
30
0
10
33.314582601726464
20
4.7361963777119191
30
0
10
33.28654869127061
20
4.7698444096456729
30
0
10
33.258207038051651
20
4.8033567399168833
30
0
10
33.229560129775329
20
4.8367326608832846
30
0
10
33.200610334825647
20
4.8699714455121779
30
0
10
33.171360357780685
20
4.9030724709819449
30
0
10
33.141813335201647
20
4.9360352459192063
30
0
10
33.11197260767009
20
4.9688593505776559
30
0
10
33.081841580312755
20
5.0015444015772292
30
0
10
33.051423562765116
20
5.0340900104942321
30
0
10
33.020721586995606
20
5.066495739118082
30
0
10
32.989738367138507
20
5.098761084914587
30
0
10
32.95847640748309
20
5.1308854989541715
30
0
10
32.926938074622257
20
5.1628683959220254
30
0
10
32.89512567882214
20
5.1947091679765736
30
0
10
32.863041571082974
20
5.2264071988846892
30
0
10
32.830688170104793
20
5.2579618755896975
30
0
10
32.798067897313139
20
5.2893725944943304
30
0
10
32.765183135035571
20
5.3206387711135994
30
0
10
32.732036181848855
20
5.3517598471944492
30
0
10
32.698629199804842
20
5.382735305401976
30
0
10
32.664964205175345
20
5.4135646635842969
30
0
10
32.631043136911792
20
5.4442474341089113
30
0
10
32.596867911740532
20
5.4747830901006234
30
0
10
32.562440480753125
20
5.5051710338783728
30
0
10
32.527762900824754
20
5.5354105560899001
30
0
10
32.492837358742321
20
5.5655008294238826
30
0
10
32.45766605319568
20
5.5954410011127331
30
0
10
32.42225110291502
20
5.6252302700577062
30
0
10
32.386594448328033
20
5.6548679679783689
30
0
10
32.350697752554296
20
5.6843536475955938
30
0
10
32.314562318966551
20
5.7136871471526653
30
0
10
32.278189121939214
20
5.7428684897643461
30
0
10
32.248900885085312
20
5.7660919397550492
30
0
10
32.226828183564365
20
5.7834411780643489
30
0
10
32.212065720983304
20
5.7949769696331703
30
0
10
32.204672657634973
20
5.8007372735903235
30
0
0
ARC
5
160
100
AcDbEntity
8
0
100
AcDbCircle
10
35.999999573783505
20
-7.6749999455580831
30
0
40
13.9999999999994
210
-3.6223289023999179e-48
220
-1.0201981649572402e-48
230
1
100
AcDbArc
50
105.72942300395319
51
110.45344632073312
0
SPLINE
5
161
100
AcDbEntity
8
0
100
AcDbSpline
70
4
71
5
72
81
73
75
74
0
42
0.000000001
43
0.0000000001
44
0.0000000001
40
-1
40
-1
40
-1
40
-1
40
-1
40
-1
40
-0.9857142857142841
40
-0.97142857142856986
40
-0.95714285714285563
40
-0.94285714285714139
40
-0.92857142857142716
40
-0.91428571428571292
40
-0.89999999999999869
40
-0.88571428571428445
40
-0.87142857142857022
40
-0.85714285714285599
40
-0.84285714285714175
40
-0.82857142857142752
40
-0.81428571428571328
40
-0.79999999999999905
40
-0.78571428571428481
40
-0.77142857142857058
40
-0.75714285714285634
40
-0.74285714285714211
40
-0.72857142857142787
40
-0.71428571428571364
40
-0.6999999999999994
40
-0.68571428571428517
40
-0.67142857142857093
40
-0.6571428571428567
40
-0.64285714285714246
40
-0.62857142857142823
40
-0.61428571428571399
40
-0.59999999999999976
40
-0.58571428571428552
40
-0.57142857142857129
40
-0.55714285714285705
40
-0.54285714285714282
40
-0.52857142857142858
40
-0.51428571428571435
40
-0.50000000000000011
40
-0.48571428571428582
40
-0.47142857142857153
40
-0.45714285714285724
40
-0.44285714285714295
40
-0.42857142857142866
40
-0.41428571428571437
40
-0.40000000000000008
40
-0.38571428571428579
40
-0.3714285714285715
40
-0.35714285714285721
40
-0.34285714285714292
40
-0.32857142857142863
40
-0.31428571428571433
40
-0.30000000000000004
40
-0.28571428571428575
40
-0.27142857142857146
40
-0.25714285714285717
40
-0.24285714285714291
40
-0.22857142857142862
40
-0.21428571428571433
40
-0.20000000000000004
40
-0.18571428571428575
40
-0.17142857142857146
40
-0.15714285714285717
40
-0.14285714285714288
40
-0.12857142857142859
40
-0.1142857142857143
40
-0.10000000000000001
40
-0.085714285714285715
40
-0.071428571428571425
40
-0.057142857142857141
40
-0.042857142857142858
40
-0.028571428571428571
40
-0.014285714285714285
40
0
40
0
40
0
40
0
40
0
40
0
41
1
41
1
41
1
41
1
41
1
41
1
41
1
41
1
41
1
41
1
41
1
41
1
41
1
41
1
41
1
41
1
41
1
41
1
41
1
41
1
41
1
41
1
41
1
41
1
41
1
41
1
41
1
41
1
41
1
41
1
41
1
41
1
41
1
41
1
41
1
41
1
41
1
41
1
41
1
41
1
41
1
41
1
41
1
41
1
41
1
41
1
41
1
41
1
41
1
41
1
41
1
41
1
41
1
41
1
41
1
41
1
41
1
41
1
41
1
41
1
41
1
41
1
41
1
41
1
41
1
41
1
41
1
41
1
41
1
41
1
41
1
41
1
41
1
41
1
41
1
10
31.107752695998954
20
5.4423900572889199
30
0
10
31.10518616028882
20
5.4333761024521197
30
0
10
31.10008115293715
20
5.4153499079420246
30
0
10
31.092507834114095
20
5.3883157616756785
30
0
10
31.082578516047636
20
5.3522805276648366
30
0
10
31.070447993007178
20
5.3072537508606423
30
0
10
31.058599205641944
20
5.2622445296408529
30
0
10
31.047032954051573
20
5.2172534205846137
30
0
10
31.035750194740835
20
5.1722813237165717
30
0
10
31.024752006017199
20
5.1273295818987465
30
0
10
31.014039559542411
20
5.0823998800842665
30
0
10
31.003614092481545
20
5.037494115692283
30
0
10
30.993476876034624
20
4.9926142750511033
30
0
10
30.983629186822824
20
4.9477623169152469
30
0
10
30.974072266249635
20
4.9029400281349069
30
0
10
30.964807336263362
20
4.8581490429754339
30
0
10
30.955835632876148
20
4.813390918264159
30
0
10
30.947158433206301
20
4.7686671922751005
30
0
10
30.938777080015821
20
4.7239794445058365
30
0
10
30.930693012960372
20
4.6793293689148321
30
0
10
30.922907757733256
20
4.6347187730865329
30
0
10
30.915422892139741
20
4.5901495352216095
30
0
10
30.908240014259331
20
4.545623572029049
30
0
10
30.901360714387142
20
4.5011428062438066
30
0
10
30.894786526300038
20
4.4567091231971343
30
0
10
30.888518955850973
20
4.412324377399174
30
0
10
30.882559567655292
20
4.3679904384312129
30
0
10
30.876910058948695
20
4.3237092277977105
30
0
10
30.871572323730739
20
4.2794827534407185
30
0
10
30.866548550510984
20
4.2353131590222759
30
0
10
30.861841181306701
20
4.1912027119443387
30
0
10
30.857452738187256
20
4.1471537319125806
30
0
10
30.853385669655896
20
4.1031685298800529
30
0
10
30.84964221725744
20
4.0592493541662993
30
0
10
30.846224196264863
20
4.0153983041601533
30
0
10
30.843133089073987
20
3.9716173648860309
30
0
10
30.84037048583702
20
3.9279085761609083
30
0
10
30.837938464601713
20
3.8842741784264829
30
0
10
30.835839925279693
20
3.8407167416096262
30
0
10
30.834079109056042
20
3.7972393645516238
30
0
10
30.8326614222714
20
3.7538456107015303
30
0
10
30.831592449922812
20
3.71053913626577
30
0
10
30.830877097419624
20
3.6673233675333181
30
0
10
30.830518844076089
20
3.62420122042306
30
0
10
30.83051853911579
20
3.5811746477072628
30
0
10
30.830874897334041
20
3.5382448279295575
30
0
10
30.831586888607664
20
3.4954130694431025
30
0
10
30.832655819367414
20
3.4526815982719268
30
0
10
30.83408713745834
20
3.4100542421113906
30
0
10
30.835893337303311
20
3.3675375290684988
30
0
10
30.83809261065899
20
3.3251401836720156
30
0
10
30.840703391787827
20
3.2828710764034486
30
0
10
30.843739557347046
20
3.240737419747568
30
0
10
30.847206336394542
20
3.1987432328323422
30
0
10
30.85109348083002
20
3.1568867720112648
30
0
10
30.855379684433103
20
3.1151622078689445
30
0
10
30.86004556809225
20
3.0735645364962592
30
0
10
30.865085243422183
20
3.0320939534352265
30
0
10
30.870516199689156
20
2.9907595969280947
30
0
10
30.87639559904531
20
2.9495857052694174
30
0
10
30.882806963025324
20
2.9086066223307543
30
0
10
30.889830876395592
20
2.867855791470999
30
0
10
30.897518398224229
20
2.8273557537465721
30
0
10
30.90586819605133
20
2.7871095843435634
30
0
10
30.914789589796776
20
2.7470869326715626
30
0
10
30.924146662459698
20
2.7072410761410088
30
0
10
30.933829917270561
20
2.667536495988827
30
0
10
30.943821720028556
20
2.6279741085170971
30
0
10
30.954258042887503
20
2.5886150102964094
30
0
10
30.965508809817301
20
2.5496115271790925
30
0
10
30.978079695364961
20
2.5111683036780654
30
0
10
30.989603708582393
20
2.4810272204088286
30
0
10
30.999254483197824
20
2.4588395328014192
30
0
10
31.006159555701881
20
2.4442428883062219
30
0
10
31.009729899339984
20
2.4369933535340818
30
0
0
LINE
5
162
100
AcDbEntity
8
0
100
AcDbLine
10
31.009729899339984
20
2.4369933535340822
30
0
11
31.352353236284301
21
1.7413012726892325
31
7.7037197775489434e-33
0
ARC
5
163
100
AcDbEntity
8
0
100
AcDbCircle
10
30.455248372538328
20
1.2994835914640097
30
0
40
0.99999999999995626
210
3.2393136534048218e-33
220
-5.2430065838127958e-33
230
1
100
AcDbArc
50
-58.290770936163476
51
26.219913975786959
0
ARC
5
164
100
AcDbEntity
8
0
100
AcDbCircle
10
35.999999573783505
20
-7.6749999455580831
30
0
40
9.5491999999995887
210
-5.5822301473997916e-33
220
-2.6902617345202252e-33
230
1
100
AcDbArc
50
121.70922906383689
51
124.47364026084945
0
ARC
5
165
100
AcDbEntity
8
0
100
AcDbCircle
10
30.028867271013944
20
1.0216200681490983
30
0
40
0.99999999999995692
210
7.6524246866772687e-34
220
8.6821049250873293e-33
230
1
100
AcDbArc
50
219.96295534889958
51
304.47364026085097
0
LINE
5
166
100
AcDbEntity
8
0
100
AcDbLine
10
29.262407392981451
20
0.37932787968162707
30
6.1629758220388975e-33
11
28.76431892287831
21
0.97370662957044773
31
-3.8518598887744717e-33
0
SPLINE
5
167
100
AcDbEntity
8
0
100
AcDbSpline
70
4
71
5
72
81
73
75
74
0
42
0.000000001
43
0.0000000001
44
0.0000000001
40
0
40
0
40
0
40
0
40
0
40
0
40
0.014285714285714285
40
0.028571428571428571
40
0.042857142857142858
40
0.057142857142857141
40
0.071428571428571425
40
0.085714285714285715
40
0.10000000000000001
40
0.1142857142857143
40
0.12857142857142859
40
0.14285714285714288
40
0.15714285714285717
40
0.17142857142857146
40
0.18571428571428575
40
0.20000000000000004
40
0.21428571428571433
40
0.22857142857142862
40
0.24285714285714291
40
0.25714285714285717
40
0.27142857142857146
40
0.28571428571428575
40
0.30000000000000004
40
0.31428571428571433
40
0.32857142857142863
40
0.34285714285714292
40
0.35714285714285721
40
0.3714285714285715
40
0.38571428571428579
40
0.40000000000000008
40
0.41428571428571437
40
0.42857142857142866
40
0.44285714285714295
40
0.45714285714285724
40
0.47142857142857153
40
0.48571428571428582
40
0.50000000000000011
40
0.51428571428571435
40
0.52857142857142858
40
0.54285714285714282
40
0.55714285714285705
40
0.57142857142857129
40
0.58571428571428552
40
0.59999999999999976
40
0.61428571428571399
40
0.62857142857142823
40
0.64285714285714246
40
0.6571428571428567
40
0.67142857142857093
40
0.68571428571428517
40
0.6999999999999994
40
0.71428571428571364
40
0.72857142857142787
40
0.74285714285714211
40
0.75714285714285634
40
0.77142857142857058
40
0.78571428571428481
40
0.79999999999999905
40
0.81428571428571328
40
0.82857142857142752
40
0.84285714285714175
40
0.85714285714285599
40
0.87142857142857022
40
0.88571428571428445
40
0.89999999999999869
40
0.91428571428571292
40
0.92857142857142716
40
0.94285714285714139
40
0.95714285714285563
40
0.97142857142856986
40
0.9857142857142841
40
1
40
1
40
1
40
1
40
1
40
1
41
1
41
1
41
1
41
1
41
1
41
1
41
1
41
1
41
1
41
1
41
1
41
1
41
1
41
1
41
1
41
1
41
1
41
1
41
1
41
1
41
1
41
1
41
1
41
1
41
1
41
1
41
1
41
1
41
1
41
1
41
1
41
1
41
1
41
1
41
1
41
1
41
1
41
1
41
1
41
1
41
1
41
1
41
1
41
1
41
1
41
1
41
1
41
1
41
1
41
1
41
1
41
1
41
1
41
1
41
1
41
1
41
1
41
1
41
1
41
1
41
1
41
1
41
1
41
1
41
1
41
1
41
1
41
1
41
1
41
1
41
1
41
1
41
1
41
1
41
1
10
28.764318922878303
20
0.97370662957044685
30
0
10
28.759128537960844
20
0.97990041779052672
30
0
10
28.74856335707435
20
0.99211184725807922
30
0
10
28.732162360347552
20
1.0099005582403144
30
0
10
28.709241736344879
20
1.0326147119028801
30
0
10
28.679148737673842
20
1.05963914580236
30
0
10
28.64801010290352
20
1.085682127130003
30
0
10
28.616217249718328
20
1.1111236273590914
30
0
10
28.584058914012516
20
1.1362405553052122
30
0
10
28.551645897427257
20
1.1611326316476198
30
0
10
28.518971917208887
20
1.1857833539121363
30
0
10
28.485960262550343
20
1.2101068933323125
30
0
10
28.452513303960316
20
1.233997775200635
30
0
10
28.41856665721118
20
1.2573852979859876
30
0
10
28.384122597530613
20
1.2802670008840431
30
0
10
28.349222364969108
20
1.302680492216959
30
0
10
28.313929096461553
20
1.3246859890112519
30
0
10
28.278307938689295
20
1.3463460313195244
30
0
10
28.242404148942725
20
1.3677031254263268
30
0
10
28.206233149737173
20
1.3887695809996532
30
0
10
28.169792742121199
20
1.4095399321516067
30
0
10
28.133070522673407
20
1.4299984707884854
30
0
10
28.096052554564224
20
1.4501280591772916
30
0
10
28.058733104261911
20
1.4699200260737806
30
0
10
28.021117960213452
20
1.4893775322243177
30
0
10
27.983219324336627
20
1.5085103599985159
30
0
10
27.945052755796066
20
1.5273317917105442
30
0
10
27.906633582304767
20
1.5458549467592904
30
0
10
27.867972821512762
20
1.5640886193571346
30
0
10
27.829076175087408
20
1.5820362477095615
30
0
10
27.789946207043585
20
1.5996981280798837
30
0
10
27.750583698330619
20
1.6170727897336354
30
0
10
27.710989208136276
20
1.6341585809973391
30
0
10
27.671164865865219
20
1.6509554902076193
30
0
10
27.631114744126325
20
1.6674655228737589
30
0
10
27.590843958318988
20
1.683691783055365
30
0
10
27.550358108610354
20
1.6996379036803724
30
0
10
27.509662638164695
20
1.7153073916920216
30
0
10
27.468762094593234
20
1.7307028757212348
30
0
10
27.42766000000417
20
1.7458259709352908
30
0
10
27.386359243195692
20
1.7606776736806948
30
0
10
27.344862332405317
20
1.7752586149741378
30
0
10
27.303171682230094
20
1.789569349378838
30
0
10
27.261289946314161
20
1.803610689804493
30
0
10
27.21922008668589
20
1.8173837789898735
30
0
10
27.176965206246937
20
1.8308899237147886
30
0
10
27.134528445613569
20
1.8441304945257424
30
0
10
27.091912865226057
20
1.8571068098556833
30
0
10
27.049121309951353
20
1.8698200061873229
30
0
10
27.006156381565816
20
1.882271005380439
30
0
10
26.963020523312352
20
1.8944605841926996
30
0
10
26.919716077377942
20
1.9063894190230657
30
0
10
26.876245348432516
20
1.9180581385983531
30
0
10
26.832610680618579
20
1.9294673847451438
30
0
10
26.788814475120141
20
1.940617835890794
30
0
10
26.744859130751877
20
1.9515101800175116
30
0
10
26.700747002912465
20
1.9621451021102265
30
0
10
26.65648036135428
20
1.9725232679959941
30
0
10
26.612061337136641
20
1.9826453106755648
30
0
10
26.567491917478062
20
1.9925118207290791
30
0
10
26.522774025376012
20
2.002123345330109
30
0
10
26.477909584201797
20
2.0114803865545241
30
0
10
26.432900582490788
20
2.0205834023411202
30
0
10
26.38774915622529
20
2.0294328068104202
30
0
10
26.342457612873972
20
2.0380289768832531
30
0
10
26.297028282941891
20
2.0463722733861474
30
0
10
26.251463401852597
20
2.0544630619123323
30
0
10
26.205764984205956
20
2.0623017339278156
30
0
10
26.15993469394537
20
2.0698887336373146
30
0
10
26.113973740703081
20
2.077224572641768
30
0
10
26.067882956754712
20
2.0843097581463494
30
0
10
26.030906874611826
20
2.0897777373748685
30
0
10
26.003116735209883
20
2.0937662677265569
30
0
10
25.984564171807854
20
2.0963753249873927
30
0
10
25.975281439157833
20
2.0976673628736391
30
0
0
ARC
5
168
100
AcDbEntity
8
0
100
AcDbCircle
10
35.999999573783505
20
-7.6749999455580831
30
0
40
13.999999999999392
210
9.5524718831356651e-49
220
9.7988435598079597e-49
230
1
100
AcDbArc
50
135.72942300395314
51
140.45344632073309
0
SPLINE
5
169
100
AcDbEntity
8
0
100
AcDbSpline
70
4
71
5
72
81
73
75
74
0
42
0.000000001
43
0.0000000001
44
0.0000000001
40
-1
40
-1
40
-1
40
-1
40
-1
40
-1
40
-0.9857142857142841
40
-0.97142857142856986
40
-0.95714285714285563
40
-0.94285714285714139
40
-0.92857142857142716
40
-0.91428571428571292
40
-0.89999999999999869
40
-0.88571428571428445
40
-0.87142857142857022
40
-0.85714285714285599
40
-0.84285714285714175
40
-0.82857142857142752
40
-0.81428571428571328
40
-0.79999999999999905
40
-0.78571428571428481
40
-0.77142857142857058
40
-0.75714285714285634
40
-0.74285714285714211
40
-0.72857142857142787
40
-0.71428571428571364
40
-0.6999999999999994
40
-0.68571428571428517
40
-0.67142857142857093
40
-0.6571428571428567
40
-0.64285714285714246
40
-0.62857142857142823
40
-0.61428571428571399
40
-0.59999999999999976
40
-0.58571428571428552
40
-0.57142857142857129
40
-0.55714285714285705
40
-0.54285714285714282
40
-0.52857142857142858
40
-0.51428571428571435
40
-0.50000000000000011
40
-0.48571428571428582
40
-0.47142857142857153
40
-0.45714285714285724
40
-0.44285714285714295
40
-0.42857142857142866
40
-0.41428571428571437
40
-0.40000000000000008
40
-0.38571428571428579
40
-0.3714285714285715
40
-0.35714285714285721
40
-0.34285714285714292
40
-0.32857142857142863
40
-0.31428571428571433
40
-0.30000000000000004
40
-0.28571428571428575
40
-0.27142857142857146
40
-0.25714285714285717
40
-0.24285714285714291
40
-0.22857142857142862
40
-0.21428571428571433
40
-0.20000000000000004
40
-0.18571428571428575
40
-0.17142857142857146
40
-0.15714285714285717
40
-0.14285714285714288
40
-0.12857142857142859
40
-0.1142857142857143
40
-0.10000000000000001
40
-0.085714285714285715
40
-0.071428571428571425
40
-0.057142857142857141
40
-0.042857142857142858
40
-0.028571428571428571
40
-0.014285714285714285
40
0
40
0
40
0
40
0
40
0
40
0
41
1
41
1
41
1
41
1
41
1
41
1
41
1
41
1
41
1
41
1
41
1
41
1
41
1
41
1
41
1
41
1
41
1
41
1
41
1
41
1
41
1
41
1
41
1
41
1
41
1
41
1
41
1
41
1
41
1
41
1
41
1
41
1
41
1
41
1
41
1
41
1
41
1
41
1
41
1
41
1
41
1
41
1
41
1
41
1
41
1
41
1
41
1
41
1
41
1
41
1
41
1
41
1
41
1
41
1
41
1
41
1
41
1
41
1
41
1
41
1
41
1
41
1
41
1
41
1
41
1
41
1
41
1
41
1
41
1
41
1
41
1
41
1
41
1
41
1
41
1
10
25.204494494613495
20
1.2388695893631785
30
0
10
25.206778786907201
20
1.2297800076308738
30
0
10
25.211370818109199
20
1.2116163615757354
30
0
10
25.218329204750635
20
1.1844174447279281
30
0
10
25.227747780068256
20
1.1482453576099965
30
0
10
25.23975582735612
20
1.1031857635267996
30
0
10
25.25199908710368
20
1.0582822408632904
30
0
10
25.264477973927981
20
1.0135356716809671
30
0
10
25.277192866174119
20
0.96894731367641951
30
0
10
25.29014402625274
20
0.92451886895600066
30
0
10
25.303331626376135
20
0.88025238256281046
30
0
10
25.316755789251101
20
0.83615011629256242
30
0
10
25.330416622604993
20
0.79221442595604219
30
0
10
25.344314252646932
20
0.74844764619501358
30
0
10
25.35844886103877
20
0.70485194516888461
30
0
10
25.372820688886115
20
0.66142934916711249
30
0
10
25.387430028193201
20
0.61818182444779002
30
0
10
25.402277215839927
20
0.57511134175444567
30
0
10
25.417362624943518
20
0.53221994035311015
30
0
10
25.432686655303101
20
0.4895098070826836
30
0
10
25.448249724415625
20
0.4469832702038562
30
0
10
25.464052259600194
20
0.4046427451887662
30
0
10
25.48009468647976
20
0.36249069099583087
30
0
10
25.496377420922805
20
0.32052956790993076
30
0
10
25.512900848553464
20
0.27876177556425613
30
0
10
25.529665346223538
20
0.23718967293817225
30
0
10
25.546671334139042
20
0.19581566144425269
30
0
10
25.563919321396984
20
0.15464225377200796
30
0
10
25.581409944278057
20
0.11367213585005422
30
0
10
25.599144026256116
20
0.072908258398951112
30
0
10
25.61712254847918
20
0.032353806055025566
30
0
10
25.635346535270557
20
-0.0079879512229906278
30
0
10
25.653816951619731
20
-0.048113787839432445
30
0
10
25.672534614601691
20
-0.088020635920041307
30
0
10
25.691500046594523
20
-0.12770576970427255
30
0
10
25.710713538878458
20
-0.16716672891265061
30
0
10
25.730175448657235
20
-0.20640095193573407
30
0
10
25.749886455352126
20
-0.24540545947023323
30
0
10
25.769847785396841
20
-0.2841765759383772
30
0
10
25.790061562344775
20
-0.32270949707234736
30
0
10
25.810530686499703
20
-0.36099843366441808
30
0
10
25.831258166507766
20
-0.3990374268484207
30
0
10
25.852246537433569
20
-0.43682105666639282
30
0
10
25.873497354492201
20
-0.47434505820137518
30
0
10
25.89501037674674
20
-0.51160731569118068
30
0
10
25.916783901905447
20
-0.54860745108943687
30
0
10
25.938816383678912
20
-0.58534484639065432
30
0
10
25.961107840457316
20
-0.62181692058610072
30
0
10
25.983661076365227
20
-0.65801763487183074
30
0
10
26.006483647836735
20
-0.69393508852990005
30
0
10
26.029586947130863
20
-0.7295526300184374
30
0
10
26.052982503546435
20
-0.76485336014388916
30
0
10
26.076678728378752
20
-0.79982409438260682
30
0
10
26.100678140560806
20
-0.83445873753871025
30
0
10
26.124972736800647
20
-0.86876392370453481
30
0
10
26.149546980077872
20
-0.90275535441207688
30
0
10
26.174386589544135
20
-0.93644705272952589
30
0
10
26.199486367937197
20
-0.96984179350516442
30
0
10
26.224856892284805
20
-1.0029229181559371
30
0
10
26.250535547315565
20
-1.0356408546269438
30
0
10
26.276577492864494
20
-1.0679240994856107
30
0
10
26.303035795707011
20
-1.0997033975503459
30
0
10
26.329943403764972
20
-1.130933698159609
30
0
10
26.357297625501207
20
-1.161613004354076
30
0
10
26.385035104957929
20
-1.19181294055612
30
0
10
26.413061495854357
20
-1.2216419282156672
30
0
10
26.441299730587971
20
-1.2511854758686216
30
0
10
26.469734079341862
20
-1.2804516070745069
30
0
10
26.498451749170151
20
-1.3093194245741957
30
0
10
26.527696940702072
20
-1.3374720483249714
30
0
10
26.557805258684922
20
-1.3644794137063938
30
0
10
26.582855888519386
20
-1.3848203509064194
30
0
10
26.602307548306253
20
-1.3992100647179551
30
0
10
26.615585838757344
20
-1.4083985934087764
30
0
10
26.622302614434247
20
-1.412891702868013
30
0
0
LINE
5
170
100
AcDbEntity
8
0
100
AcDbLine
10
26.622302614434247
20
-1.4128917028680132
30
0
11
27.266869168579845
21
-1.8440670496191516
31
0
0
ARC
5
171
100
AcDbEntity
8
0
100
AcDbCircle
10
26.710862407329863
20
-2.6752448172743177
30
0
40
0.9999999999999547
210
-3.1284245308867192e-33
220
-1.2314122446705768e-32
230
1
100
AcDbArc
50
-28.290770936163206
51
56.219913975786859
0
ARC
5
172
100
AcDbEntity
8
0
100
AcDbCircle
10
35.999999573783505
20
-7.6749999455580831
30
0
40
9.5491999999995798
210
-3.2050711586240006e-33
220
-5.2738906426021644e-33
230
1
100
AcDbArc
50
151.70922906383683
51
154.47364026084963
0
ARC
5
173
100
AcDbEntity
8
0
100
AcDbCircle
10
26.480537303373609
20
-3.1290722380122808
30
0
40
0.9999999999999567
210
5.7899388512020957e-33
220
-2.1116058065793802e-33
230
1
100
AcDbArc
50
249.96295534889956
51
334.47364026084927
0
LINE
5
174
100
AcDbEntity
8
0
100
AcDbLine
10
26.137909672249684
20
-4.0685435288936587
30
5.4738221262685736e-48
11
25.409363028863822
21
-3.8028406670718762
31
0
0
SPLINE
5
175
100
AcDbEntity
8
0
100
AcDbSpline
70
4
71
5
72
81
73
75
74
0
42
0.000000001
43
0.0000000001
44
0.0000000001
40
0
40
0
40
0
40
0
40
0
40
0
40
0.014285714285714285
40
0.028571428571428571
40
0.042857142857142858
40
0.057142857142857141
40
0.071428571428571425
40
0.085714285714285715
40
0.10000000000000001
40
0.1142857142857143
40
0.12857142857142859
40
0.14285714285714288
40
0.15714285714285717
40
0.17142857142857146
40
0.18571428571428575
40
0.20000000000000004
40
0.21428571428571433
40
0.22857142857142862
40
0.24285714285714291
40
0.25714285714285717
40
0.27142857142857146
40
0.28571428571428575
40
0.30000000000000004
40
0.31428571428571433
40
0.32857142857142863
40
0.34285714285714292
40
0.35714285714285721
40
0.3714285714285715
40
0.38571428571428579
40
0.40000000000000008
40
0.41428571428571437
40
0.42857142857142866
40
0.44285714285714295
40
0.45714285714285724
40
0.47142857142857153
40
0.48571428571428582
40
0.50000000000000011
40
0.51428571428571435
40
0.52857142857142858
40
0.54285714285714282
40
0.55714285714285705
40
0.57142857142857129
40
0.58571428571428552
40
0.59999999999999976
40
0.61428571428571399
40
0.62857142857142823
40
0.64285714285714246
40
0.6571428571428567
40
0.67142857142857093
40
0.68571428571428517
40
0.6999999999999994
40
0.71428571428571364
40
0.72857142857142787
40
0.74285714285714211
40
0.75714285714285634
40
0.77142857142857058
40
0.78571428571428481
40
0.79999999999999905
40
0.81428571428571328
40
0.82857142857142752
40
0.84285714285714175
40
0.85714285714285599
40
0.87142857142857022
40
0.88571428571428445
40
0.89999999999999869
40
0.91428571428571292
40
0.92857142857142716
40
0.94285714285714139
40
0.95714285714285563
40
0.97142857142856986
40
0.9857142857142841
40
1
40
1
40
1
40
1
40
1
40
1
41
1
41
1
41
1
41
1
41
1
41
1
41
1
41
1
41
1
41
1
41
1
41
1
41
1
41
1
41
1
41
1
41
1
41
1
41
1
41
1
41
1
41
1
41
1
41
1
41
1
41
1
41
1
41
1
41
1
41
1
41
1
41
1
41
1
41
1
41
1
41
1
41
1
41
1
41
1
41
1
41
1
41
1
41
1
41
1
41
1
41
1
41
1
41
1
41
1
41
1
41
1
41
1
41
1
41
1
41
1
41
1
41
1
41
1
41
1
41
1
41
1
41
1
41
1
41
1
41
1
41
1
41
1
41
1
41
1
41
1
41
1
41
1
41
1
41
1
41
1
10
25.409363028863822
20
-3.8028406670718766
30
0
10
25.40177112955984
20
-3.8000718815863586
30
0
10
25.38651569978278
20
-3.7947790638941852
30
0
10
25.36341766447887
20
-3.7875740866463881
30
0
10
25.332210744990679
20
-3.7793633645504792
30
0
10
25.292637226715769
20
-3.7710060176061555
30
0
10
25.252648887301689
20
-3.7640214515712933
30
0
10
25.212394718669977
20
-3.7578848926551127
30
0
10
25.171986319032257
20
-3.7522121628416532
30
0
10
25.131469785084928
20
-3.7468615006688175
30
0
10
25.090847927040812
20
-3.741850339075298
30
0
10
25.05009722577547
20
-3.7372913633567446
30
0
10
25.009185869023018
20
-3.7333247320349749
30
0
10
24.968093449172294
20
-3.7300438665458406
30
0
10
24.926823167030427
20
-3.7274497603945598
30
0
10
24.885391933367718
20
-3.7254892237935069
30
0
10
24.843824317860452
20
-3.7240785388005273
30
0
10
24.802145469163321
20
-3.7231309708006481
30
0
10
24.760373328097252
20
-3.722587079626428
30
0
10
24.718515096118317
20
-3.722428493535006
30
0
10
24.676571601822651
20
-3.7226610455998754
30
0
10
24.634539957579076
20
-3.723304541139933
30
0
10
24.592416662605636
20
-3.7243807902820909
30
0
10
24.550201087140316
20
-3.7259001693100284
30
0
10
24.507896663752074
20
-3.7278570467136003
30
0
10
24.465509068426865
20
-3.7302368497533256
30
0
10
24.423045134639448
20
-3.7330202960253938
30
0
10
24.380511576879208
20
-3.7361883599405936
30
0
10
24.33791353960477
20
-3.7397279166625754
30
0
10
24.295254241502185
20
-3.7436331377843688
30
0
10
24.2525357549418
20
-3.7479024847269784
30
0
10
24.209759491612811
20
-3.7525368407091535
30
0
10
24.166926761622761
20
-3.7575373565281982
30
0
10
24.124039414921874
20
-3.7629029775825664
30
0
10
24.081099975738269
20
-3.7686299307458238
30
0
10
24.038111322107948
20
-3.7747129701238054
30
0
10
23.995076487453964
20
-3.7811461494250564
30
0
10
23.951998432223249
20
-3.7879237099654994
30
0
10
23.908879780447162
20
-3.7950411014783758
30
0
10
23.86572277477725
20
-3.8024951641336848
30
0
10
23.822529418812888
20
-3.8102835906709465
30
0
10
23.779301569243131
20
-3.8184045804949212
30
0
10
23.73604103988874
20
-3.8268564460412517
30
0
10
23.692749722418121
20
-3.8356371564874174
30
0
10
23.649429610653709
20
-3.8447442411784243
30
0
10
23.606082738397234
20
-3.8541750169589366
30
0
10
23.562711140228952
20
-3.8639267265927248
30
0
10
23.519316807351373
20
-3.8739966980632357
30
0
10
23.475901635250214
20
-3.8843825247140886
30
0
10
23.432467416200002
20
-3.8950821073031197
30
0
10
23.389015877732323
20
-3.906093551517003
30
0
10
23.345548710041125
20
-3.9174151004835638
30
0
10
23.302067594665719
20
-3.9290450573744407
30
0
10
23.258574240779769
20
-3.9409816942802554
30
0
10
23.215070388655931
20
-3.9532232230736848
30
0
10
23.171557771737561
20
-3.9657678485373156
30
0
10
23.128038087367283
20
-3.9786137997574658
30
0
10
23.084512968294788
20
-3.9917593652347927
30
0
10
23.040983943571209
20
-4.0052029312449164
30
0
10
22.9974524388882
20
-4.0189429927211666
30
0
10
22.953919846023616
20
-4.032978114298599
30
0
10
22.910387579627947
20
-4.0473068994811063
30
0
10
22.866857132853937
20
-4.061927957414369
30
0
10
22.823330148456265
20
-4.0768398614683363
30
0
10
22.779808436301007
20
-4.0920411314856739
30
0
10
22.736293834251473
20
-4.107530289728901
30
0
10
22.692788095444627
20
-4.1233059018732279
30
0
10
22.649292768842155
20
-4.1393666215992022
30
0
10
22.60580907335892
20
-4.1557112322425658
30
0
10
22.56233780076672
20
-4.1723386859277785
30
0
10
22.518879418234796
20
-4.1892481272644719
30
0
10
22.484123202152382
20
-4.2030007594166516
30
0
10
22.458061970279743
20
-4.2134416605092966
30
0
10
22.440690450437852
20
-4.2204584323424976
30
0
10
22.432005349203269
20
-4.2239808610353666
30
0
0
ARC
5
176
100
AcDbEntity
8
0
100
AcDbCircle
10
35.999999573783505
20
-7.6749999455580831
30
0
40
13.999999999999378
210
1.1595586543159013e-49
220
4.5589099160244338e-49
230
1
100
AcDbArc
50
165.72942300395317
51
170.45344632073326
0
SPLINE
5
177
100
AcDbEntity
8
0
100
AcDbSpline
70
4
71
5
72
81
73
75
74
0
42
0.000000001
43
0.0000000001
44
0.0000000001
40
-1
40
-1
40
-1
40
-1
40
-1
40
-1
40
-0.9857142857142841
40
-0.97142857142856986
40
-0.95714285714285563
40
-0.94285714285714139
40
-0.92857142857142716
40
-0.91428571428571292
40
-0.89999999999999869
40
-0.88571428571428445
40
-0.87142857142857022
40
-0.85714285714285599
40
-0.84285714285714175
40
-0.82857142857142752
40
-0.81428571428571328
40
-0.79999999999999905
40
-0.78571428571428481
40
-0.77142857142857058
40
-0.75714285714285634
40
-0.74285714285714211
40
-0.72857142857142787
40
-0.71428571428571364
40
-0.6999999999999994
40
-0.68571428571428517
40
-0.67142857142857093
40
-0.6571428571428567
40
-0.64285714285714246
40
-0.62857142857142823
40
-0.61428571428571399
40
-0.59999999999999976
40
-0.58571428571428552
40
-0.57142857142857129
40
-0.55714285714285705
40
-0.54285714285714282
40
-0.52857142857142858
40
-0.51428571428571435
40
-0.50000000000000011
40
-0.48571428571428582
40
-0.47142857142857153
40
-0.45714285714285724
40
-0.44285714285714295
40
-0.42857142857142866
40
-0.41428571428571437
40
-0.40000000000000008
40
-0.38571428571428579
40
-0.3714285714285715
40
-0.35714285714285721
40
-0.34285714285714292
40
-0.32857142857142863
40
-0.31428571428571433
40
-0.30000000000000004
40
-0.28571428571428575
40
-0.27142857142857146
40
-0.25714285714285717
40
-0.24285714285714291
40
-0.22857142857142862
40
-0.21428571428571433
40
-0.20000000000000004
40
-0.18571428571428575
40
-0.17142857142857146
40
-0.15714285714285717
40
-0.14285714285714288
40
-0.12857142857142859
40
-0.1142857142857143
40
-0.10000000000000001
40
-0.085714285714285715
40
-0.071428571428571425
40
-0.057142857142857141
40
-0.042857142857142858
40
-0.028571428571428571
40
-0.014285714285714285
40
0
40
0
40
0
40
0
40
0
40
0
41
1
41
1
41
1
41
1
41
1
41
1
41
1
41
1
41
1
41
1
41
1
41
1
41
1
41
1
41
1
41
1
41
1
41
1
41
1
41
1
41
1
41
1
41
1
41
1
41
1
41
1
41
1
41
1
41
1
41
1
41
1
41
1
41
1
41
1
41
1
41
1
41
1
41
1
41
1
41
1
41
1
41
1
41
1
41
1
41
1
41
1
41
1
41
1
41
1
41
1
41
1
41
1
41
1
41
1
41
1
41
1
41
1
41
1
41
1
41
1
41
1
41
1
41
1
41
1
41
1
41
1
41
1
41
1
41
1
41
1
41
1
41
1
41
1
41
1
41
1
10
22.193883161077718
20
-5.353115021881111
30
0
10
22.200406207099881
20
-5.3598446844242087
30
0
10
22.213464845803351
20
-5.3732788477323092
30
0
10
22.233090443828104
20
-5.3933546073572094
30
0
10
22.259333212879579
20
-5.4199712660504336
30
0
10
22.292262283922316
20
-5.4529899955667647
30
0
10
22.325317019220595
20
-5.4857559570389922
30
0
10
22.358497336812544
20
-5.5182681792709332
30
0
10
22.391802935506355
20
-5.5505253838928406
30
0
10
22.425233191503132
20
-5.5825259656320405
30
0
10
22.458787231421535
20
-5.6142680673231258
30
0
10
22.492464030630916
20
-5.6457496688401454
30
0
10
22.526262504520517
20
-5.6769686761274301
30
0
10
22.56018159506975
20
-5.7079230042213513
30
0
10
22.594220375522688
20
-5.7386106846098492
30
0
10
22.628378041538188
20
-5.7690298419219825
30
0
10
22.662653862870297
20
-5.7991786273261674
30
0
10
22.697047145893787
20
-5.8290551656684961
30
0
10
22.731557194104646
20
-5.8586575043341718
30
0
10
22.766183260319622
20
-5.8879835495655914
30
0
10
22.800924541971334
20
-5.9170310762813685
30
0
10
22.835780201392915
20
-5.9457977789617233
30
0
10
22.870749377705437
20
-5.9742813152747232
30
0
10
22.905831200919145
20
-6.002479346616914
30
0
10
22.941024805177722
20
-6.0303896020329315
30
0
10
22.976329337354734
20
-6.0580098501608148
30
0
10
23.011743960652971
20
-6.0853378012132673
30
0
10
23.047267859618618
20
-6.1123710245888336
30
0
10
23.082900242322623
20
-6.1391068760647531
30
0
10
23.118640346553967
20
-6.165542388505135
30
0
10
23.15448742969361
20
-6.1916743133600081
30
0
10
23.190440743852179
20
-6.217499306600387
30
0
10
23.226499511937263
20
-6.243014092283742
30
0
10
23.262662907619422
20
-6.2682156050155369
30
0
10
23.298930020411071
20
-6.2931012230288506
30
0
10
23.335299872428568
20
-6.3176686700190388
30
0
10
23.371771492214684
20
-6.3419155489653871
30
0
10
23.40834397851388
20
-6.3658389400049149
30
0
10
23.445016555660004
20
-6.389435046777054
30
0
10
23.481788660570327
20
-6.412698646887133
30
0
10
23.51865991037775
20
-6.4356232765822909
30
0
10
23.555629931213172
20
-6.4582022710099878
30
0
10
23.592698208527953
20
-6.4804296688166367
30
0
10
23.629863956719394
20
-6.502300998868261
30
0
10
23.667125909248906
20
-6.5238145493295221
30
0
10
23.704482402865409
20
-6.5449708439485246
30
0
10
23.741931789440258
20
-6.5657701206615187
30
2.2204460492503131e-15
10
23.779472794395446
20
-6.5862101350542801
30
2.2204460492503131e-15
10
23.817104826772102
20
-6.6062842553069103
30
2.2204460492503131e-15
10
23.854828480275149
20
-6.6259783968782955
30
2.2204460492503131e-15
10
23.892645295119365
20
-6.6452724429806516
30
2.2204460492503131e-15
10
23.930556806373644
20
-6.6641459938336443
30
2.2204460492503131e-15
10
23.968563706171583
20
-6.6825834256572101
30
2.2204460492503131e-15
10
24.006665128375182
20
-6.7005782003903764
30
2.2204460492503131e-15
10
24.044857458976491
20
-6.7181400649716139
30
2.2204460492503131e-15
10
24.083135093287112
20
-6.7352903858367128
30
2.2204460492503131e-15
10
24.121492675263706
20
-6.7520484477431317
30
2.2204460492503131e-15
10
24.159927091369283
20
-6.7684192524110998
30
2.2204460492503131e-15
10
24.198439172287024
20
-6.7843830845706252
30
2.2204460492503131e-15
10
24.237036508114187
20
-6.7998783211985403
30
2.2204460492503131e-15
10
24.275731116952862
20
-6.8148154585882743
30
2.2204460492503131e-15
10
24.314534328387868
20
-6.829107986605516
30
2.2204460492503131e-15
10
24.35345215082577
20
-6.8427004162719829
30
2.2204460492503131e-15
10
24.392481254847343
20
-6.8555923639387526
30
2.2204460492503131e-15
10
24.431602584794831
20
-6.8678775361540332
30
2.2204460492503131e-15
10
24.470788645117302
20
-6.8796970017881609
30
2.2204460492503131e-15
10
24.510015447581118
20
-6.891163347206728
30
2.2204460492503131e-15
10
24.549273381544996
20
-6.9022913859245687
30
2.2204460492503131e-15
10
24.588577521903634
20
-6.9129328143169655
30
2.2204460492503131e-15
10
24.627980912584206
20
-6.9226911059023628
30
2.2204460492503131e-15
10
24.667559163513285
20
-6.9310260114205331
30
2.2204460492503131e-15
10
24.699424113930743
20
-6.9361164648553109
30
2.2204460492503131e-15
10
24.723464602357712
20
-6.9388524926758546
30
2.2204460492503131e-15
10
24.73955820355259
20
-6.9401708467199636
30
2.2204460492503131e-15
10
24.747621656649933
20
-6.9407036058151945
30
2.2204460492503131e-15
0
LINE
5
178
100
AcDbEntity
8
0
100
AcDbLine
10
24.747621656649933
20
-6.9407036058151945
30
2.2204460492503131e-15
11
25.521420340345387
21
-6.9918291325144466
31
2.2204460492503131e-15
0
ARC
5
179
100
AcDbEntity
8
0
100
AcDbCircle
10
25.455493244254576
20
-7.9896535749896493
30
2.2204460492503131e-15
40
0.99999999999995559
210
-1.8382462276796217e-34
220
6.1602337204933645e-33
230
1
100
AcDbArc
50
1.7092290638367831
51
86.219913975786881
0
ARC
5
180
100
AcDbEntity
8
0
100
AcDbCircle
10
35.999999573783505
20
-7.6749999455580831
30
0
40
9.5491999999995745
210
2.3242345987626421e-16
220
6.935638609301816e-18
230
1
100
AcDbArc
50
181.70922906383655
51
184.47364026084963
0
ARC
5
181
100
AcDbEntity
8
0
100
AcDbCircle
10
25.482939563468143
20
-8.4978422022608129
30
2.2204460492503131e-15
40
0.99999999999995703
210
1.5175092586972997e-33
220
2.6656628858113918e-34
230
1
100
AcDbArc
50
-80.037044651100388
51
4.4736402608490007
0
LINE
5
182
100
AcDbEntity
8
0
100
AcDbLine
10
25.65595097631703
20
-9.4827620218522082
30
2.2204460492503131e-15
11
24.892159644392105
21
-9.6169299153492496
31
2.2204460492503131e-15
0
SPLINE
5
183
100
AcDbEntity
8
0
100
AcDbSpline
70
4
71
5
72
81
73
75
74
0
42
0.000000001
43
0.0000000001
44
0.0000000001
40
0
40
0
40
0
40
0
40
0
40
0
40
0.014285714285714285
40
0.028571428571428571
40
0.042857142857142858
40
0.057142857142857141
40
0.071428571428571425
40
0.085714285714285715
40
0.10000000000000001
40
0.1142857142857143
40
0.12857142857142859
40
0.14285714285714288
40
0.15714285714285717
40
0.17142857142857146
40
0.18571428571428575
40
0.20000000000000004
40
0.21428571428571433
40
0.22857142857142862
40
0.24285714285714291
40
0.25714285714285717
40
0.27142857142857146
40
0.28571428571428575
40
0.30000000000000004
40
0.31428571428571433
40
0.32857142857142863
40
0.34285714285714292
40
0.35714285714285721
40
0.3714285714285715
40
0.38571428571428579
40
0.40000000000000008
40
0.41428571428571437
40
0.42857142857142866
40
0.44285714285714295
40
0.45714285714285724
40
0.47142857142857153
40
0.48571428571428582
40
0.50000000000000011
40
0.51428571428571435
40
0.52857142857142858
40
0.54285714285714282
40
0.55714285714285705
40
0.57142857142857129
40
0.58571428571428552
40
0.59999999999999976
40
0.61428571428571399
40
0.62857142857142823
40
0.64285714285714246
40
0.6571428571428567
40
0.67142857142857093
40
0.68571428571428517
40
0.6999999999999994
40
0.71428571428571364
40
0.72857142857142787
40
0.74285714285714211
40
0.75714285714285634
40
0.77142857142857058
40
0.78571428571428481
40
0.79999999999999905
40
0.81428571428571328
40
0.82857142857142752
40
0.84285714285714175
40
0.85714285714285599
40
0.87142857142857022
40
0.88571428571428445
40
0.89999999999999869
40
0.91428571428571292
40
0.92857142857142716
40
0.94285714285714139
40
0.95714285714285563
40
0.97142857142856986
40
0.9857142857142841
40
1
40
1
40
1
40
1
40
1
40
1
41
1
41
1
41
1
41
1
41
1
41
1
41
1
41
1
41
1
41
1
41
1
41
1
41
1
41
1
41
1
41
1
41
1
41
1
41
1
41
1
41
1
41
1
41
1
41
1
41
1
41
1
41
1
41
1
41
1
41
1
41
1
41
1
41
1
41
1
41
1
41
1
41
1
41
1
41
1
41
1
41
1
41
1
41
1
41
1
41
1
41
1
41
1
41
1
41
1
41
1
41
1
41
1
41
1
41
1
41
1
41
1
41
1
41
1
41
1
41
1
41
1
41
1
41
1
41
1
41
1
41
1
41
1
41
1
41
1
41
1
41
1
41
1
41
1
41
1
41
1
10
24.892159644392105
20
-9.6169299153492496
30
2.2204460492503131e-15
10
24.884200473989118
20
-9.6183280264331508
30
2.2204460492503131e-15
10
24.868342475410451
20
-9.6213720267426623
30
2.2204460492503131e-15
10
24.844736501435861
20
-9.6266813510643345
30
2.2204460492503131e-15
10
24.813605155337278
20
-9.6351741168899565
30
2.2204460492503131e-15
10
24.775154809721911
20
-9.6477232012653875
30
2.2204460492503131e-15
10
24.737031608916734
20
-9.6616685593518294
30
2.2204460492503131e-15
10
24.699102196815357
20
-9.6764812277544525
30
2.2204460492503131e-15
10
24.66127113129609
20
-9.6917726994460516
30
2.2204460492503131e-15
10
24.623507452537989
20
-9.7073971570509716
30
2.2204460492503131e-15
10
24.585822310726101
20
-9.7233682928305729
30
2.2204460492503131e-15
10
24.548251680349008
20
-9.7397954546757415
30
2.2204460492503131e-15
10
24.510838090437211
20
-9.7568159295598651
30
2.2204460492503131e-15
10
24.473610578198944
20
-9.7745208266252366
30
2.2204460492503131e-15
10
24.436572412367092
20
-9.7929094058690467
30
2.2204460492503131e-15
10
24.399711643204533
20
-9.8119271481988406
30
2.2204460492503131e-15
10
24.363007689704006
20
-9.8314892669118166
30
2.2204460492503131e-15
10
24.326438963931864
20
-9.851508073300673
30
2.2204460492503131e-15
10
24.289991283011073
20
-9.8719231202599396
30
2.2204460492503131e-15
10
24.253661697714097
20
-9.8927148966655505
30
2.2204460492503131e-15
10
24.217453842162996
20
-9.9138880398092617
30
2.2204460492503131e-15
10
24.181375118255257
20
-9.935461145415962
30
2.2204460492503131e-15
10
24.145433399288233
20
-9.9574548520005894
30
2.2204460492503131e-15
10
24.109633328013853
20
-9.979878460569422
30
2.2204460492503131e-15
10
24.073975061368973
20
-10.002725377807128
30
2.2204460492503131e-15
10
24.038456228531871
20
-10.02598014535814
30
2.2204460492503131e-15
10
24.003073106263383
20
-10.049622647433527
30
2.2204460492503131e-15
10
23.967821996687281
20
-10.073633050145025
30
2.2204460492503131e-15
10
23.932700792617258
20
-10.097997414821611
30
2.2204460492503131e-15
10
23.897709367313698
20
-10.122709084571778
30
2.2204460492503131e-15
10
23.862848746212482
20
-10.147765690761837
30
2.2204460492503131e-15
10
23.828120593481692
20
-10.173167292437078
30
2.2204460492503131e-15
10
23.793526619106395
20
-10.198914231163421
30
2.2204460492503131e-15
10
23.759067897889704
20
-10.225004668654025
30
2.2204460492503131e-15
10
23.724744729314075
20
-10.251434075171495
30
2.2204460492503131e-15
10
23.690556982884708
20
-10.278196468620209
30
2.2204460492503131e-15
10
23.656504312477331
20
-10.305285182649184
30
2.2204460492503131e-15
10
23.622586402572114
20
-10.332693749868254
30
2.2204460492503131e-15
10
23.588803250513529
20
-10.360416917615126
30
2.2204460492503131e-15
10
23.555155218579774
20
-10.388450828070981
30
2.2204460492503131e-15
10
23.521642888308559
20
-10.416792481289939
30
2.2204460492503131e-15
10
23.48826696734216
20
-10.445439389566257
30
2.2204460492503131e-15
10
23.455028182713264
20
-10.474389184515944
30
2.2204460492503131e-15
10
23.421927157243495
20
-10.503639161560907
30
2.2204460492503131e-15
10
23.388964382306234
20
-10.533186184139943
30
2.2204460492503131e-15
10
23.356140277647789
20
-10.563026911671493
30
2.2204460492503131e-15
10
23.323455226648214
20
-10.593157939028831
30
2.2204460492503131e-15
10
23.290909617731209
20
-10.623575956576465
30
2.2204460492503131e-15
10
23.258503889107359
20
-10.654277932345986
30
2.2204460492503131e-15
10
23.22623854331086
20
-10.685261152203079
30
2.2204460492503131e-15
10
23.194114129271274
20
-10.716523111858498
30
2.2204460492503131e-15
10
23.162131232303416
20
-10.748061444719326
30
2.2204460492503131e-15
10
23.130290460248872
20
-10.779873840519446
30
2.2204460492503131e-15
10
23.098592429340755
20
-10.811957948258613
30
2.2204460492503131e-15
10
23.067037752635745
20
-10.844311349236799
30
2.2204460492503131e-15
10
23.035627033731107
20
-10.876931622028449
30
2.2204460492503131e-15
10
23.004360857111841
20
-10.909816384306012
30
2.2204460492503131e-15
10
22.973239781030991
20
-10.942963337492733
30
2.2204460492503131e-15
10
22.942264322823466
20
-10.976370319536745
30
2.2204460492503131e-15
10
22.911434964641145
20
-11.010035314166245
30
2.2204460492503131e-15
10
22.880752194116528
20
-11.043956382429796
30
2.2204460492503131e-15
10
22.850216538124823
20
-11.078131607601055
30
2.2204460492503131e-15
10
22.819828594347072
20
-11.112559038588465
30
2.2204460492503131e-15
10
22.789589072135541
20
-11.147236618516832
30
2.2204460492503131e-15
10
22.759498798801559
20
-11.182162160599262
30
2.2204460492503131e-15
10
22.729558627112709
20
-11.217333466145904
30
2.2204460492503131e-15
10
22.699769358167735
20
-11.252748416426563
30
2.2204460492503131e-15
10
22.670131660247076
20
-11.288405071013559
30
2.2204460492503131e-15
10
22.640645980629852
20
-11.324301766787295
30
2.2204460492503131e-15
10
22.61131248107278
20
-11.360437200375035
30
2.2204460492503131e-15
10
22.582131138461101
20
-11.396810397402373
30
2.2204460492503131e-15
10
22.558907688470391
20
-11.426098634256274
30
2.2204460492503131e-15
10
22.541558450161091
20
-11.448171335777225
30
2.2204460492503131e-15
10
22.530022658592269
20
-11.462933798358282
30
2.2204460492503131e-15
10
22.524262354635116
20
-11.470326861706614
30
2.2204460492503131e-15
0
ARC
5
184
100
AcDbEntity
8
0
100
AcDbCircle
10
35.999999573783505
20
-7.6749999455580831
30
0
40
13.99999999999938
210
1.5266401769895961e-16
220
4.2996523758041475e-17
230
1
100
AcDbArc
50
195.72942300395314
51
200.45344632073332
0
SPLINE
5
185
100
AcDbEntity
8
0
100
AcDbSpline
70
4
71
5
72
81
73
75
74
0
42
0.000000001
43
0.0000000001
44
0.0000000001
40
-1
40
-1
40
-1
40
-1
40
-1
40
-1
40
-0.9857142857142841
40
-0.97142857142856986
40
-0.95714285714285563
40
-0.94285714285714139
40
-0.92857142857142716
40
-0.91428571428571292
40
-0.89999999999999869
40
-0.88571428571428445
40
-0.87142857142857022
40
-0.85714285714285599
40
-0.84285714285714175
40
-0.82857142857142752
40
-0.81428571428571328
40
-0.79999999999999905
40
-0.78571428571428481
40
-0.77142857142857058
40
-0.75714285714285634
40
-0.74285714285714211
40
-0.72857142857142787
40
-0.71428571428571364
40
-0.6999999999999994
40
-0.68571428571428517
40
-0.67142857142857093
40
-0.6571428571428567
40
-0.64285714285714246
40
-0.62857142857142823
40
-0.61428571428571399
40
-0.59999999999999976
40
-0.58571428571428552
40
-0.57142857142857129
40
-0.55714285714285705
40
-0.54285714285714282
40
-0.52857142857142858
40
-0.51428571428571435
40
-0.50000000000000011
40
-0.48571428571428582
40
-0.47142857142857153
40
-0.45714285714285724
40
-0.44285714285714295
40
-0.42857142857142866
40
-0.41428571428571437
40
-0.40000000000000008
40
-0.38571428571428579
40
-0.3714285714285715
40
-0.35714285714285721
40
-0.34285714285714292
40
-0.32857142857142863
40
-0.31428571428571433
40
-0.30000000000000004
40
-0.28571428571428575
40
-0.27142857142857146
40
-0.25714285714285717
40
-0.24285714285714291
40
-0.22857142857142862
40
-0.21428571428571433
40
-0.20000000000000004
40
-0.18571428571428575
40
-0.17142857142857146
40
-0.15714285714285717
40
-0.14285714285714288
40
-0.12857142857142859
40
-0.1142857142857143
40
-0.10000000000000001
40
-0.085714285714285715
40
-0.071428571428571425
40
-0.057142857142857141
40
-0.042857142857142858
40
-0.028571428571428571
40
-0.014285714285714285
40
0
40
0
40
0
40
0
40
0
40
0
41
1
41
1
41
1
41
1
41
1
41
1
41
1
41
1
41
1
41
1
41
1
41
1
41
1
41
1
41
1
41
1
41
1
41
1
41
1
41
1
41
1
41
1
41
1
41
1
41
1
41
1
41
1
41
1
41
1
41
1
41
1
41
1
41
1
41
1
41
1
41
1
41
1
41
1
41
1
41
1
41
1
41
1
41
1
41
1
41
1
41
1
41
1
41
1
41
1
41
1
41
1
41
1
41
1
41
1
41
1
41
1
41
1
41
1
41
1
41
1
41
1
41
1
41
1
41
1
41
1
41
1
41
1
41
1
41
1
41
1
41
1
41
1
41
1
41
1
41
1
10
22.88260957093652
20
-12.567246823342632
30
2.2204460492503131e-15
10
22.891623525773323
20
-12.569813359052766
30
2.2204460492503131e-15
10
22.909649720283415
20
-12.574918366404438
30
2.2204460492503131e-15
10
22.936683866549764
20
-12.582491685227492
30
2.2204460492503131e-15
10
22.972719100560603
20
-12.59242100329395
30
2.2204460492503131e-15
10
23.017745877364799
20
-12.604551526334411
30
2.2204460492503131e-15
10
23.062755098584592
20
-12.616400313699645
30
2.2204460492503131e-15
10
23.107746207640826
20
-12.627966565290016
30
2.2204460492503131e-15
10
23.152718304508866
20
-12.639249324600755
30
2.2204460492503131e-15
10
23.197670046326696
20
-12.650247513324393
30
2.2204460492503131e-15
10
23.242599748141174
20
-12.660959959799179
30
2.2204460492503131e-15
10
23.287505512533158
20
-12.671385426860049
30
2.2204460492503131e-15
10
23.332385353174342
20
-12.681522643306964
30
2.2204460492503131e-15
10
23.377237311310196
20
-12.691370332518765
30
2.2204460492503131e-15
10
23.422059600090535
20
-12.700927253091951
30
2.2204460492503131e-15
10
23.466850585250011
20
-12.710192183078224
30
2.2204460492503131e-15
10
23.511608709961283
20
-12.719163886465438
30
2.2204460492503131e-15
10
23.556332435950338
20
-12.727841086135292
30
2.2204460492503131e-15
10
23.601020183719605
20
-12.736222439325767
30
2.2204460492503131e-15
10
23.645670259310606
20
-12.74430650638122
30
2.2204460492503131e-15
10
23.690280855138909
20
-12.752091761608334
30
2.2204460492503131e-15
10
23.734850093003828
20
-12.759576627201847
30
2.2204460492503131e-15
10
23.779376056196394
20
-12.766759505082257
30
2.2204460492503131e-15
10
23.823856821981636
20
-12.77363880495445
30
2.2204460492503131e-15
10
23.868290505028309
20
-12.780212993041546
30
2.2204460492503131e-15
10
23.912675250826268
20
-12.786480563490613
30
2.2204460492503131e-15
10
23.957009189794224
20
-12.792439951686298
30
2.2204460492503131e-15
10
24.001290400427735
20
-12.798089460392898
30
2.2204460492503131e-15
10
24.045516874784724
20
-12.803427195610848
30
2.2204460492503131e-15
10
24.089686469203162
20
-12.808450968830602
30
2.2204460492503131e-15
10
24.133796916281103
20
-12.813158338034889
30
2.2204460492503131e-15
10
24.177845896312856
20
-12.817546781154334
30
2.2204460492503131e-15
10
24.221831098345383
20
-12.821613849685695
30
2.2204460492503131e-15
10
24.26575027405914
20
-12.825357302084148
30
2.2204460492503131e-15
10
24.309601324065287
20
-12.828775323076725
30
2.2204460492503131e-15
10
24.353382263339412
20
-12.831866430267606
30
2.2204460492503131e-15
10
24.397091052064532
20
-12.834629033504575
30
2.2204460492503131e-15
10
24.440725449798958
20
-12.837061054739877
30
2.2204460492503131e-15
10
24.484282886615812
20
-12.839159594061901
30
2.2204460492503131e-15
10
24.527760263673819
20
-12.840920410285545
30
2.2204460492503131e-15
10
24.571154017523913
20
-12.842338097070192
30
2.2204460492503131e-15
10
24.614460491959669
20
-12.843407069418776
30
2.2204460492503131e-15
10
24.657676260692121
20
-12.844122421921965
30
2.2204460492503131e-15
10
24.700798407802374
20
-12.844480675265508
30
2.2204460492503131e-15
10
24.743824980518177
20
-12.844480980225798
30
2.2204460492503131e-15
10
24.786754800295881
20
-12.844124622007554
30
2.2204460492503131e-15
10
24.829586558782346
20
-12.843412630733923
30
2.2204460492503131e-15
10
24.872318029953512
20
-12.84234369997418
30
2.2204460492503131e-15
10
24.914945386114056
20
-12.840912381883252
30
2.2204460492503131e-15
10
24.957462099156938
20
-12.839106182038275
30
2.2204460492503131e-15
10
24.999859444553422
20
-12.836906908682597
30
2.2204460492503131e-15
10
25.042128551821989
20
-12.834296127553763
30
2.2204460492503131e-15
10
25.084262208477867
20
-12.831259961994551
30
2.2204460492503131e-15
10
25.126256395393099
20
-12.827793182947044
30
2.2204460492503131e-15
10
25.168112856214179
20
-12.82390603851157
30
2.2204460492503131e-15
10
25.209837420356497
20
-12.81961983490849
30
2.2204460492503131e-15
10
25.251435091729185
20
-12.81495395124934
30
2.2204460492503131e-15
10
25.292905674790212
20
-12.809914275919406
30
2.2204460492503131e-15
10
25.334240031297348
20
-12.804483319652435
30
2.2204460492503131e-15
10
25.375413922956017
20
-12.79860392029628
30
2.2204460492503131e-15
10
25.41639300589469
20
-12.792192556316271
30
2.2204460492503131e-15
10
25.45714383675444
20
-12.785168642946001
30
2.2204460492503131e-15
10
25.497643874478868
20
-12.77748112111736
30
2.2204460492503131e-15
10
25.537890043881877
20
-12.769131323290257
30
2.2204460492503131e-15
10
25.577912695553877
20
-12.760209929544818
30
2.2204460492503131e-15
10
25.617758552084425
20
-12.750852856881892
30
2.2204460492503131e-15
10
25.657463132236611
20
-12.741169602071029
30
2.2204460492503131e-15
10
25.697025519708344
20
-12.731177799313036
30
2.2204460492503131e-15
10
25.73638461792903
20
-12.720741476454087
30
2.2204460492503131e-15
10
25.775388101046349
20
-12.709490709524294
30
2.2204460492503131e-15
10
25.813831324547373
20
-12.696919823976629
30
2.2204460492503131e-15
10
25.843972407816608
20
-12.6853958107592
30
2.2204460492503131e-15
10
25.866160095424018
20
-12.675745036143766
30
2.2204460492503131e-15
10
25.880756739919217
20
-12.668839963639709
30
2.2204460492503131e-15
10
25.888006274691357
20
-12.665269620001604
30
2.2204460492503131e-15
0
LINE
5
186
100
AcDbEntity
8
0
100
AcDbLine
10
25.888006274691357
20
-12.665269620001606
30
2.2204460492503131e-15
11
26.583698355536207
21
-12.32264628305729
31
2.2204460492503131e-15
0
ARC
5
187
100
AcDbEntity
8
0
100
AcDbCircle
10
27.025516036761424
20
-13.219751146803262
30
2.2204460492503131e-15
40
0.99999999999995626
210
1.2767080137073976e-47
220
-2.0664218528016326e-47
230
1
100
AcDbArc
50
31.709229063836911
51
116.21991397578674
0
ARC
5
188
100
AcDbEntity
8
0
100
AcDbCircle
10
35.999999573783505
20
-7.6749999455580831
30
0
40
9.549199999999578
210
1.9781680138366699e-16
220
1.2221816916525564e-16
230
1
100
AcDbArc
50
211.70922906383686
51
214.47364026084975
0
ARC
5
189
100
AcDbEntity
8
0
100
AcDbCircle
10
27.30337956007634
20
-13.646132248327657
30
2.2204460492503131e-15
40
0.99999999999995803
210
-0
220
0
230
1
100
AcDbArc
50
-50.037044651100523
51
34.473640260848811
0
LINE
5
190
100
AcDbEntity
8
0
100
AcDbLine
10
27.945671748543809
20
-14.412592126360149
30
2.2204460492503131e-15
11
27.351292998654991
21
-14.910680596463299
31
2.2204460492503131e-15
0
SPLINE
5
191
100
AcDbEntity
8
0
100
AcDbSpline
70
4
71
5
72
81
73
75
74
0
42
0.000000001
43
0.0000000001
44
0.0000000001
40
0
40
0
40
0
40
0
40
0
40
0
40
0.014285714285714285
40
0.028571428571428571
40
0.042857142857142858
40
0.057142857142857141
40
0.071428571428571425
40
0.085714285714285715
40
0.10000000000000001
40
0.1142857142857143
40
0.12857142857142859
40
0.14285714285714288
40
0.15714285714285717
40
0.17142857142857146
40
0.18571428571428575
40
0.20000000000000004
40
0.21428571428571433
40
0.22857142857142862
40
0.24285714285714291
40
0.25714285714285717
40
0.27142857142857146
40
0.28571428571428575
40
0.30000000000000004
40
0.31428571428571433
40
0.32857142857142863
40
0.34285714285714292
40
0.35714285714285721
40
0.3714285714285715
40
0.38571428571428579
40
0.40000000000000008
40
0.41428571428571437
40
0.42857142857142866
40
0.44285714285714295
40
0.45714285714285724
40
0.47142857142857153
40
0.48571428571428582
40
0.50000000000000011
40
0.51428571428571435
40
0.52857142857142858
40
0.54285714285714282
40
0.55714285714285705
40
0.57142857142857129
40
0.58571428571428552
40
0.59999999999999976
40
0.61428571428571399
40
0.62857142857142823
40
0.64285714285714246
40
0.6571428571428567
40
0.67142857142857093
40
0.68571428571428517
40
0.6999999999999994
40
0.71428571428571364
40
0.72857142857142787
40
0.74285714285714211
40
0.75714285714285634
40
0.77142857142857058
40
0.78571428571428481
40
0.79999999999999905
40
0.81428571428571328
40
0.82857142857142752
40
0.84285714285714175
40
0.85714285714285599
40
0.87142857142857022
40
0.88571428571428445
40
0.89999999999999869
40
0.91428571428571292
40
0.92857142857142716
40
0.94285714285714139
40
0.95714285714285563
40
0.97142857142856986
40
0.9857142857142841
40
1
40
1
40
1
40
1
40
1
40
1
41
1
41
1
41
1
41
1
41
1
41
1
41
1
41
1
41
1
41
1
41
1
41
1
41
1
41
1
41
1
41
1
41
1
41
1
41
1
41
1
41
1
41
1
41
1
41
1
41
1
41
1
41
1
41
1
41
1
41
1
41
1
41
1
41
1
41
1
41
1
41
1
41
1
41
1
41
1
41
1
41
1
41
1
41
1
41
1
41
1
41
1
41
1
41
1
41
1
41
1
41
1
41
1
41
1
41
1
41
1
41
1
41
1
41
1
41
1
41
1
41
1
41
1
41
1
41
1
41
1
41
1
41
1
41
1
41
1
41
1
41
1
41
1
41
1
41
1
41
1
10
27.351292998654991
20
-14.910680596463298
30
2.2204460492503131e-15
10
27.345099210434913
20
-14.915870981380756
30
2.2204460492503131e-15
10
27.332887780967358
20
-14.926436162267256
30
2.2204460492503131e-15
10
27.315099069985123
20
-14.942837158994053
30
2.2204460492503131e-15
10
27.292384916322558
20
-14.965757782996727
30
2.2204460492503131e-15
10
27.265360482423077
20
-14.995850781667762
30
2.2204460492503131e-15
10
27.239317501095435
20
-15.026989416438084
30
2.2204460492503131e-15
10
27.213876000866346
20
-15.058782269623276
30
2.2204460492503131e-15
10
27.188759072920227
20
-15.090940605329086
30
2.2204460492503131e-15
10
27.16386699657782
20
-15.123353621914351
30
2.2204460492503131e-15
10
27.139216274313299
20
-15.15602760213272
30
2.2204460492503131e-15
10
27.114892734893129
20
-15.189039256791261
30
2.2204460492503131e-15
10
27.091001853024803
20
-15.222486215381286
30
2.2204460492503131e-15
10
27.067614330239454
20
-15.256432862130422
30
2.2204460492503131e-15
10
27.0447326273414
20
-15.290876921810987
30
2.2204460492503131e-15
10
27.02231913600848
20
-15.325777154372497
30
2.2204460492503131e-15
10
27.000313639214188
20
-15.361070422880047
30
2.2204460492503131e-15
10
26.978653596905918
20
-15.396691580652309
30
2.2204460492503131e-15
10
26.957296502799114
20
-15.432595370398881
30
2.2204460492503131e-15
10
26.936230047225788
20
-15.468766369604429
30
2.2204460492503131e-15
10
26.915459696073828
20
-15.505206777220405
30
2.2204460492503131e-15
10
26.895001157436951
20
-15.541928996668199
30
2.2204460492503131e-15
10
26.87487156904815
20
-15.578946964777378
30
2.2204460492503131e-15
10
26.855079602151658
20
-15.616266415079691
30
2.2204460492503131e-15
10
26.835622096001117
20
-15.653881559128147
30
2.2204460492503131e-15
10
26.816489268226924
20
-15.691780195004979
30
2.2204460492503131e-15
10
26.797667836514893
20
-15.729946763545533
30
2.2204460492503131e-15
10
26.779144681466146
20
-15.768365937036839
30
2.2204460492503131e-15
10
26.760911008868309
20
-15.807026697828842
30
2.2204460492503131e-15
10
26.742963380515874
20
-15.845923344254198
30
2.2204460492503131e-15
10
26.725301500145555
20
-15.885053312298016
30
2.2204460492503131e-15
10
26.707926838491804
20
-15.924415821010987
30
2.2204460492503131e-15
10
26.690841047228101
20
-15.964010311205328
30
2.2204460492503131e-15
10
26.67404413801782
20
-16.003834653476389
30
2.2204460492503131e-15
10
26.657534105351676
20
-16.043884775215279
30
2.2204460492503131e-15
10
26.641307845170068
20
-16.084155561022616
30
2.2204460492503131e-15
10
26.625361724545066
20
-16.12464141073125
30
2.2204460492503131e-15
10
26.609692236533419
20
-16.165336881176909
30
2.2204460492503131e-15
10
26.594296752504206
20
-16.206237424748373
30
2.2204460492503131e-15
10
26.579173657290148
20
-16.247339519337437
30
2.2204460492503131e-15
10
26.564321954544745
20
-16.288640276145909
30
2.2204460492503131e-15
10
26.549741013251303
20
-16.330137186936284
30
2.2204460492503131e-15
10
26.535430278846604
20
-16.37182783711151
30
2.2204460492503131e-15
10
26.521388938420948
20
-16.413709573027443
30
2.2204460492503131e-15
10
26.507615849235563
20
-16.455779432655714
30
2.2204460492503131e-15
10
26.494109704510652
20
-16.498034313094671
30
2.2204460492503131e-15
10
26.480869133699695
20
-16.540471073728032
30
2.2204460492503131e-15
10
26.467892818369755
20
-16.583086654115547
30
2.2204460492503131e-15
10
26.455179622038116
20
-16.625878209390251
30
2.2204460492503131e-15
10
26.442728622845003
20
-16.668843137775784
30
2.2204460492503131e-15
10
26.430539044032741
20
-16.711978996029256
30
2.2204460492503131e-15
10
26.41861020920237
20
-16.75528344196367
30
2.2204460492503131e-15
10
26.406941489627087
20
-16.798754170909092
30
2.2204460492503131e-15
10
26.395532243480293
20
-16.842388838723025
30
2.2204460492503131e-15
10
26.384381792334644
20
-16.88618504422146
30
2.2204460492503131e-15
10
26.373489448207927
20
-16.930140388589727
30
2.2204460492503131e-15
10
26.362854526115211
20
-16.974252516429146
30
2.2204460492503131e-15
10
26.352476360229446
20
-17.018519157987321
30
2.2204460492503131e-15
10
26.342354317549873
20
-17.062938182204974
30
2.2204460492503131e-15
10
26.33248780749636
20
-17.107507601863546
30
2.2204460492503131e-15
10
26.322876282895326
20
-17.152225493965595
30
2.2204460492503131e-15
10
26.313519241670914
20
-17.197089935139807
30
2.2204460492503131e-15
10
26.304416225884321
20
-17.24209893685082
30
2.2204460492503131e-15
10
26.295566821415019
20
-17.287250363116314
30
2.2204460492503131e-15
10
26.286970651342187
20
-17.332541906467632
30
2.2204460492503131e-15
10
26.278627354839294
20
-17.377971236399713
30
2.2204460492503131e-15
10
26.270536566313112
20
-17.423536117489014
30
2.2204460492503131e-15
10
26.262697894297624
20
-17.469234535135648
30
2.2204460492503131e-15
10
26.255110894588121
20
-17.515064825396237
30
2.2204460492503131e-15
10
26.247775055583674
20
-17.561025778638523
30
2.2204460492503131e-15
10
26.240689870079091
20
-17.607116562586896
30
2.2204460492503131e-15
10
26.235221890850575
20
-17.644092644729781
30
2.2204460492503131e-15
10
26.231233360498884
20
-17.671882784131729
30
2.2204460492503131e-15
10
26.22862430323805
20
-17.69043534753375
30
2.2204460492503131e-15
10
26.227332265351802
20
-17.699718080183775
30
2.2204460492503131e-15
0
ARC
5
192
100
AcDbEntity
8
0
100
AcDbCircle
10
35.999999573783505
20
-7.6749999455580831
30
0
40
13.999999999999396
210
1.1071265569207525e-16
220
1.1356809069836487e-16
230
1
100
AcDbArc
50
225.72942300395323
51
230.45344632073335
0
SPLINE
5
193
100
AcDbEntity
8
0
100
AcDbSpline
70
4
71
5
72
81
73
75
74
0
42
0.000000001
43
0.0000000001
44
0.0000000001
40
-1
40
-1
40
-1
40
-1
40
-1
40
-1
40
-0.9857142857142841
40
-0.97142857142856986
40
-0.95714285714285563
40
-0.94285714285714139
40
-0.92857142857142716
40
-0.91428571428571292
40
-0.89999999999999869
40
-0.88571428571428445
40
-0.87142857142857022
40
-0.85714285714285599
40
-0.84285714285714175
40
-0.82857142857142752
40
-0.81428571428571328
40
-0.79999999999999905
40
-0.78571428571428481
40
-0.77142857142857058
40
-0.75714285714285634
40
-0.74285714285714211
40
-0.72857142857142787
40
-0.71428571428571364
40
-0.6999999999999994
40
-0.68571428571428517
40
-0.67142857142857093
40
-0.6571428571428567
40
-0.64285714285714246
40
-0.62857142857142823
40
-0.61428571428571399
40
-0.59999999999999976
40
-0.58571428571428552
40
-0.57142857142857129
40
-0.55714285714285705
40
-0.54285714285714282
40
-0.52857142857142858
40
-0.51428571428571435
40
-0.50000000000000011
40
-0.48571428571428582
40
-0.47142857142857153
40
-0.45714285714285724
40
-0.44285714285714295
40
-0.42857142857142866
40
-0.41428571428571437
40
-0.40000000000000008
40
-0.38571428571428579
40
-0.3714285714285715
40
-0.35714285714285721
40
-0.34285714285714292
40
-0.32857142857142863
40
-0.31428571428571433
40
-0.30000000000000004
40
-0.28571428571428575
40
-0.27142857142857146
40
-0.25714285714285717
40
-0.24285714285714291
40
-0.22857142857142862
40
-0.21428571428571433
40
-0.20000000000000004
40
-0.18571428571428575
40
-0.17142857142857146
40
-0.15714285714285717
40
-0.14285714285714288
40
-0.12857142857142859
40
-0.1142857142857143
40
-0.10000000000000001
40
-0.085714285714285715
40
-0.071428571428571425
40
-0.057142857142857141
40
-0.042857142857142858
40
-0.028571428571428571
40
-0.014285714285714285
40
0
40
0
40
0
40
0
40
0
40
0
41
1
41
1
41
1
41
1
41
1
41
1
41
1
41
1
41
1
41
1
41
1
41
1
41
1
41
1
41
1
41
1
41
1
41
1
41
1
41
1
41
1
41
1
41
1
41
1
41
1
41
1
41
1
41
1
41
1
41
1
41
1
41
1
41
1
41
1
41
1
41
1
41
1
41
1
41
1
41
1
41
1
41
1
41
1
41
1
41
1
41
1
41
1
41
1
41
1
41
1
41
1
41
1
41
1
41
1
41
1
41
1
41
1
41
1
41
1
41
1
41
1
41
1
41
1
41
1
41
1
41
1
41
1
41
1
41
1
41
1
41
1
41
1
41
1
41
1
41
1
10
27.086130038862262
20
-18.470505024728112
30
2.2204460492503131e-15
10
27.095219620594563
20
-18.468220732434407
30
2.2204460492503131e-15
10
27.113383266649702
20
-18.463628701232413
30
2.2204460492503131e-15
10
27.140582183497507
20
-18.456670314590969
30
2.2204460492503131e-15
10
27.17675427061544
20
-18.447251739273351
30
2.2204460492503131e-15
10
27.221813864698635
20
-18.435243691985491
30
2.2204460492503131e-15
10
27.266717387362146
20
-18.42300043223792
30
2.2204460492503131e-15
10
27.311463956544472
20
-18.410521545413626
30
2.2204460492503131e-15
10
27.356052314549018
20
-18.397806653167489
30
2.2204460492503131e-15
10
27.400480759269435
20
-18.38485549308886
30
2.2204460492503131e-15
10
27.444747245662629
20
-18.371667892965476
30
2.2204460492503131e-15
10
27.488849511932877
20
-18.358243730090511
30
2.2204460492503131e-15
10
27.532785202269391
20
-18.344582896736611
30
2.2204460492503131e-15
10
27.576551982030427
20
-18.330685266694676
30
2.2204460492503131e-15
10
27.620147683056551
20
-18.316550658302837
30
2.2204460492503131e-15
10
27.66357027905833
20
-18.302178830455496
30
2.2204460492503131e-15
10
27.706817803777653
20
-18.287569491148407
30
2.2204460492503131e-15
10
27.749888286470995
20
-18.272722303501681
30
2.2204460492503131e-15
10
27.792779687872326
20
-18.257636894398086
30
2.2204460492503131e-15
10
27.835489821142755
20
-18.242312864038507
30
2.2204460492503131e-15
10
27.878016358021583
20
-18.226749794925983
30
2.2204460492503131e-15
10
27.920356883036671
20
-18.210947259741413
30
2.2204460492503131e-15
10
27.962508937229607
20
-18.194904832861852
30
2.2204460492503131e-15
10
28.004470060315505
20
-18.178622098418803
30
2.2204460492503131e-15
10
28.046237852661182
20
-18.162098670788144
30
2.2204460492503131e-15
10
28.087809955287263
20
-18.145334173118069
30
2.2204460492503131e-15
10
28.129183966781184
20
-18.128328185202566
30
2.2204460492503131e-15
10
28.170357374453427
20
-18.111080197944627
30
2.2204460492503131e-15
10
28.211327492375382
20
-18.09358957506355
30
2.2204460492503131e-15
10
28.252091369826484
20
-18.075855493085488
30
2.2204460492503131e-15
10
28.29264582217041
20
-18.057876970862427
30
2.2204460492503131e-15
10
28.332987579448424
20
-18.039652984071051
30
2.2204460492503131e-15
10
28.373113416064871
20
-18.021182567721876
30
2.2204460492503131e-15
10
28.41302026414548
20
-18.002464904739917
30
2.2204460492503131e-15
10
28.452705397929712
20
-17.983499472747084
30
2.2204460492503131e-15
10
28.492166357138089
20
-17.964285980463149
30
2.2204460492503131e-15
10
28.531400580161169
20
-17.944824070684376
30
2.2204460492503131e-15
10
28.570405087695669
20
-17.925113063989478
30
2.2204460492503131e-15
10
28.609176204163809
20
-17.905151733944763
30
2.2204460492503131e-15
10
28.64770912529778
20
-17.884937956996833
30
2.2204460492503131e-15
10
28.685998061889855
20
-17.864468832841901
30
2.2204460492503131e-15
10
28.724037055073858
20
-17.843741352833838
30
2.2204460492503131e-15
10
28.761820684891831
20
-17.822752981908035
30
2.2204460492503131e-15
10
28.79934468642681
20
-17.801502164849403
30
2.2204460492503131e-15
10
28.836606943916614
20
-17.779989142594864
30
2.2204460492503131e-15
10
28.873607079314873
20
-17.758215617436164
30
2.2204460492503131e-15
10
28.910344474616089
20
-17.736183135662703
30
2.2204460492503131e-15
10
28.946816548811537
20
-17.713891678884291
30
2.2204460492503131e-15
10
28.983017263097267
20
-17.691338442976384
30
2.2204460492503131e-15
10
29.018934716755336
20
-17.668515871504873
30
2.2204460492503131e-15
10
29.05455225824387
20
-17.645412572210752
30
2.2204460492503131e-15
10
29.089852988369323
20
-17.622017015795173
30
2.2204460492503131e-15
10
29.124823722608042
20
-17.598320790962859
30
2.2204460492503131e-15
10
29.159458365764145
20
-17.574321378780802
30
2.2204460492503131e-15
10
29.193763551929965
20
-17.550026782540961
30
2.2204460492503131e-15
10
29.227754982637514
20
-17.525452539263743
30
2.2204460492503131e-15
10
29.261446680954961
20
-17.50061292979747
30
2.2204460492503131e-15
10
29.294841421730595
20
-17.47551315140441
30
2.2204460492503131e-15
10
29.327922546381377
20
-17.450142627056803
30
2.2204460492503131e-15
10
29.360640482852382
20
-17.424463972026039
30
2.2204460492503131e-15
10
29.392923727711047
20
-17.39842202647711
30
2.2204460492503131e-15
10
29.424703025775784
20
-17.371963723634597
30
2.2204460492503131e-15
10
29.455933326385043
20
-17.345056115576636
30
2.2204460492503131e-15
10
29.486612632579508
20
-17.317701893840397
30
2.2204460492503131e-15
10
29.516812568781553
20
-17.289964414383675
30
2.2204460492503131e-15
10
29.546641556441102
20
-17.26193802348725
30
2.2204460492503131e-15
10
29.576185104094055
20
-17.23369978875364
30
2.2204460492503131e-15
10
29.605451235299938
20
-17.205265439999746
30
2.2204460492503131e-15
10
29.634319052799633
20
-17.176547770171453
30
2.2204460492503131e-15
10
29.662471676550407
20
-17.147302578639533
30
2.2204460492503131e-15
10
29.689479041931829
20
-17.117194260656682
30
2.2204460492503131e-15
10
29.709819979131854
20
-17.092143630822221
30
2.2204460492503131e-15
10
29.724209692943386
20
-17.072691971035354
30
2.2204460492503131e-15
10
29.733398221634211
20
-17.059413680584264
30
2.2204460492503131e-15
10
29.737891331093451
20
-17.052696904907357
30
2.2204460492503131e-15
0
LINE
5
194
100
AcDbEntity
8
0
100
AcDbLine
10
29.737891331093444
20
-17.052696904907357
30
2.2204460492503131e-15
11
30.16906667784459
21
-16.408130350761759
31
2.2204460492503131e-15
0
ARC
5
195
100
AcDbEntity
8
0
100
AcDbCircle
10
31.000244445499749
20
-16.964137112011741
30
2.2204460492503131e-15
40
0.99999999999995626
210
1.0523723620575614e-15
220
1.9552219999808578e-15
230
1
100
AcDbArc
50
61.709229063836943
51
146.21991397578665
0
CIRCLE
5
196
100
AcDbEntity
8
0
100
AcDbCircle
10
35.999999573783505
20
-7.6749999455580831
30
0
40
2.0249999999999133
210
-7.302070087085153e-33
220
-4.7586042501320359e-33
230
1
0
ENDSEC
0
SECTION
2
OBJECTS
0
DICTIONARY
5
C
100
AcDbDictionary
3
ACAD_GROUP
350
D
3
ACAD_MLINESTYLE
350
17
0
DICTIONARY
5
D
100
AcDbDictionary
0
DICTIONARY
5
1A
330
C
100
AcDbDictionary
0
DICTIONARY
5
17
100
AcDbDictionary
0
ENDSEC
0
EOF
