  0
SECTION
  2
HEADER
  9
$ACADVER
  1
AC1015
  9
$ACADMAINTVER
 70
     6
  9
$DWGCODEPAGE
  3
ANSI_1252
  9
$INSBASE
 10
0.0
 20
0.0
 30
0.0
  9
$EXTMIN
 10
-29.9223677256
 20
-30.1270946307
 30
0.0
  9
$EXTMAX
 10
29.922367497
 20
28.8084648186
 30
0.0
  9
$LIMMIN
 10
0.0
 20
0.0
  9
$LIMMAX
 10
420.0
 20
297.0
  9
$ORTHOMODE
 70
     0
  9
$REGENMODE
 70
     1
  9
$FILLMODE
 70
     1
  9
$QTEXTMODE
 70
     0
  9
$MIRRTEXT
 70
     1
  9
$LTSCALE
 40
1.0
  9
$ATTMODE
 70
     1
  9
$TEXTSIZE
 40
3.5
  9
$TRACEWID
 40
1.0
  9
$TEXTSTYLE
  7
Standard
  9
$CLAYER
  8
0
  9
$CELTYPE
  6
ByLayer
  9
$CECOLOR
 62
   256
  9
$CELTSCALE
 40
1.0
  9
$DISPSILH
 70
     0
  9
$DIMSCALE
 40
1.0
  9
$DIMASZ
 40
3.556
  9
$DIMEXO
 40
1.0
  9
$DIMDLI
 40
3.75
  9
$DIMRND
 40
0.0
  9
$DIMDLE
 40
0.0
  9
$DIMEXE
 40
1.0
  9
$DIMTP
 40
0.0
  9
$DIMTM
 40
0.0
  9
$DIMTXT
 40
3.5
  9
$DIMCEN
 40
2.5
  9
$DIMTSZ
 40
0.0
  9
$DIMTOL
 70
     0
  9
$DIMLIM
 70
     0
  9
$DIMTIH
 70
     1
  9
$DIMTOH
 70
     1
  9
$DIMSE1
 70
     0
  9
$DIMSE2
 70
     0
  9
$DIMTAD
 70
     1
  9
$DIMZIN
 70
     1
  9
$DIMBLK
  1

  9
$DIMASO
 70
     1
  9
$DIMSHO
 70
     1
  9
$DIMPOST
  1

  9
$DIMAPOST
  1

  9
$DIMALT
 70
     0
  9
$DIMALTD
 70
     3
  9
$DIMALTF
 40
0.0393700787
  9
$DIMLFAC
 40
1.0
  9
$DIMTOFL
 70
     1
  9
$DIMTVP
 40
0.0
  9
$DIMTIX
 70
     0
  9
$DIMSOXD
 70
     0
  9
$DIMSAH
 70
     0
  9
$DIMBLK1
  1

  9
$DIMBLK2
  1

  9
$DIMSTYLE
  2
ISO-25
  9
$DIMCLRD
 70
     0
  9
$DIMCLRE
 70
     0
  9
$DIMCLRT
 70
     0
  9
$DIMTFAC
 40
1.0
  9
$DIMGAP
 40
1.524
  9
$DIMJUST
 70
     0
  9
$DIMSD1
 70
     0
  9
$DIMSD2
 70
     0
  9
$DIMTOLJ
 70
     0
  9
$DIMTZIN
 70
     1
  9
$DIMALTZ
 70
     0
  9
$DIMALTTZ
 70
     0
  9
$DIMUPT
 70
     0
  9
$DIMDEC
 70
     2
  9
$DIMTDEC
 70
     2
  9
$DIMALTU
 70
     2
  9
$DIMALTTD
 70
     3
  9
$DIMTXSTY
  7
Standard
  9
$DIMAUNIT
 70
     0
  9
$DIMADEC
 70
     2
  9
$DIMALTRND
 40
0.0
  9
$DIMAZIN
 70
     0
  9
$DIMDSEP
 70
    44
  9
$DIMATFIT
 70
     3
  9
$DIMFRAC
 70
     0
  9
$DIMLDRBLK
  1

  9
$DIMLUNIT
 70
     2
  9
$DIMLWD
 70
    -2
  9
$DIMLWE
 70
    -2
  9
$DIMTMOVE
 70
     0
  9
$LUNITS
 70
     2
  9
$LUPREC
 70
     2
  9
$SKETCHINC
 40
1.0
  9
$FILLETRAD
 40
10.0
  9
$AUNITS
 70
     0
  9
$AUPREC
 70
     2
  9
$MENU
  1
.
  9
$ELEVATION
 40
0.0
  9
$PELEVATION
 40
0.0
  9
$THICKNESS
 40
0.0
  9
$LIMCHECK
 70
     0
  9
$CHAMFERA
 40
0.0
  9
$CHAMFERB
 40
0.0
  9
$CHAMFERC
 40
0.0
  9
$CHAMFERD
 40
0.0
  9
$SKPOLY
 70
     0
  9
$TDCREATE
 40
2458757.778664688
  9
$TDUCREATE
 40
2458757.903664688
  9
$TDUPDATE
 40
2458757.778679387
  9
$TDUUPDATE
 40
2458757.903679387
  9
$TDINDWG
 40
0.0000000116
  9
$TDUSRTIMER
 40
0.0000000116
  9
$USRTIMER
 70
     1
  9
$ANGBASE
 50
0.0
  9
$ANGDIR
 70
     0
  9
$PDMODE
 70
     0
  9
$PDSIZE
 40
-1.0
  9
$PLINEWID
 40
0.0
  9
$SPLFRAME
 70
     0
  9
$SPLINETYPE
 70
     6
  9
$SPLINESEGS
 70
     8
  9
$HANDSEED
  5
B6
  9
$SURFTAB1
 70
     6
  9
$SURFTAB2
 70
     6
  9
$SURFTYPE
 70
     6
  9
$SURFU
 70
     6
  9
$SURFV
 70
     6
  9
$UCSBASE
  2

  9
$UCSNAME
  2

  9
$UCSORG
 10
0.0
 20
0.0
 30
0.0
  9
$UCSXDIR
 10
1.0
 20
0.0
 30
0.0
  9
$UCSYDIR
 10
0.0
 20
1.0
 30
0.0
  9
$UCSORTHOREF
  2

  9
$UCSORTHOVIEW
 70
     0
  9
$UCSORGTOP
 10
0.0
 20
0.0
 30
0.0
  9
$UCSORGBOTTOM
 10
0.0
 20
0.0
 30
0.0
  9
$UCSORGLEFT
 10
0.0
 20
0.0
 30
0.0
  9
$UCSORGRIGHT
 10
0.0
 20
0.0
 30
0.0
  9
$UCSORGFRONT
 10
0.0
 20
0.0
 30
0.0
  9
$UCSORGBACK
 10
0.0
 20
0.0
 30
0.0
  9
$PUCSBASE
  2

  9
$PUCSNAME
  2

  9
$PUCSORG
 10
0.0
 20
0.0
 30
0.0
  9
$PUCSXDIR
 10
1.0
 20
0.0
 30
0.0
  9
$PUCSYDIR
 10
0.0
 20
1.0
 30
0.0
  9
$PUCSORTHOREF
  2

  9
$PUCSORTHOVIEW
 70
     0
  9
$PUCSORGTOP
 10
0.0
 20
0.0
 30
0.0
  9
$PUCSORGBOTTOM
 10
0.0
 20
0.0
 30
0.0
  9
$PUCSORGLEFT
 10
0.0
 20
0.0
 30
0.0
  9
$PUCSORGRIGHT
 10
0.0
 20
0.0
 30
0.0
  9
$PUCSORGFRONT
 10
0.0
 20
0.0
 30
0.0
  9
$PUCSORGBACK
 10
0.0
 20
0.0
 30
0.0
  9
$USERI1
 70
     0
  9
$USERI2
 70
     0
  9
$USERI3
 70
     0
  9
$USERI4
 70
     0
  9
$USERI5
 70
     0
  9
$USERR1
 40
0.0
  9
$USERR2
 40
0.0
  9
$USERR3
 40
0.0
  9
$USERR4
 40
0.0
  9
$USERR5
 40
0.0
  9
$WORLDVIEW
 70
     1
  9
$SHADEDGE
 70
     3
  9
$SHADEDIF
 70
    70
  9
$TILEMODE
 70
     1
  9
$MAXACTVP
 70
    64
  9
$PINSBASE
 10
0.0
 20
0.0
 30
0.0
  9
$PLIMCHECK
 70
     0
  9
$PEXTMIN
 10
1.0000000000E+20
 20
1.0000000000E+20
 30
1.0000000000E+20
  9
$PEXTMAX
 10
-1.0000000000E+20
 20
-1.0000000000E+20
 30
-1.0000000000E+20
  9
$PLIMMIN
 10
0.0
 20
0.0
  9
$PLIMMAX
 10
420.0
 20
297.0
  9
$UNITMODE
 70
     0
  9
$VISRETAIN
 70
     1
  9
$PLINEGEN
 70
     0
  9
$PSLTSCALE
 70
     1
  9
$TREEDEPTH
 70
  3020
  9
$CMLSTYLE
  2
Standard
  9
$CMLJUST
 70
     0
  9
$CMLSCALE
 40
20.0
  9
$PROXYGRAPHICS
 70
     1
  9
$MEASUREMENT
 70
     1
  9
$CELWEIGHT
370
    -1
  9
$ENDCAPS
280
     0
  9
$JOINSTYLE
280
     0
  9
$LWDISPLAY
290
     1
  9
$INSUNITS
 70
     4
  9
$HYPERLINKBASE
  1

  9
$STYLESHEET
  1

  9
$XEDIT
290
     1
  9
$CEPSNTYPE
380
     0
  9
$PSTYLEMODE
290
     1
  9
$FINGERPRINTGUID
  2
{464DFB42-9862-4C13-80BD-658C943558DE}
  9
$VERSIONGUID
  2
{FAEB1C32-E019-11D5-929B-00C0DF256EC4}
  9
$EXTNAMES
290
     1
  9
$PSVPSCALE
 40
0.0
  9
$OLESTARTUP
290
     0
  0
ENDSEC
  0
SECTION
  2
CLASSES
  0
CLASS
  1
ACDBDICTIONARYWDFLT
  2
AcDbDictionaryWithDefault
  3
ObjectDBX Classes
 90
        0
280
     0
281
     0
  0
CLASS
  1
VISUALSTYLE
  2
AcDbVisualStyle
  3
ObjectDBX Classes
 90
     4095
280
     0
281
     0
  0
CLASS
  1
MATERIAL
  2
AcDbMaterial
  3
ObjectDBX Classes
 90
     1153
280
     0
281
     0
  0
CLASS
  1
SCALE
  2
AcDbScale
  3
ObjectDBX Classes
 90
     1153
280
     0
281
     0
  0
CLASS
  1
TABLESTYLE
  2
AcDbTableStyle
  3
ObjectDBX Classes
 90
     4095
280
     0
281
     0
  0
CLASS
  1
MLEADERSTYLE
  2
AcDbMLeaderStyle
  3
ACDB_MLEADERSTYLE_CLASS
 90
     4095
280
     0
281
     0
  0
CLASS
  1
SUN
  2
AcDbSun
  3
SCENEOE
 90
     1153
280
     0
281
     0
  0
CLASS
  1
ACDBPLACEHOLDER
  2
AcDbPlaceHolder
  3
ObjectDBX Classes
 90
        0
280
     0
281
     0
  0
CLASS
  1
LAYOUT
  2
AcDbLayout
  3
ObjectDBX Classes
 90
        0
280
     0
281
     0
  0
ENDSEC
  0
SECTION
  2
TABLES
  0
TABLE
  2
VPORT
  5
8
330
0
100
AcDbSymbolTable
 70
     1
  0
VPORT
  5
29
330
8
100
AcDbSymbolTableRecord
100
AcDbViewportTableRecord
  2
*Active
 70
     0
 10
0.0
 20
0.0
 11
1.0
 21
1.0
 12
-0.0000001143
 22
-0.659314906
 13
0.0
 23
0.0
 14
10.0
 24
10.0
 15
10.0
 25
10.0
 16
0.0
 26
0.0
 36
1.0
 17
0.0
 27
0.0
 37
0.0
 40
60.1142706384
 41
1.015426608
 42
50.0
 43
0.0
 44
0.0
 50
0.0
 51
0.0
 71
     0
 72
   100
 73
     1
 74
     3
 75
     0
 76
     0
 77
     0
 78
     0
281
     0
 65
     1
110
0.0
120
0.0
130
0.0
111
1.0
121
0.0
131
0.0
112
0.0
122
1.0
132
0.0
 79
     0
146
0.0
  0
ENDTAB
  0
TABLE
  2
LTYPE
  5
5
330
0
100
AcDbSymbolTable
 70
     6
  0
LTYPE
  5
14
330
5
100
AcDbSymbolTableRecord
100
AcDbLinetypeTableRecord
  2
ByBlock
 70
     0
  3

 72
    65
 73
     0
 40
0.0
  0
LTYPE
  5
15
330
5
100
AcDbSymbolTableRecord
100
AcDbLinetypeTableRecord
  2
ByLayer
 70
     0
  3

 72
    65
 73
     0
 40
0.0
  0
LTYPE
  5
16
330
5
100
AcDbSymbolTableRecord
100
AcDbLinetypeTableRecord
  2
Continuous
 70
     0
  3
Solid line
 72
    65
 73
     0
 40
0.0
  0
LTYPE
  5
6E
330
5
100
AcDbSymbolTableRecord
100
AcDbLinetypeTableRecord
  2
HIDDEN
 70
     0
  3
Hidden __ __ __ __ __ __ __ __ __ __ __ __ __ __
 72
    65
 73
     2
 40
1.905
 49
1.27
 74
     0
 49
-0.635
 74
     0
  0
LTYPE
  5
6F
330
5
100
AcDbSymbolTableRecord
100
AcDbLinetypeTableRecord
  2
PHANTOM
 70
     0
  3
Phantom ______  __  __  ______  __  __  ______
 72
    65
 73
     6
 40
12.7
 49
6.35
 74
     0
 49
-1.27
 74
     0
 49
1.27
 74
     0
 49
-1.27
 74
     0
 49
1.27
 74
     0
 49
-1.27
 74
     0
  0
LTYPE
  5
70
330
5
100
AcDbSymbolTableRecord
100
AcDbLinetypeTableRecord
  2
CENTER
 70
     0
  3
Center ____ _ ____ _ ____ _ ____ _ ____ _ ____
 72
    65
 73
     4
 40
10.16
 49
6.35
 74
     0
 49
-1.27
 74
     0
 49
1.27
 74
     0
 49
-1.27
 74
     0
  0
LTYPE
  5
71
330
5
100
AcDbSymbolTableRecord
100
AcDbLinetypeTableRecord
  2
CENTERX2
 70
     0
  3
Center (2x) ________  __  ________  __  _____
 72
    65
 73
     4
 40
20.32
 49
12.7
 74
     0
 49
-2.54
 74
     0
 49
2.54
 74
     0
 49
-2.54
 74
     0
  0
LTYPE
  5
72
330
5
100
AcDbSymbolTableRecord
100
AcDbLinetypeTableRecord
  2
DOT2
 70
     0
  3
Dot (.5x) ........................................
 72
    65
 73
     2
 40
0.635
 49
0.0
 74
     0
 49
-0.635
 74
     0
  0
ENDTAB
  0
TABLE
  2
LAYER
  5
2
330
0
100
AcDbSymbolTable
 70
     1
  0
LAYER
  5
10
330
2
100
AcDbSymbolTableRecord
100
AcDbLayerTableRecord
  2
0
 70
     0
 62
     7
  6
Continuous
370
    -3
390
F
  0
ENDTAB
  0
TABLE
  2
STYLE
  5
3
330
0
100
AcDbSymbolTable
 70
     2
  0
STYLE
  5
11
330
3
100
AcDbSymbolTableRecord
100
AcDbTextStyleTableRecord
  2
Standard
 70
     0
 40
0.0
 41
1.0
 50
0.0
 71
     0
 42
3.5
  3
txt
  4

  0
STYLE
  5
B3
330
3
100
AcDbSymbolTableRecord
100
AcDbTextStyleTableRecord
  2
SLDTEXTSTYLE0
 70
     0
 40
0.0
 41
0.7
 50
0.0
 71
     0
 42
3.5
  3
TXT
  4

  0
ENDTAB
  0
TABLE
  2
VIEW
  5
6
330
0
100
AcDbSymbolTable
 70
     0
  0
ENDTAB
  0
TABLE
  2
UCS
  5
7
330
0
100
AcDbSymbolTable
 70
     0
  0
ENDTAB
  0
TABLE
  2
APPID
  5
9
330
0
100
AcDbSymbolTable
 70
     1
  0
APPID
  5
12
330
9
100
AcDbSymbolTableRecord
100
AcDbRegAppTableRecord
  2
ACAD
 70
     0
  0
ENDTAB
  0
TABLE
  2
DIMSTYLE
  5
A
330
0
100
AcDbSymbolTable
 70
     1
100
AcDbDimStyleTable
  0
DIMSTYLE
105
27
330
A
100
AcDbSymbolTableRecord
100
AcDbDimStyleTableRecord
  2
ISO-25
 70
     0
 41
2.5
 42
0.625
 43
3.75
 44
1.25
 73
     0
 74
     0
 77
     1
 78
     8
140
2.5
141
2.5
143
0.0393700787
147
0.625
171
     3
172
     1
178
     0
271
     2
272
     2
274
     3
278
    44
283
     0
284
     8
340
11
  0
ENDTAB
  0
TABLE
  2
BLOCK_RECORD
  5
1
330
0
100
AcDbSymbolTable
 70
     1
  0
BLOCK_RECORD
  5
1F
330
1
100
AcDbSymbolTableRecord
100
AcDbBlockTableRecord
  2
*Model_Space
340
22
  0
BLOCK_RECORD
  5
1B
330
1
100
AcDbSymbolTableRecord
100
AcDbBlockTableRecord
  2
*Paper_Space
340
1E
  0
BLOCK_RECORD
  5
23
330
1
100
AcDbSymbolTableRecord
100
AcDbBlockTableRecord
  2
*Paper_Space0
340
26
  0
ENDTAB
  0
ENDSEC
  0
SECTION
  2
BLOCKS
  0
BLOCK
  5
20
330
1F
100
AcDbEntity
  8
0
100
AcDbBlockBegin
  2
*Model_Space
 70
     0
 10
0.0
 20
0.0
 30
0.0
  3
*Model_Space
  1

  0
ENDBLK
  5
21
330
1F
100
AcDbEntity
  8
0
100
AcDbBlockEnd
  0
BLOCK
  5
1C
330
1B
100
AcDbEntity
 67
     1
  8
0
100
AcDbBlockBegin
  2
*Paper_Space
 70
     0
 10
0.0
 20
0.0
 30
0.0
  3
*Paper_Space
  1

  0
ENDBLK
  5
1D
330
1B
100
AcDbEntity
 67
     1
  8
0
100
AcDbBlockEnd
  0
BLOCK
  5
24
330
23
100
AcDbEntity
  8
0
100
AcDbBlockBegin
  2
*Paper_Space0
 70
     0
 10
0.0
 20
0.0
 30
0.0
  3
*Paper_Space0
  1

  0
ENDBLK
  5
25
330
23
100
AcDbEntity
  8
0
100
AcDbBlockEnd
  0
ENDSEC
  0
SECTION
  2
ENTITIES
  0
SPLINE
  5
73
330
1F
100
AcDbEntity
  8
0
  6
Continuous
 62
     7
370
    25
100
AcDbSpline
210
0.0
220
0.0
230
1.0
 70
     8
 71
     3
 72
    15
 73
    11
 74
     0
 42
0.000000001
 43
0.00000001
 40
-0.0029671453419464
 40
-0.0029671453419464
 40
-0.0029671453419464
 40
-0.0029671453419464
 40
0.0593507398577789
 40
0.1216686250575042
 40
0.2463043954569549
 40
0.4955759362558561
 40
0.7448474770547574
 40
0.869483247454208
 40
0.9318011326539333
 40
0.9941190178536586
 40
0.9941190178536586
 40
0.9941190178536586
 40
0.9941190178536586
 10
-14.45922022310813
 20
-10.55461499735862
 30
0.0
 10
-14.43986667067931
 20
-10.68674904915733
 30
0.0
 10
-14.39815910593465
 20
-10.94958918526725
 30
0.0
 10
-14.45528707485227
 20
-11.50158628684611
 30
0.0
 10
-14.75518017160751
 20
-12.38279224123468
 30
0.0
 10
-15.5913629065687
 20
-13.4419042734666
 30
0.0
 10
-16.64316544560201
 20
-14.23467933187986
 30
0.0
 10
-17.44357602330438
 20
-14.67938229259662
 30
0.0
 10
-17.92011767203232
 20
-14.91031163527092
 30
0.0
 10
-18.14836863759584
 20
-14.99916779167649
 30
0.0
 10
-18.25364137679727
 20
-15.06523139282461
 30
0.0
  0
SPLINE
  5
74
330
1F
100
AcDbEntity
  8
0
  6
Continuous
 62
     7
370
    25
100
AcDbSpline
210
0.0
220
0.0
230
1.0
 70
     8
 71
     3
 72
    10
 73
     6
 74
     0
 42
0.000000001
 43
0.00000001
 40
0.002190857420388
 40
0.002190857420388
 40
0.002190857420388
 40
0.002190857420388
 40
0.2499885451601025
 40
0.4977862328998169
 40
0.9933816083792458
 40
0.9933816083792458
 40
0.9933816083792458
 40
0.9933816083792458
 10
-18.25364137679727
 20
-15.06523139282461
 30
0.0
 10
-18.64255732694586
 20
-15.54637367601606
 30
0.0
 10
-19.26935854580076
 20
-16.62633439259246
 30
0.0
 10
-20.12906306848331
 20
-18.97357802360103
 30
0.0
 10
-20.41516788414846
 20
-20.8427487524376
 30
0.0
 10
-20.48951365140533
 20
-22.08685138393357
 30
0.0
  0
LINE
  5
75
330
1F
100
AcDbEntity
  8
0
  6
Continuous
 62
     7
370
    25
100
AcDbLine
 10
-20.4895136514
 20
-22.0868513839
 30
0.0
 11
-18.2493479936
 21
-24.0151078818
 31
0.0
  0
SPLINE
  5
76
330
1F
100
AcDbEntity
  8
0
  6
Continuous
 62
     7
370
    25
100
AcDbSpline
210
0.0
220
0.0
230
1.0
 70
     8
 71
     3
 72
    10
 73
     6
 74
     0
 42
0.000000001
 43
0.00000001
 40
0.0066183905580249
 40
0.0066183905580249
 40
0.0066183905580249
 40
0.0066183905580249
 40
0.5022137642164868
 40
0.7500114510457176
 40
0.9978091378749486
 40
0.9978091378749486
 40
0.9978091378749486
 40
0.9978091378749486
 10
-18.24934799356625
 20
-24.01510788177769
 30
0.0
 10
-17.0370560342989
 20
-23.72585566910137
 30
0.0
 10
-15.24596388597502
 20
-23.11951918536314
 30
0.0
 10
-13.08366600856467
 20
-21.86528125396421
 30
0.0
 10
-12.12895538805844
 20
-21.06046916405191
 30
0.0
 10
-11.72265707088865
 20
-20.59391240944669
 30
0.0
  0
SPLINE
  5
77
330
1F
100
AcDbEntity
  8
0
  6
Continuous
 62
     7
370
    25
100
AcDbSpline
210
0.0
220
0.0
230
1.0
 70
     8
 71
     3
 72
    15
 73
    11
 74
     0
 42
0.000000001
 43
0.00000001
 40
0.0026759238147864
 40
0.0026759238147864
 40
0.0026759238147864
 40
0.0026759238147864
 40
0.0651941251301275
 40
0.1277123264454686
 40
0.2527487290761508
 40
0.5028215343375153
 40
0.7528943395988797
 40
0.8779307422295619
 40
0.940448943544903
 40
1.002967144860244
 40
1.002967144860244
 40
1.002967144860244
 40
1.002967144860244
 10
-11.72265707088865
 20
-20.59391240944669
 30
0.0
 10
-11.67572983439672
 20
-20.47840351094801
 30
0.0
 10
-11.62350828555219
 20
-20.23861251437684
 30
0.0
 10
-11.48138729808404
 20
-19.72683867323351
 30
0.0
 10
-11.18230579609952
 20
-18.85817284236273
 30
0.0
 10
-10.58507248737754
 20
-17.68024523260667
 30
0.0
 10
-9.686612970287129
 20
-16.66820244598385
 30
0.0
 10
-8.867852280248135
 20
-16.2170589245132
 30
0.0
 10
-8.332803929371785
 20
-16.06392950082102
 30
0.0
 10
-8.06585028779839
 20
-16.05928375442361
 30
0.0
 10
-7.931949119001925
 20
-16.05538641569774
 30
0.0
  0
LINE
  5
78
330
1F
100
AcDbEntity
  8
0
  6
Continuous
 62
     7
370
    25
100
AcDbLine
 10
-7.931949119
 20
-16.0553864157
 30
0.0
 11
-6.0794058614
 21
-16.7030284785
 31
0.0
  0
LINE
  5
79
330
1F
100
AcDbEntity
  8
0
  6
Continuous
 62
     7
370
    25
100
AcDbLine
 10
-6.0794058614
 20
-16.7030284785
 30
0.0
 11
-4.243978962
 21
-17.3976978852
 31
0.0
  0
SPLINE
  5
7A
330
1F
100
AcDbEntity
  8
0
  6
Continuous
 62
     7
370
    25
100
AcDbSpline
210
0.0
220
0.0
230
1.0
 70
     8
 71
     3
 72
    15
 73
    11
 74
     0
 42
0.000000001
 43
0.00000001
 40
-0.0029671453419498
 40
-0.0029671453419498
 40
-0.0029671453419498
 40
-0.0029671453419498
 40
0.0595510563648382
 40
0.1220692580716262
 40
0.2471056614852022
 40
0.4971784683123543
 40
0.7472512751395064
 40
0.8722876785530824
 40
0.9348058802598704
 40
0.9973240819666584
 40
0.9973240819666584
 40
0.9973240819666584
 40
0.9973240819666584
 10
-4.24397896200654
 20
-17.39769788521162
 30
0.0
 10
-4.14390988744671
 20
-17.48675344247966
 30
0.0
 10
-3.942397783257814
 20
-17.66190679113603
 30
0.0
 10
-3.630956632582333
 20
-18.12313321165005
 30
0.0
 10
-3.293739179793024
 20
-18.99501846201582
 30
0.0
 10
-3.256007771533917
 20
-20.34780689847227
 30
0.0
 10
-3.555657969443238
 20
-21.63404597139574
 30
0.0
 10
-3.884915838903924
 20
-22.49172837482422
 30
0.0
 10
-4.105006856144612
 20
-22.97512360467667
 30
0.0
 10
-4.21913748191726
 20
-23.19238146989045
 30
0.0
 10
-4.257436785706783
 20
-23.31103065989587
 30
0.0
  0
SPLINE
  5
7B
330
1F
100
AcDbEntity
  8
0
  6
Continuous
 62
     7
370
    25
100
AcDbSpline
210
0.0
220
0.0
230
1.0
 70
     8
 71
     3
 72
    10
 73
     6
 74
     0
 42
0.000000001
 43
0.00000001
 40
0.0021908574203933
 40
0.0021908574203933
 40
0.0021908574203933
 40
0.0021908574203933
 40
0.2499885451601055
 40
0.4977862328998178
 40
0.9933816083792424
 40
0.9933816083792424
 40
0.9933816083792424
 40
0.9933816083792424
 10
-4.257436785706783
 20
-23.31103065989587
 30
0.0
 10
-4.246091390026464
 20
-23.92959738624924
 30
0.0
 10
-4.032063613107227
 20
-25.15979534918575
 30
0.0
 10
-3.181856362504297
 20
-27.51049570453808
 30
0.0
 10
-2.19954558180922
 20
-29.12626818518509
 30
0.0
 10
-1.456803986981791
 20
-30.12709463073767
 30
0.0
  0
LINE
  5
7C
330
1F
100
AcDbEntity
  8
0
  6
Continuous
 62
     7
370
    25
100
AcDbLine
 10
-1.456803987
 20
-30.1270946307
 30
0.0
 11
1.4568021707
 21
-30.1270946307
 31
0.0
  0
SPLINE
  5
7D
330
1F
100
AcDbEntity
  8
0
  6
Continuous
 62
     7
370
    25
100
AcDbSpline
210
0.0
220
0.0
230
1.0
 70
     8
 71
     3
 72
    10
 73
     6
 74
     0
 42
0.000000001
 43
0.00000001
 40
0.0066183905580253
 40
0.0066183905580253
 40
0.0066183905580253
 40
0.0066183905580253
 40
0.5022137642164917
 40
0.7500114510457248
 40
0.997809137874958
 40
0.997809137874958
 40
0.997809137874958
 40
0.997809137874958
 10
1.45680217067639
 20
-30.12709463073767
 30
0.0
 10
2.199543951128442
 20
-29.12626832981759
 30
0.0
 10
3.18185455941799
 20
-27.51049579504001
 30
0.0
 10
4.032062230873891
 20
-25.15979551329193
 30
0.0
 10
4.246089756978216
 20
-23.92959752636211
 30
0.0
 10
4.257435424018631
 20
-23.31103079298393
 30
0.0
  0
SPLINE
  5
7E
330
1F
100
AcDbEntity
  8
0
  6
Continuous
 62
     7
370
    25
100
AcDbSpline
210
0.0
220
0.0
230
1.0
 70
     8
 71
     3
 72
    15
 73
    11
 74
     0
 42
0.000000001
 43
0.00000001
 40
0.0026759238147799
 40
0.0026759238147799
 40
0.0026759238147799
 40
0.0026759238147799
 40
0.0651941251301218
 40
0.1277123264454636
 40
0.2527487290761473
 40
0.5028215343375148
 40
0.7528943395988821
 40
0.8779307422295658
 40
0.9404489435449077
 40
1.00296714486025
 40
1.00296714486025
 40
1.00296714486025
 40
1.00296714486025
 10
4.257435424018631
 20
-23.31103079298393
 30
0.0
 10
4.219136084000792
 20
-23.19238159698437
 30
0.0
 10
4.105005429793813
 20
-22.97512367199522
 30
0.0
 10
3.884914538445767
 20
-22.49172855503275
 30
0.0
 10
3.555656628038875
 20
-21.63404603860484
 30
0.0
 10
3.256006612772027
 20
-20.34780696781617
 30
0.0
 10
3.293737969492688
 20
-18.99501856953442
 30
0.0
 10
3.630955580549652
 20
-18.12313335500723
 30
0.0
 10
3.942396700310689
 20
-17.66190696038327
 30
0.0
 10
4.143908825786334
 20
-17.48675361900736
 30
0.0
 10
4.243977911026215
 20
-17.39769807210852
 30
0.0
  0
LINE
  5
7F
330
1F
100
AcDbEntity
  8
0
  6
Continuous
 62
     7
370
    25
100
AcDbLine
 10
4.243977911
 20
-17.3976980721
 30
0.0
 11
6.0794046726
 21
-16.7030288231
 31
0.0
  0
LINE
  5
80
330
1F
100
AcDbEntity
  8
0
  6
Continuous
 62
     7
370
    25
100
AcDbLine
 10
6.0794046726
 20
-16.7030288231
 30
0.0
 11
7.9319481371
 21
-16.0553867925
 31
0.0
  0
SPLINE
  5
81
330
1F
100
AcDbEntity
  8
0
  6
Continuous
 62
     7
370
    25
100
AcDbSpline
210
0.0
220
0.0
230
1.0
 70
     8
 71
     3
 72
    15
 73
    11
 74
     0
 42
0.000000001
 43
0.00000001
 40
-0.0029671453419546
 40
-0.0029671453419546
 40
-0.0029671453419546
 40
-0.0029671453419546
 40
0.0595510563648335
 40
0.1220692580716216
 40
0.2471056614851978
 40
0.4971784683123501
 40
0.7472512751395024
 40
0.8722876785530786
 40
0.9348058802598667
 40
0.9973240819666548
 40
0.9973240819666548
 40
0.9973240819666548
 40
0.9973240819666548
 10
7.931948137124738
 20
-16.05538679245422
 30
0.0
 10
8.065849304404981
 20
-16.05928414598844
 30
0.0
 10
8.332802934351504
 20
-16.06392991164582
 30
0.0
 10
8.867851325551541
 20
-16.21705933529953
 30
0.0
 10
9.686611917387063
 20
-16.66820298595658
 30
0.0
 10
10.58507149849647
 20
-17.6802457686947
 30
0.0
 10
11.18230466867843
 20
-18.85817349748647
 30
0.0
 10
11.48138612939487
 20
-19.72683921547486
 30
0.0
 10
11.62350709298797
 20
-20.2386132240192
 30
0.0
 10
11.6757286251915
 20
-20.47840415652252
 30
0.0
 10
11.72265588558304
 20
-20.59391302714226
 30
0.0
  0
SPLINE
  5
82
330
1F
100
AcDbEntity
  8
0
  6
Continuous
 62
     7
370
    25
100
AcDbSpline
210
0.0
220
0.0
230
1.0
 70
     8
 71
     3
 72
    10
 73
     6
 74
     0
 42
0.000000001
 43
0.00000001
 40
0.0021908574203934
 40
0.0021908574203934
 40
0.0021908574203934
 40
0.0021908574203934
 40
0.2499885451601049
 40
0.4977862328998163
 40
0.9933816083792393
 40
0.9933816083792393
 40
0.9933816083792393
 40
0.9933816083792393
 10
11.72265588558304
 20
-20.59391302714226
 30
0.0
 10
12.1289539903634
 20
-21.06046995079315
 30
0.0
 10
13.08366478758251
 20
-21.86528186110471
 30
0.0
 10
15.24596238991264
 20
-23.11952011940684
 30
0.0
 10
17.0370546355123
 20
-23.72585645085886
 30
0.0
 10
18.249346545551
 20
-24.01510889364696
 30
0.0
  0
LINE
  5
83
330
1F
100
AcDbEntity
  8
0
  6
Continuous
 62
     7
370
    25
100
AcDbLine
 10
18.2493465456
 20
-24.0151088936
 30
0.0
 11
20.4812984087
 21
-22.1422790235
 31
0.0
  0
SPLINE
  5
84
330
1F
100
AcDbEntity
  8
0
  6
Continuous
 62
     7
370
    25
100
AcDbSpline
210
0.0
220
0.0
230
1.0
 70
     8
 71
     3
 72
    10
 73
     6
 74
     0
 42
0.000000001
 43
0.00000001
 40
0.0066183905580267
 40
0.0066183905580267
 40
0.0066183905580267
 40
0.0066183905580267
 40
0.5022137642164898
 40
0.7500114510457214
 40
0.997809137874953
 40
0.997809137874953
 40
0.997809137874953
 40
0.997809137874953
 10
20.48129840870676
 20
-22.14227902350406
 30
0.0
 10
20.40695287661424
 20
-20.89817638348583
 30
0.0
 10
20.1208478940847
 20
-19.02900572400304
 30
0.0
 10
19.26114374110635
 20
-16.68176187885934
 30
0.0
 10
18.63434231469302
 20
-15.60180130512406
 30
0.0
 10
18.24542656790322
 20
-15.1206588421241
 30
0.0
  0
SPLINE
  5
85
330
1F
100
AcDbEntity
  8
0
  6
Continuous
 62
     7
370
    25
100
AcDbSpline
210
0.0
220
0.0
230
1.0
 70
     8
 71
     3
 72
    15
 73
    11
 74
     0
 42
0.000000001
 43
0.00000001
 40
0.0026759238147832
 40
0.0026759238147832
 40
0.0026759238147832
 40
0.0026759238147832
 40
0.0651941251301248
 40
0.1277123264454665
 40
0.2527487290761498
 40
0.5028215343375165
 40
0.7528943395988832
 40
0.8779307422295666
 40
0.9404489435449083
 40
1.00296714486025
 40
1.00296714486025
 40
1.00296714486025
 40
1.00296714486025
 10
18.24542656790322
 20
-15.1206588421241
 30
0.0
 10
18.13982133821963
 20
-15.05438662607075
 30
0.0
 10
17.91274148248565
 20
-14.96131917031893
 30
0.0
 10
17.43342168642084
 20
-14.73248872510232
 30
0.0
 10
16.62988779919611
 20
-14.28710870463328
 30
0.0
 10
15.57356403232269
 20
-13.49440372898899
 30
0.0
 10
14.73291230752671
 20
-12.43385444517273
 30
0.0
 10
14.43079897163179
 20
-11.54919231939107
 30
0.0
 10
14.37290609905881
 20
-10.9956819098403
 30
0.0
 10
14.41468694536891
 20
-10.73197716852823
 30
0.0
 10
14.43410050992446
 20
-10.59943349359258
 30
0.0
  0
LINE
  5
86
330
1F
100
AcDbEntity
  8
0
  6
Continuous
 62
     7
370
    25
100
AcDbLine
 10
14.4341005099
 20
-10.5994334936
 30
0.0
 11
15.3935941953
 21
-8.8874963947
 31
0.0
  0
LINE
  5
87
330
1F
100
AcDbEntity
  8
0
  6
Continuous
 62
     7
370
    25
100
AcDbLine
 10
15.3935941953
 20
-8.8874963947
 30
0.0
 11
16.3964285491
 21
-7.2005818306
 31
0.0
  0
SPLINE
  5
88
330
1F
100
AcDbEntity
  8
0
  6
Continuous
 62
     7
370
    25
100
AcDbSpline
210
0.0
220
0.0
230
1.0
 70
     8
 71
     3
 72
    15
 73
    11
 74
     0
 42
0.000000001
 43
0.00000001
 40
-0.0029671453419588
 40
-0.0029671453419588
 40
-0.0029671453419588
 40
-0.0029671453419588
 40
0.0595510563648296
 40
0.122069258071618
 40
0.2471056614851949
 40
0.4971784683123486
 40
0.7472512751395023
 40
0.8722876785530791
 40
0.9348058802598675
 40
0.997324081966656
 40
0.997324081966656
 40
0.997324081966656
 40
0.997324081966656
 10
16.3964285491112
 20
-7.200581830648568
 30
0.0
 10
16.50150796479575
 20
-7.117497365416038
 30
0.0
 10
16.7089925501888
 20
-6.949461742691429
 30
0.0
 10
17.21729309327036
 20
-6.722843210313264
 30
0.0
 10
18.13448964372191
 20
-6.542150133216003
 30
0.0
 10
19.47327817441449
 20
-6.739901196589912
 30
0.0
 10
20.68794267485229
 20
-7.258352105739844
 30
0.0
 10
21.47541992635645
 20
-7.731542794697327
 30
0.0
 10
21.91325289241951
 20
-8.032230835601071
 30
0.0
 10
22.10739154730356
 20
-8.182353993096292
 30
0.0
 10
22.21758758520056
 20
-8.24067466002931
 30
0.0
  0
SPLINE
  5
89
330
1F
100
AcDbEntity
  8
0
  6
Continuous
 62
     7
370
    25
100
AcDbSpline
210
0.0
220
0.0
230
1.0
 70
     8
 71
     3
 72
    10
 73
     6
 74
     0
 42
0.000000001
 43
0.00000001
 40
0.0021908574203922
 40
0.0021908574203922
 40
0.0021908574203922
 40
0.0021908574203922
 40
0.2499885451601042
 40
0.4977862328998162
 40
0.99338160837924
 40
0.99338160837924
 40
0.99338160837924
 40
0.99338160837924
 10
22.21758758520056
 20
-8.24067466002931
 30
0.0
 10
22.82872700035354
 20
-8.336914611199028
 30
0.0
 10
24.07740102542537
 20
-8.339760031562468
 30
0.0
 10
26.54002590009127
 20
-7.910664172449431
 30
0.0
 10
28.30182764310661
 20
-7.223852846542402
 30
0.0
 10
29.41642501052556
 20
-6.666186853902584
 30
0.0
  0
LINE
  5
8A
330
1F
100
AcDbEntity
  8
0
  6
Continuous
 62
     7
370
    25
100
AcDbLine
 10
29.4164250105
 20
-6.6661868539
 30
0.0
 11
29.922367497
 21
-3.796845024
 31
0.0
  0
SPLINE
  5
8B
330
1F
100
AcDbEntity
  8
0
  6
Continuous
 62
     7
370
    25
100
AcDbSpline
210
0.0
220
0.0
230
1.0
 70
     8
 71
     3
 72
    10
 73
     6
 74
     0
 42
0.000000001
 43
0.00000001
 40
0.0066183905580278
 40
0.0066183905580278
 40
0.0066183905580278
 40
0.0066183905580278
 40
0.5022137642164869
 40
0.7500114510457163
 40
0.9978091378749459
 40
0.9978091378749459
 40
0.9978091378749459
 40
0.9978091378749459
 10
29.92236749702631
 20
-3.796845024042047
 30
0.0
 10
29.06572175311412
 20
-2.891595496851041
 30
0.0
 10
27.64507288079351
 20
-1.643632437752918
 30
0.0
 10
25.47772203110687
 20
-0.3981465110657112
 30
0.0
 10
24.30337900571678
 20
0.0262510945990456
 30
0.0
 10
23.69617984533658
 20
0.1448373814805683
 30
0.0
  0
SPLINE
  5
8C
330
1F
100
AcDbEntity
  8
0
  6
Continuous
 62
     7
370
    25
100
AcDbSpline
210
0.0
220
0.0
230
1.0
 70
     8
 71
     3
 72
    15
 73
    11
 74
     0
 42
0.000000001
 43
0.00000001
 40
0.0026759238147906
 40
0.0026759238147906
 40
0.0026759238147906
 40
0.0026759238147906
 40
0.0651941251301316
 40
0.1277123264454726
 40
0.2527487290761546
 40
0.5028215343375186
 40
0.7528943395988826
 40
0.8779307422295646
 40
0.9404489435449056
 40
1.002967144860247
 40
1.002967144860247
 40
1.002967144860247
 40
1.002967144860247
 10
23.69617984533658
 20
0.1448373814805683
 30
0.0
 10
23.5726825866276
 20
0.1277231111626304
 30
0.0
 10
23.33890671757592
 20
0.0530528008013941
 30
0.0
 10
22.82463707641936
 20
-0.0797537342119377
 30
0.0
 10
21.92280964849352
 20
-0.2550744711267147
 30
0.0
 10
20.60407776026471
 20
-0.3268190586652593
 30
0.0
 10
19.27839323878736
 20
-0.0547516859044979
 30
0.0
 10
18.47831114342148
 20
0.4287441105540772
 30
0.0
 10
18.07817299699904
 20
0.8155448628198456
 30
0.0
 10
17.94067284181263
 20
1.044410624856474
 30
0.0
 10
17.87034706307065
 20
1.158423769267711
 30
0.0
  0
LINE
  5
8D
330
1F
100
AcDbEntity
  8
0
  6
Continuous
 62
     7
370
    25
100
AcDbLine
 10
17.8703470631
 20
1.1584237693
 30
0.0
 11
17.5049499132
 21
3.0865943234
 31
0.0
  0
LINE
  5
8E
330
1F
100
AcDbEntity
  8
0
  6
Continuous
 62
     7
370
    25
100
AcDbLine
 10
17.5049499132
 20
3.0865943234
 30
0.0
 11
17.188837817
 21
5.0234553484
 31
0.0
  0
SPLINE
  5
8F
330
1F
100
AcDbEntity
  8
0
  6
Continuous
 62
     7
370
    25
100
AcDbSpline
210
0.0
220
0.0
230
1.0
 70
     8
 71
     3
 72
    15
 73
    11
 74
     0
 42
0.000000001
 43
0.00000001
 40
-0.0029671453419508
 40
-0.0029671453419508
 40
-0.0029671453419508
 40
-0.0029671453419508
 40
0.0595510563648373
 40
0.1220692580716255
 40
0.2471056614852017
 40
0.4971784683123542
 40
0.7472512751395067
 40
0.872287678553083
 40
0.9348058802598711
 40
0.9973240819666592
 40
0.9973240819666592
 40
0.9973240819666592
 40
0.9973240819666592
 10
17.18883781696334
 20
5.023455348381312
 30
0.0
 10
17.2159276546258
 20
5.154645487717321
 30
0.0
 10
17.26685885202563
 20
5.41673676344312
 30
0.0
 10
17.51057207374961
 20
5.917065921968954
 30
0.0
 10
18.09703812335669
 20
6.645047427866885
 30
0.0
 10
19.24972157114422
 20
7.354118004168023
 30
0.0
 10
20.51346238259081
 20
7.737732856991267
 30
0.0
 10
21.42086606706902
 20
7.881428379356588
 30
0.0
 10
21.94954412480984
 20
7.932521582207627
 30
0.0
 10
22.19476026814328
 20
7.942310493545587
 30
0.0
 10
22.31666313272117
 20
7.968466918519308
 30
0.0
  0
SPLINE
  5
90
330
1F
100
AcDbEntity
  8
0
  6
Continuous
 62
     7
370
    25
100
AcDbSpline
210
0.0
220
0.0
230
1.0
 70
     8
 71
     3
 72
    10
 73
     6
 74
     0
 42
0.000000001
 43
0.00000001
 40
0.0021908574203897
 40
0.0021908574203897
 40
0.0021908574203897
 40
0.0021908574203897
 40
0.249988545160103
 40
0.4977862328998164
 40
0.993381608379243
 40
0.993381608379243
 40
0.993381608379243
 40
0.993381608379243
 10
22.31666313272117
 20
7.968466918519308
 30
0.0
 10
22.8466849338389
 20
8.287575682571
 30
0.0
 10
23.80505373296607
 20
9.08802815596701
 30
0.0
 10
25.4157163320848
 20
10.99967941114694
 30
0.0
 10
26.32386095671368
 20
12.65827174196363
 30
0.0
 10
26.81923128592752
 20
13.80191805430795
 30
0.0
  0
LINE
  5
91
330
1F
100
AcDbEntity
  8
0
  6
Continuous
 62
     7
370
    25
100
AcDbLine
 10
26.8192312859
 20
13.8019180543
 30
0.0
 11
25.3624282834
 21
16.3251750475
 31
0.0
  0
SPLINE
  5
92
330
1F
100
AcDbEntity
  8
0
  6
Continuous
 62
     7
370
    25
100
AcDbSpline
210
0.0
220
0.0
230
1.0
 70
     8
 71
     3
 72
    10
 73
     6
 74
     0
 42
0.000000001
 43
0.00000001
 40
0.0066183905580262
 40
0.0066183905580262
 40
0.0066183905580262
 40
0.0066183905580262
 40
0.5022137642164871
 40
0.7500114510457176
 40
0.9978091378749481
 40
0.9978091378749481
 40
0.9978091378749481
 40
0.9978091378749481
 10
25.36242828341515
 20
16.32517504752446
 30
0.0
 10
24.12431639181669
 20
16.46799514738769
 30
0.0
 10
22.23386102581748
 20
16.51081482118479
 30
0.0
 10
19.77299102941228
 20
16.07176612228425
 30
0.0
 10
18.60059455799477
 20
15.64202040353414
 30
0.0
 10
18.05922721943282
 20
15.34256267272541
 30
0.0
  0
SPLINE
  5
93
330
1F
100
AcDbEntity
  8
0
  6
Continuous
 62
     7
370
    25
100
AcDbSpline
210
0.0
220
0.0
230
1.0
 70
     8
 71
     3
 72
    15
 73
    11
 74
     0
 42
0.000000001
 43
0.00000001
 40
0.0026759238147925
 40
0.0026759238147925
 40
0.0026759238147925
 40
0.0026759238147925
 40
0.0651941251301336
 40
0.1277123264454748
 40
0.2527487290761572
 40
0.502821534337522
 40
0.7528943395988867
 40
0.8779307422295691
 40
0.9404489435449104
 40
1.002967144860252
 40
1.002967144860252
 40
1.002967144860252
 40
1.002967144860252
 10
18.05922721943282
 20
15.34256267272541
 30
0.0
 10
17.97562367156755
 20
15.25006987332195
 30
0.0
 10
17.84453811645689
 20
15.04260086493363
 30
0.0
 10
17.53595111077609
 20
14.61029900340338
 30
0.0
 10
16.95780521837115
 20
13.89631203038011
 30
0.0
 10
15.99371451536153
 20
12.9936879695203
 30
0.0
 10
14.80329971814431
 20
12.34997008381878
 30
0.0
 10
13.87961616765128
 20
12.20606649433404
 30
0.0
 10
13.32446183313053
 20
12.24516921851819
 30
0.0
 10
13.07201852720341
 20
12.33210716766276
 30
0.0
 10
12.94485961862114
 20
12.37424176416454
 30
0.0
  0
LINE
  5
94
330
1F
100
AcDbEntity
  8
0
  6
Continuous
 62
     7
370
    25
100
AcDbLine
 10
12.9448596186
 20
12.3742417642
 30
0.0
 11
11.4255450209
 21
13.616433342
 31
0.0
  0
LINE
  5
95
330
1F
100
AcDbEntity
  8
0
  6
Continuous
 62
     7
370
    25
100
AcDbLine
 10
11.4255450209
 20
13.616433342
 30
0.0
 11
9.9383988376
 21
14.8969620285
 31
0.0
  0
SPLINE
  5
96
330
1F
100
AcDbEntity
  8
0
  6
Continuous
 62
     7
370
    25
100
AcDbSpline
210
0.0
220
0.0
230
1.0
 70
     8
 71
     3
 72
    15
 73
    11
 74
     0
 42
0.000000001
 43
0.00000001
 40
-0.0029671453419562
 40
-0.0029671453419562
 40
-0.0029671453419562
 40
-0.0029671453419562
 40
0.0595510563648326
 40
0.1220692580716215
 40
0.2471056614851993
 40
0.4971784683123548
 40
0.7472512751395104
 40
0.8722876785530882
 40
0.9348058802598771
 40
0.9973240819666659
 40
0.9973240819666659
 40
0.9973240819666659
 40
0.9973240819666659
 10
9.938398837605057
 20
14.89696202853923
 30
0.0
 10
9.874823461133158
 20
15.01487251776743
 30
0.0
 10
9.745369997239214
 20
15.24838402576222
 30
0.0
 10
9.610459772590175
 20
15.78831423662235
 30
0.0
 10
9.591781338897485
 20
16.72295353409802
 30
0.0
 10
10.01900630791066
 20
18.00706374698131
 30
0.0
 10
10.74050505977556
 20
19.11324670873761
 30
0.0
 10
11.34325090859183
 20
19.80659171051305
 30
0.0
 10
11.71539971919133
 20
20.18555907966729
 30
0.0
 10
11.89695399223463
 20
20.35067971943166
 30
0.0
 10
11.97352397835794
 20
20.44907435437063
 30
0.0
  0
SPLINE
  5
97
330
1F
100
AcDbEntity
  8
0
  6
Continuous
 62
     7
370
    25
100
AcDbSpline
210
0.0
220
0.0
230
1.0
 70
     8
 71
     3
 72
    10
 73
     6
 74
     0
 42
0.000000001
 43
0.00000001
 40
0.0021908574203806
 40
0.0021908574203806
 40
0.0021908574203806
 40
0.0021908574203806
 40
0.2499885451600965
 40
0.4977862328998124
 40
0.9933816083792442
 40
0.9933816083792442
 40
0.9933816083792442
 40
0.9933816083792442
 10
11.97352397835794
 20
20.44907435437063
 30
0.0
 10
12.1744250741616
 20
21.03421729644509
 30
0.0
 10
12.39405723514922
 20
22.26342705526016
 30
0.0
 10
12.39911062807251
 20
24.76315083857121
 30
0.0
 10
12.02866717154781
 20
26.61745038950802
 30
0.0
 10
11.67302118008932
 20
27.81195220179784
 30
0.0
  0
LINE
  5
98
330
1F
100
AcDbEntity
  8
0
  6
Continuous
 62
     7
370
    25
100
AcDbLine
 10
11.6730211801
 20
27.8119522018
 30
0.0
 11
8.935127004
 21
28.8084642802
 31
0.0
  0
SPLINE
  5
99
330
1F
100
AcDbEntity
  8
0
  6
Continuous
 62
     7
370
    25
100
AcDbSpline
210
0.0
220
0.0
230
1.0
 70
     8
 71
     3
 72
    10
 73
     6
 74
     0
 42
0.000000001
 43
0.00000001
 40
0.0066183905580284
 40
0.0066183905580284
 40
0.0066183905580284
 40
0.0066183905580284
 40
0.5022137642164881
 40
0.750011451045718
 40
0.9978091378749478
 40
0.9978091378749478
 40
0.9978091378749478
 40
0.9978091378749478
 10
8.935127004001124
 20
28.80846428024345
 30
0.0
 10
7.894875278876301
 20
28.12202784078436
 30
0.0
 10
6.41917849502059
 20
26.93966832802301
 30
0.0
 10
4.816257772738446
 20
25.02152076923307
 30
0.0
 10
4.194385194005171
 20
23.93871452396293
 30
0.0
 10
3.972161471602364
 20
23.36133237581128
 30
0.0
  0
SPLINE
  5
9A
330
1F
100
AcDbEntity
  8
0
  6
Continuous
 62
     7
370
    25
100
AcDbSpline
210
0.0
220
0.0
230
1.0
 70
     8
 71
     3
 72
    15
 73
    11
 74
     0
 42
0.000000001
 43
0.00000001
 40
0.0026759238147916
 40
0.0026759238147916
 40
0.0026759238147916
 40
0.0026759238147916
 40
0.0651941251301323
 40
0.127712326445473
 40
0.2527487290761544
 40
0.5028215343375171
 40
0.7528943395988799
 40
0.8779307422295612
 40
0.9404489435449019
 40
1.002967144860243
 40
1.002967144860243
 40
1.002967144860243
 40
1.002967144860243
 10
3.972161471602364
 20
23.36133237581128
 30
0.0
 10
3.967570663776937
 20
23.2367394561061
 30
0.0
 10
4.000511810697192
 20
22.99354880447676
 30
0.0
 10
4.041998730012745
 20
22.4640304619397
 30
0.0
 10
4.058055261560869
 20
21.54545969256676
 30
0.0
 10
3.899714498383305
 20
20.23430398801109
 30
0.0
 10
3.401577739031033
 20
18.97600359669442
 30
0.0
 10
2.786494532285655
 20
18.27203471009654
 30
0.0
 10
2.336086892642067
 20
17.9451428069749
 30
0.0
 10
2.086821464412322
 20
17.84947371061496
 30
0.0
 10
1.962328492529286
 20
17.80001451323033
 30
0.0
  0
LINE
  5
9B
330
1F
100
AcDbEntity
  8
0
  6
Continuous
 62
     7
370
    25
100
AcDbLine
 10
1.9623284925
 20
17.8000145132
 30
0.0
 11
0.0000006325
 21
17.7749918701
 31
0.0
  0
LINE
  5
9C
330
1F
100
AcDbEntity
  8
0
  6
Continuous
 62
     7
370
    25
100
AcDbLine
 10
0.0000006325
 20
17.7749918701
 30
0.0
 11
-1.9623274109
 21
17.8000146143
 31
0.0
  0
SPLINE
  5
9D
330
1F
100
AcDbEntity
  8
0
  6
Continuous
 62
     7
370
    25
100
AcDbSpline
210
0.0
220
0.0
230
1.0
 70
     8
 71
     3
 72
    15
 73
    11
 74
     0
 42
0.000000001
 43
0.00000001
 40
-0.0029671453419567
 40
-0.0029671453419567
 40
-0.0029671453419567
 40
-0.0029671453419567
 40
0.0595510563648324
 40
0.1220692580716215
 40
0.2471056614851998
 40
0.4971784683123562
 40
0.7472512751395127
 40
0.872287678553091
 40
0.9348058802598801
 40
0.9973240819666692
 40
0.9973240819666692
 40
0.9973240819666692
 40
0.9973240819666692
 10
-1.962327410868376
 20
17.80001461425251
 30
0.0
 10
-2.086820376261842
 20
17.8494738250339
 30
0.0
 10
-2.336085786978559
 20
17.94514293551563
 30
0.0
 10
-2.786493464527221
 20
18.27203485239264
 30
0.0
 10
-3.401576534807159
 20
18.97600382679849
 30
0.0
 10
-3.899713355646278
 20
20.2343042363605
 30
0.0
 10
-4.058053947926203
 20
21.54546000538976
 30
0.0
 10
-4.041997416206799
 20
22.46403065457341
 30
0.0
 10
-4.000510417201564
 20
22.99354914625028
 30
0.0
 10
-3.967569276556291
 20
23.23673973198392
 30
0.0
 10
-3.972160116375249
 20
23.36133263366558
 30
0.0
  0
SPLINE
  5
9E
330
1F
100
AcDbEntity
  8
0
  6
Continuous
 62
     7
370
    25
100
AcDbSpline
210
0.0
220
0.0
230
1.0
 70
     8
 71
     3
 72
    10
 73
     6
 74
     0
 42
0.000000001
 43
0.00000001
 40
0.0021908574203818
 40
0.0021908574203818
 40
0.0021908574203818
 40
0.0021908574203818
 40
0.2499885451600979
 40
0.4977862328998139
 40
0.993381608379246
 40
0.993381608379246
 40
0.993381608379246
 40
0.993381608379246
 10
-3.972160116375249
 20
23.36133263366558
 30
0.0
 10
-4.194383581379326
 20
23.93871486802704
 30
0.0
 10
-4.816256387596675
 20
25.02152100496647
 30
0.0
 10
-6.419176739579956
 20
26.93966877686217
 30
0.0
 10
-7.894873666930009
 20
28.12202817979182
 30
0.0
 10
-8.935125267092355
 20
28.80846481864782
 30
0.0
  0
LINE
  5
9F
330
1F
100
AcDbEntity
  8
0
  6
Continuous
 62
     7
370
    25
100
AcDbLine
 10
-8.9351252671
 20
28.8084648186
 30
0.0
 11
-11.6730195035
 21
27.8119529058
 31
0.0
  0
SPLINE
  5
A0
330
1F
100
AcDbEntity
  8
0
  6
Continuous
 62
     7
370
    25
100
AcDbSpline
210
0.0
220
0.0
230
1.0
 70
     8
 71
     3
 72
    10
 73
     6
 74
     0
 42
0.000000001
 43
0.00000001
 40
0.0066183905580245
 40
0.0066183905580245
 40
0.0066183905580245
 40
0.0066183905580245
 40
0.5022137642164862
 40
0.7500114510457171
 40
0.997809137874948
 40
0.997809137874948
 40
0.997809137874948
 40
0.997809137874948
 10
-11.67301950346033
 20
27.8119529058196
 30
0.0
 10
-12.02866571881551
 20
26.61745116595231
 30
0.0
 10
-12.3991089948187
 20
24.76315162311587
 30
0.0
 10
-12.39405602254251
 20
22.26342776502984
 30
0.0
 10
-12.17442361765839
 20
21.03421806945257
 30
0.0
 10
-11.97352277444817
 20
20.44907502796596
 30
0.0
  0
SPLINE
  5
A1
330
1F
100
AcDbEntity
  8
0
  6
Continuous
 62
     7
370
    25
100
AcDbSpline
210
0.0
220
0.0
230
1.0
 70
     8
 71
     3
 72
    15
 73
    11
 74
     0
 42
0.000000001
 43
0.00000001
 40
0.0026759238147904
 40
0.0026759238147904
 40
0.0026759238147904
 40
0.0026759238147904
 40
0.0651941251301313
 40
0.1277123264454723
 40
0.2527487290761541
 40
0.502821534337518
 40
0.7528943395988817
 40
0.8779307422295637
 40
0.9404489435449046
 40
1.002967144860246
 40
1.002967144860246
 40
1.002967144860246
 40
1.002967144860246
 10
-11.97352277444817
 20
20.44907502796596
 30
0.0
 10
-11.89695275223112
 20
20.3506803997852
 30
0.0
 10
-11.71539843202396
 20
20.18555971357526
 30
0.0
 10
-11.34324977833553
 20
19.80659240744525
 30
0.0
 10
-10.74050385239425
 20
19.11324731348931
 30
0.0
 10
-10.01900527288739
 20
18.00706429127181
 30
0.0
 10
-9.591780268500436
 20
16.72295413188819
 30
0.0
 10
-9.610458863173598
 20
15.788314813959
 30
0.0
 10
-9.745369067627463
 20
15.24838463800107
 30
0.0
 10
-9.874822554014461
 20
15.01487312956702
 30
0.0
 10
-9.938397944068944
 20
14.89696264642992
 30
0.0
  0
LINE
  5
A2
330
1F
100
AcDbEntity
  8
0
  6
Continuous
 62
     7
370
    25
100
AcDbLine
 10
-9.9383979441
 20
14.8969626464
 30
0.0
 11
-11.4255440518
 21
13.6164341551
 31
0.0
  0
LINE
  5
A3
330
1F
100
AcDbEntity
  8
0
  6
Continuous
 62
     7
370
    25
100
AcDbLine
 10
-11.4255440518
 20
13.6164341551
 30
0.0
 11
-12.944858855
 21
12.3742425368
 31
0.0
  0
SPLINE
  5
A4
330
1F
100
AcDbEntity
  8
0
  6
Continuous
 62
     7
370
    25
100
AcDbSpline
210
0.0
220
0.0
230
1.0
 70
     8
 71
     3
 72
    15
 73
    11
 74
     0
 42
0.000000001
 43
0.00000001
 40
-0.0029671453419567
 40
-0.0029671453419567
 40
-0.0029671453419567
 40
-0.0029671453419567
 40
0.0595510563648323
 40
0.1220692580716213
 40
0.2471056614851992
 40
0.497178468312355
 40
0.7472512751395108
 40
0.8722876785530888
 40
0.9348058802598778
 40
0.9973240819666667
 40
0.9973240819666667
 40
0.9973240819666667
 40
0.9973240819666667
 10
-12.94485885495659
 20
12.37424253683026
 30
0.0
 10
-13.07201776717881
 20
12.33210795476232
 30
0.0
 10
-13.32446106876752
 20
12.24517002769286
 30
0.0
 10
-13.87961544116699
 20
12.20606728968103
 30
0.0
 10
-14.80329894356338
 20
12.3499710341489
 30
0.0
 10
-15.99371379961005
 20
12.99368889430417
 30
0.0
 10
-16.9578044131473
 20
13.89631311440448
 30
0.0
 10
-17.53595022816485
 20
14.61029999546755
 30
0.0
 10
-17.84453726866501
 20
15.04260202246903
 30
0.0
 10
-17.97562278622568
 20
15.25007097634485
 30
0.0
 10
-18.05922634701411
 20
15.34256374137646
 30
0.0
  0
SPLINE
  5
A5
330
1F
100
AcDbEntity
  8
0
  6
Continuous
 62
     7
370
    25
100
AcDbSpline
210
0.0
220
0.0
230
1.0
 70
     8
 71
     3
 72
    10
 73
     6
 74
     0
 42
0.000000001
 43
0.00000001
 40
0.0021908574203857
 40
0.0021908574203857
 40
0.0021908574203857
 40
0.0021908574203857
 40
0.2499885451601007
 40
0.4977862328998156
 40
0.9933816083792455
 40
0.9933816083792455
 40
0.9933816083792455
 40
0.9933816083792455
 10
-18.05922634701411
 20
15.34256374137646
 30
0.0
 10
-18.60059354381199
 20
15.64202170367815
 30
0.0
 10
-19.77299011985858
 20
16.07176719321864
 30
0.0
 10
-22.23385996958024
 20
16.51081629339102
 30
0.0
 10
-24.12431537490395
 20
16.4679964432214
 30
0.0
 10
-25.36242729894547
 20
16.32517657642959
 30
0.0
  0
LINE
  5
A6
330
1F
100
AcDbEntity
  8
0
  6
Continuous
 62
     7
370
    25
100
AcDbLine
 10
-25.3624272989
 20
16.3251765764
 30
0.0
 11
-26.8192304541
 21
13.8019196713
 31
0.0
  0
SPLINE
  5
A7
330
1F
100
AcDbEntity
  8
0
  6
Continuous
 62
     7
370
    25
100
AcDbSpline
210
0.0
220
0.0
230
1.0
 70
     8
 71
     3
 72
    10
 73
     6
 74
     0
 42
0.000000001
 43
0.00000001
 40
0.0066183905580262
 40
0.0066183905580262
 40
0.0066183905580262
 40
0.0066183905580262
 40
0.5022137642164856
 40
0.7500114510457152
 40
0.997809137874945
 40
0.997809137874945
 40
0.997809137874945
 40
0.997809137874945
 10
-26.81923045409166
 20
13.80191967133611
 30
0.0
 10
-26.32386034294502
 20
12.65827327055264
 30
0.0
 10
-25.41571558523546
 20
10.99968106197819
 30
0.0
 10
-23.80505326028648
 20
9.088029479130658
 30
0.0
 10
-22.84668431497253
 20
8.287577210950879
 30
0.0
 10
-22.31666264345154
 20
7.968468208381447
 30
0.0
  0
SPLINE
  5
A8
330
1F
100
AcDbEntity
  8
0
  6
Continuous
 62
     7
370
    25
100
AcDbSpline
210
0.0
220
0.0
230
1.0
 70
     8
 71
     3
 72
    15
 73
    11
 74
     0
 42
0.000000001
 43
0.00000001
 40
0.002675923814789
 40
0.002675923814789
 40
0.002675923814789
 40
0.002675923814789
 40
0.0651941251301299
 40
0.1277123264454709
 40
0.2527487290761528
 40
0.5028215343375165
 40
0.7528943395988803
 40
0.8779307422295621
 40
0.940448943544903
 40
1.002967144860244
 40
1.002967144860244
 40
1.002967144860244
 40
1.002967144860244
 10
-22.31666264345154
 20
7.968468208381447
 30
0.0
 10
-22.19475975556836
 20
7.942311811785374
 30
0.0
 10
-21.94954354625072
 20
7.932522895184475
 30
0.0
 10
-21.42086564922189
 20
7.881429639752259
 30
0.0
 10
-20.51346184641006
 20
7.737734096347605
 30
0.0
 10
-19.24972112813359
 20
7.354119086418772
 30
0.0
 10
-18.09703768763712
 20
6.645048573838572
 30
0.0
 10
-17.51057174820098
 20
5.917066948796149
 30
0.0
 10
-17.26685853344127
 20
5.416737829988066
 30
0.0
 10
-17.21592735298978
 20
5.154646539467558
 30
0.0
 10
-17.18883752964746
 20
5.023456396066902
 30
0.0
  0
LINE
  5
A9
330
1F
100
AcDbEntity
  8
0
  6
Continuous
 62
     7
370
    25
100
AcDbLine
 10
-17.1888375296
 20
5.0234563961
 30
0.0
 11
-17.5049496936
 21
3.0865955692
 31
0.0
  0
LINE
  5
AA
330
1F
100
AcDbEntity
  8
0
  6
Continuous
 62
     7
370
    25
100
AcDbLine
 10
-17.5049496936
 20
3.0865955692
 30
0.0
 11
-17.8703469747
 21
1.158424852
 31
0.0
  0
SPLINE
  5
AB
330
1F
100
AcDbEntity
  8
0
  6
Continuous
 62
     7
370
    25
100
AcDbSpline
210
0.0
220
0.0
230
1.0
 70
     8
 71
     3
 72
    15
 73
    11
 74
     0
 42
0.000000001
 43
0.00000001
 40
-0.0029671453419511
 40
-0.0029671453419511
 40
-0.0029671453419511
 40
-0.0029671453419511
 40
0.0595510563648375
 40
0.1220692580716261
 40
0.2471056614852034
 40
0.4971784683123578
 40
0.7472512751395124
 40
0.8722876785530896
 40
0.9348058802598782
 40
0.9973240819666669
 40
0.9973240819666669
 40
0.9973240819666669
 40
0.9973240819666669
 10
-17.8703469747296
 20
1.158424852038112
 30
0.0
 10
-17.94067276553787
 20
1.044411716344142
 30
0.0
 10
-18.07817293159045
 20
0.8155459740066974
 30
0.0
 10
-18.47831109814146
 20
0.4287451868003251
 30
0.0
 10
-19.2783932562843
 20
-0.0547504600182978
 30
0.0
 10
-20.60407780640688
 20
-0.3268178901634946
 30
0.0
 10
-21.92280972845373
 20
-0.2550731231278948
 30
0.0
 10
-22.82463703798646
 20
-0.0797524069150829
 30
0.0
 10
-23.33890681217906
 20
0.0530542324751183
 30
0.0
 10
-23.57268261742583
 20
0.1277245252140365
 30
0.0
 10
-23.69617986394074
 20
0.144838760894766
 30
0.0
  0
SPLINE
  5
AC
330
1F
100
AcDbEntity
  8
0
  6
Continuous
 62
     7
370
    25
100
AcDbSpline
210
0.0
220
0.0
230
1.0
 70
     8
 71
     3
 72
    10
 73
     6
 74
     0
 42
0.000000001
 43
0.00000001
 40
0.0021908574203867
 40
0.0021908574203867
 40
0.0021908574203867
 40
0.0021908574203867
 40
0.2499885451601014
 40
0.497786232899816
 40
0.9933816083792453
 40
0.9933816083792453
 40
0.9933816083792453
 40
0.9933816083792453
 10
-23.69617986394074
 20
0.144838760894766
 30
0.0
 10
-24.30337906452418
 20
0.0262527424714085
 30
0.0
 10
-25.47772202273163
 20
-0.3981451060324837
 30
0.0
 10
-27.64507301798479
 20
-1.643630631041234
 30
0.0
 10
-29.06572180705955
 20
-2.891593850525946
 30
0.0
 10
-29.92236772564008
 20
-3.796843220027818
 30
0.0
  0
LINE
  5
AD
330
1F
100
AcDbEntity
  8
0
  6
Continuous
 62
     7
370
    25
100
AcDbLine
 10
-29.9223677256
 20
-3.79684322
 30
0.0
 11
-29.3991238846
 21
-6.6567752159
 31
0.0
  0
SPLINE
  5
AE
330
1F
100
AcDbEntity
  8
0
  6
Continuous
 62
     7
370
    25
100
AcDbSpline
210
0.0
220
0.0
230
1.0
 70
     8
 71
     3
 72
    10
 73
     6
 74
     0
 42
0.000000001
 43
0.00000001
 40
0.0065713842933126
 40
0.0065713842933126
 40
0.0065713842933126
 40
0.0065713842933126
 40
0.5021902610841315
 40
0.7499996994795408
 40
0.9978091378749503
 40
0.9978091378749503
 40
0.9978091378749503
 40
0.9978091378749503
 10
-29.39912388460943
 20
-6.656775215863656
 30
0.0
 10
-28.28446576410434
 20
-7.214455232786203
 30
0.0
 10
-26.52258841219274
 20
-7.901333218161307
 30
0.0
 10
-24.05985144199476
 20
-8.330440179367528
 30
0.0
 10
-22.8111155609964
 20
-8.327589121269884
 30
0.0
 10
-22.19994798329715
 20
-8.231337533731237
 30
0.0
  0
SPLINE
  5
AF
330
1F
100
AcDbEntity
  8
0
  6
Continuous
 62
     7
370
    25
100
AcDbSpline
210
0.0
220
0.0
230
1.0
 70
     8
 71
     3
 72
    15
 73
    11
 74
     0
 42
0.000000001
 43
0.00000001
 40
0.0058809851538636
 40
0.0058809851538636
 40
0.0058809851538636
 40
0.0058809851538636
 40
0.0681988701355127
 40
0.1305167551171618
 40
0.2551525250804599
 40
0.5044240650070562
 40
0.7536956049336524
 40
0.8783313748969506
 40
0.9406492598785996
 40
1.002967144860249
 40
1.002967144860249
 40
1.002967144860249
 40
1.002967144860249
 10
-22.19994798329715
 20
-8.231337533731237
 30
0.0
 10
-22.0900988567256
 20
-8.173200430964107
 30
0.0
 10
-21.89902161771814
 20
-8.019957353843264
 30
0.0
 10
-21.46076022430978
 20
-7.722724968382913
 30
0.0
 10
-20.67543075201163
 20
-7.251900514014247
 30
0.0
 10
-19.4629661194862
 20
-6.737400495257672
 30
0.0
 10
-18.12765686189017
 20
-6.542800972620855
 30
0.0
 10
-17.21456358209496
 20
-6.723689071703712
 30
0.0
 10
-16.70795611337024
 20
-6.950213323605782
 30
0.0
 10
-16.50118366375838
 20
-7.117753225050878
 30
0.0
 10
-16.39642900245376
 20
-7.200580931514857
 30
0.0
  0
LINE
  5
B0
330
1F
100
AcDbEntity
  8
0
  6
Continuous
 62
     7
370
    25
100
AcDbLine
 10
-16.3964290025
 20
-7.2005809315
 30
0.0
 11
-15.3935948278
 21
-8.8874953873
 31
0.0
  0
LINE
  5
B1
330
1F
100
AcDbEntity
  8
0
  6
Continuous
 62
     7
370
    25
100
AcDbLine
 10
-15.3935948278
 20
-8.8874953873
 30
0.0
 11
-14.4592202231
 21
-10.5546149974
 31
0.0
  0
CIRCLE
  5
B2
330
1F
100
AcDbEntity
  8
0
  6
Continuous
 62
     7
370
    25
100
AcDbCircle
 10
0.0
 20
0.0
 30
0.0
 40
11.0
  0
MTEXT
  5
B4
330
1F
100
AcDbEntity
  8
0
  6
Continuous
 62
     7
100
AcDbMText
 10
-29.9223677256
 20
-31.1466610224
 30
0.0
 40
4.83362
 41
0.0
 71
     1
 72
     1
  1
Produto educacional do SOLIDWORKS.
  7
SLDTEXTSTYLE0
 73
     1
 44
1.0
  0
MTEXT
  5
B5
330
1F
100
AcDbEntity
  8
0
  6
Continuous
 62
     7
100
AcDbMText
 10
-29.9223677256
 20
-38.3970910224
 30
0.0
 40
4.83362
 41
0.0
 71
     1
 72
     1
  1
Somente para fins de instruo.
  7
SLDTEXTSTYLE0
 73
     1
 44
1.0
  0
ENDSEC
  0
SECTION
  2
OBJECTS
  0
DICTIONARY
  5
C
330
0
100
AcDbDictionary
281
     1
  3
ACAD_GROUP
350
D
  3
ACAD_LAYOUT
350
1A
  3
ACAD_MLINESTYLE
350
17
  3
ACAD_PLOTSETTINGS
350
19
  3
ACAD_PLOTSTYLENAME
350
E
  3
ACAD_SCALELIST
350
47
  0
DICTIONARY
  5
D
102
{ACAD_REACTORS
330
C
102
}
330
C
100
AcDbDictionary
281
     1
  0
DICTIONARY
  5
1A
102
{ACAD_REACTORS
330
C
102
}
330
C
100
AcDbDictionary
281
     1
  3
Layout1
350
1E
  3
Layout2
350
26
  3
Model
350
22
  0
DICTIONARY
  5
17
102
{ACAD_REACTORS
330
C
102
}
330
C
100
AcDbDictionary
281
     1
  3
Standard
350
18
  0
DICTIONARY
  5
19
102
{ACAD_REACTORS
330
C
102
}
330
C
100
AcDbDictionary
281
     1
  0
ACDBDICTIONARYWDFLT
  5
E
102
{ACAD_REACTORS
330
C
102
}
330
C
100
AcDbDictionary
281
     1
  3
Normal
350
F
100
AcDbDictionaryWithDefault
340
F
  0
DICTIONARY
  5
47
102
{ACAD_REACTORS
330
C
102
}
330
C
100
AcDbDictionary
281
     1
  3
A0
350
48
  3
A1
350
49
  3
A2
350
4A
  3
A3
350
4B
  3
A4
350
4C
  3
A5
350
4D
  3
A6
350
4E
  3
A7
350
4F
  3
A8
350
50
  3
A9
350
51
  3
B0
350
52
  3
B1
350
53
  3
B2
350
54
  3
B3
350
55
  3
B4
350
56
  3
B5
350
57
  3
B6
350
58
  3
B7
350
59
  3
B8
350
5A
  3
B9
350
5B
  3
C0
350
5C
  3
C1
350
5D
  3
C2
350
5E
  3
C3
350
5F
  3
C4
350
60
  3
C5
350
61
  3
C6
350
62
  3
C7
350
63
  3
C8
350
64
  3
C9
350
65
  3
D0
350
66
  3
D1
350
67
  3
D2
350
68
  0
LAYOUT
  5
1E
102
{ACAD_REACTORS
330
1A
102
}
330
1A
100
AcDbPlotSettings
  1

  2
none_device
  4

  6

 40
0.0
 41
0.0
 42
0.0
 43
0.0
 44
0.0
 45
0.0
 46
0.0
 47
0.0
 48
0.0
 49
0.0
140
0.0
141
0.0
142
1.0
143
1.0
 70
   688
 72
     1
 73
     0
 74
     5
  7

 75
    16
147
1.0
148
0.0
149
0.0
100
AcDbLayout
  1
Layout1
 70
     1
 71
     1
 10
0.0
 20
0.0
 11
420.0
 21
297.0
 12
0.0
 22
0.0
 32
0.0
 14
1.0000000000E+20
 24
1.0000000000E+20
 34
1.0000000000E+20
 15
-1.0000000000E+20
 25
-1.0000000000E+20
 35
-1.0000000000E+20
146
0.0
 13
0.0
 23
0.0
 33
0.0
 16
1.0
 26
0.0
 36
0.0
 17
0.0
 27
1.0
 37
0.0
 76
     0
330
1B
  0
LAYOUT
  5
26
102
{ACAD_REACTORS
330
1A
102
}
330
1A
100
AcDbPlotSettings
  1

  2
none_device
  4

  6

 40
0.0
 41
0.0
 42
0.0
 43
0.0
 44
0.0
 45
0.0
 46
0.0
 47
0.0
 48
0.0
 49
0.0
140
0.0
141
0.0
142
1.0
143
1.0
 70
   688
 72
     1
 73
     0
 74
     5
  7

 75
    16
147
1.0
148
0.0
149
0.0
100
AcDbLayout
  1
Layout2
 70
     1
 71
     2
 10
0.0
 20
0.0
 11
0.0
 21
0.0
 12
0.0
 22
0.0
 32
0.0
 14
0.0
 24
0.0
 34
0.0
 15
0.0
 25
0.0
 35
0.0
146
0.0
 13
0.0
 23
0.0
 33
0.0
 16
1.0
 26
0.0
 36
0.0
 17
0.0
 27
1.0
 37
0.0
 76
     0
330
23
  0
LAYOUT
  5
22
102
{ACAD_REACTORS
330
1A
102
}
330
1A
100
AcDbPlotSettings
  1

  2
none_device
  4
ANSI_A_(11.00_x_8.50_Inches)
  6

 40
6.35
 41
19.05
 42
6.35000508
 43
19.05000254
 44
279.4
 45
215.9
 46
133.3499978746
 47
91.2911294607
 48
0.0
 49
0.0
140
0.0
141
0.0
142
0.1427830681
143
1.0
 70
  1696
 72
     0
 73
     0
 74
     0
  7

 75
     0
147
0.0179189148
148
-1300.4909072572
149
0.0
100
AcDbLayout
  1
Model
 70
     1
 71
     0
 10
0.0
 20
0.0
 11
420.0
 21
297.0
 12
0.0
 22
0.0
 32
0.0
 14
-29.9223677256
 24
-30.1270946307
 34
0.0
 15
29.922367497
 25
28.8084648186
 35
0.0
146
0.0
 13
0.0
 23
0.0
 33
0.0
 16
1.0
 26
0.0
 36
0.0
 17
0.0
 27
1.0
 37
0.0
 76
     0
330
1F
331
29
  0
MLINESTYLE
  5
18
102
{ACAD_REACTORS
330
17
102
}
330
17
100
AcDbMlineStyle
  2
Standard
 70
     0
  3

 62
   256
 51
90.0
 52
90.0
 71
     2
 49
0.5
 62
   256
  6
BYLAYER
 49
-0.5
 62
   256
  6
BYLAYER
  0
ACDBPLACEHOLDER
  5
F
102
{ACAD_REACTORS
330
E
102
}
330
E
  0
SCALE
  5
48
102
{ACAD_REACTORS
330
47
102
}
330
47
100
AcDbScale
 70
     0
300
1:1
140
1.0
141
1.0
290
     1
  0
SCALE
  5
49
102
{ACAD_REACTORS
330
47
102
}
330
47
100
AcDbScale
 70
     0
300
1:2
140
1.0
141
2.0
290
     0
  0
SCALE
  5
4A
102
{ACAD_REACTORS
330
47
102
}
330
47
100
AcDbScale
 70
     0
300
1:4
140
1.0
141
4.0
290
     0
  0
SCALE
  5
4B
102
{ACAD_REACTORS
330
47
102
}
330
47
100
AcDbScale
 70
     0
300
1:5
140
1.0
141
5.0
290
     0
  0
SCALE
  5
4C
102
{ACAD_REACTORS
330
47
102
}
330
47
100
AcDbScale
 70
     0
300
1:8
140
1.0
141
8.0
290
     0
  0
SCALE
  5
4D
102
{ACAD_REACTORS
330
47
102
}
330
47
100
AcDbScale
 70
     0
300
1:10
140
1.0
141
10.0
290
     0
  0
SCALE
  5
4E
102
{ACAD_REACTORS
330
47
102
}
330
47
100
AcDbScale
 70
     0
300
1:16
140
1.0
141
16.0
290
     0
  0
SCALE
  5
4F
102
{ACAD_REACTORS
330
47
102
}
330
47
100
AcDbScale
 70
     0
300
1:20
140
1.0
141
20.0
290
     0
  0
SCALE
  5
50
102
{ACAD_REACTORS
330
47
102
}
330
47
100
AcDbScale
 70
     0
300
1:30
140
1.0
141
30.0
290
     0
  0
SCALE
  5
51
102
{ACAD_REACTORS
330
47
102
}
330
47
100
AcDbScale
 70
     0
300
1:40
140
1.0
141
40.0
290
     0
  0
SCALE
  5
52
102
{ACAD_REACTORS
330
47
102
}
330
47
100
AcDbScale
 70
     0
300
1:50
140
1.0
141
50.0
290
     0
  0
SCALE
  5
53
102
{ACAD_REACTORS
330
47
102
}
330
47
100
AcDbScale
 70
     0
300
1:100
140
1.0
141
100.0
290
     0
  0
SCALE
  5
54
102
{ACAD_REACTORS
330
47
102
}
330
47
100
AcDbScale
 70
     0
300
2:1
140
2.0
141
1.0
290
     0
  0
SCALE
  5
55
102
{ACAD_REACTORS
330
47
102
}
330
47
100
AcDbScale
 70
     0
300
4:1
140
4.0
141
1.0
290
     0
  0
SCALE
  5
56
102
{ACAD_REACTORS
330
47
102
}
330
47
100
AcDbScale
 70
     0
300
8:1
140
8.0
141
1.0
290
     0
  0
SCALE
  5
57
102
{ACAD_REACTORS
330
47
102
}
330
47
100
AcDbScale
 70
     0
300
10:1
140
10.0
141
1.0
290
     0
  0
SCALE
  5
58
102
{ACAD_REACTORS
330
47
102
}
330
47
100
AcDbScale
 70
     0
300
100:1
140
100.0
141
1.0
290
     0
  0
SCALE
  5
59
102
{ACAD_REACTORS
330
47
102
}
330
47
100
AcDbScale
 70
     0
300
1/128" = 1'-0"
140
0.0078125
141
12.0
290
     0
  0
SCALE
  5
5A
102
{ACAD_REACTORS
330
47
102
}
330
47
100
AcDbScale
 70
     0
300
1/64" = 1'-0"
140
0.015625
141
12.0
290
     0
  0
SCALE
  5
5B
102
{ACAD_REACTORS
330
47
102
}
330
47
100
AcDbScale
 70
     0
300
1/32" = 1'-0"
140
0.03125
141
12.0
290
     0
  0
SCALE
  5
5C
102
{ACAD_REACTORS
330
47
102
}
330
47
100
AcDbScale
 70
     0
300
1/16" = 1'-0"
140
0.0625
141
12.0
290
     0
  0
SCALE
  5
5D
102
{ACAD_REACTORS
330
47
102
}
330
47
100
AcDbScale
 70
     0
300
3/32" = 1'-0"
140
0.09375
141
12.0
290
     0
  0
SCALE
  5
5E
102
{ACAD_REACTORS
330
47
102
}
330
47
100
AcDbScale
 70
     0
300
1/8" = 1'-0"
140
0.125
141
12.0
290
     0
  0
SCALE
  5
5F
102
{ACAD_REACTORS
330
47
102
}
330
47
100
AcDbScale
 70
     0
300
3/16" = 1'-0"
140
0.1875
141
12.0
290
     0
  0
SCALE
  5
60
102
{ACAD_REACTORS
330
47
102
}
330
47
100
AcDbScale
 70
     0
300
1/4" = 1'-0"
140
0.25
141
12.0
290
     0
  0
SCALE
  5
61
102
{ACAD_REACTORS
330
47
102
}
330
47
100
AcDbScale
 70
     0
300
3/8" = 1'-0"
140
0.375
141
12.0
290
     0
  0
SCALE
  5
62
102
{ACAD_REACTORS
330
47
102
}
330
47
100
AcDbScale
 70
     0
300
1/2" = 1'-0"
140
0.5
141
12.0
290
     0
  0
SCALE
  5
63
102
{ACAD_REACTORS
330
47
102
}
330
47
100
AcDbScale
 70
     0
300
3/4" = 1'-0"
140
0.75
141
12.0
290
     0
  0
SCALE
  5
64
102
{ACAD_REACTORS
330
47
102
}
330
47
100
AcDbScale
 70
     0
300
1" = 1'-0"
140
1.0
141
12.0
290
     0
  0
SCALE
  5
65
102
{ACAD_REACTORS
330
47
102
}
330
47
100
AcDbScale
 70
     0
300
1-1/2" = 1'-0"
140
1.5
141
12.0
290
     0
  0
SCALE
  5
66
102
{ACAD_REACTORS
330
47
102
}
330
47
100
AcDbScale
 70
     0
300
3" = 1'-0"
140
3.0
141
12.0
290
     0
  0
SCALE
  5
67
102
{ACAD_REACTORS
330
47
102
}
330
47
100
AcDbScale
 70
     0
300
6" = 1'-0"
140
6.0
141
12.0
290
     0
  0
SCALE
  5
68
102
{ACAD_REACTORS
330
47
102
}
330
47
100
AcDbScale
 70
     0
300
1'-0" = 1'-0"
140
12.0
141
12.0
290
     0
  0
ENDSEC
  0
EOF
